<svg width="110" height="110" viewBox="0 0 110 110" fill="none" xmlns="http://www.w3.org/2000/svg">
<path d="M55 0C24.6712 0 0 24.6712 0 55C0 85.3288 24.6712 110 55 110C85.3288 110 110 85.3246 110 55C110 24.6754 85.3288 0 55 0ZM55 101.48C29.3745 101.48 8.52049 80.6298 8.52049 55C8.52049 29.3702 29.3745 8.52049 55 8.52049C80.6298 8.52049 101.48 29.3702 101.48 55C101.48 80.6298 80.6255 101.48 55 101.48Z" fill="#F7A92C"/>
<path d="M79.3261 60.8792L58.0248 39.5778C56.3632 37.9248 53.6793 37.9248 52.0177 39.5778L30.7164 60.8792C29.3489 62.4724 29.3489 64.8284 30.7164 66.4217C32.2459 68.2068 34.9383 68.4154 36.7234 66.886L55 48.6096L73.3191 66.8862C74.9807 68.5392 77.6645 68.5392 79.3261 66.8862C80.9791 65.2246 80.9791 62.5405 79.3261 60.8792Z" fill="#F7A92C"/>
</svg>
