<svg width="40" height="40" viewBox="0 0 40 40" fill="none" xmlns="http://www.w3.org/2000/svg">
<g clip-path="url(#clip0)">
<path d="M37.7445 14.9422L37.6544 15.161C34.5685 22.6551 27.3377 27.4974 19.2331 27.4974H15V24.7633C15 23.7488 13.7983 23.2136 13.0442 23.8923L5.2317 30.9236C4.71443 31.3891 4.71443 32.2001 5.2317 32.6657L13.0442 39.6969C13.7983 40.3757 15 39.8404 15 38.8259V36.0912H19.2972C24.8272 36.0912 30.0261 33.9378 33.9363 30.0276C37.8465 26.1172 40 20.9183 40 15.3883C40 14.1048 38.2333 13.7552 37.7445 14.9422V14.9422ZM19.2972 33.7474H13.8281C13.1809 33.7474 12.6562 34.2721 12.6562 34.9193V36.1945L7.7674 31.7946L12.6562 27.3947V28.6693C12.6562 29.3165 13.1809 29.8412 13.8281 29.8412H19.2332C23.6601 29.8412 27.9444 28.5391 31.6226 26.0758C33.5244 24.8023 35.2008 23.2608 36.6094 21.503C34.0851 28.6294 27.2776 33.7474 19.2972 33.7474Z" fill="#0B8D00"/>
<path d="M20.7668 12.5024H25V15.2365C25 16.2511 26.2017 16.7863 26.9558 16.1075L34.7683 9.07626C35.2855 8.61071 35.2855 7.79969 34.7683 7.33415L26.9558 0.302897C26.2017 -0.375853 25 0.159381 25 1.17391V3.9086H20.7027C15.1728 3.9086 9.97391 6.06204 6.06367 9.97227C2.15344 13.8827 0 19.0816 0 24.6115C0 25.8952 1.76672 26.2447 2.25547 25.0577L2.34563 24.8388C5.43141 17.3448 12.6622 12.5024 20.7668 12.5024ZM3.39055 18.4969C5.91492 11.3705 12.7223 6.25243 20.7027 6.25243H26.1719C26.8191 6.25243 27.3438 5.72774 27.3438 5.08055V3.80532L32.2326 8.20524L27.3438 12.6052V11.3305C27.3438 10.6833 26.8191 10.1586 26.1719 10.1586H20.7668C16.3398 10.1586 12.0556 11.4606 8.37734 13.9239C6.47563 15.1976 4.7993 16.7391 3.39055 18.4969V18.4969Z" fill="#D80027"/>
</g>
<defs>
<clipPath id="clip0">
<rect width="40" height="40" fill="white"/>
</clipPath>
</defs>
</svg>
