<svg width="40" height="40" viewBox="0 0 40 40" fill="none" xmlns="http://www.w3.org/2000/svg">
<path d="M20 0C8.95443 0 0 8.95443 0 20C0 31.0456 8.95443 40 20 40C31.0456 40 40 31.0456 40 20C39.9876 8.95964 31.0404 0.0123698 20 0ZM20.7139 5.76595L27.6667 2.98665C28.4557 3.34375 29.2191 3.75521 29.9512 4.2181L29.9694 4.22949C30.6888 4.68522 31.3763 5.18945 32.0273 5.73861L32.0833 5.78744C32.3753 6.03613 32.6592 6.29362 32.9352 6.55924C32.9701 6.59342 33.0065 6.62598 33.0413 6.66081C33.3307 6.94336 33.611 7.2347 33.8822 7.53451C33.9046 7.5599 33.9261 7.58659 33.9486 7.61198C34.1865 7.87858 34.4154 8.15462 34.6374 8.43522C34.6908 8.50195 34.7441 8.56869 34.7959 8.63542C35.0368 8.94727 35.2699 9.26465 35.4899 9.59212L34.1038 15.484L27.2845 17.7575L20.7155 12.5013L20.7139 5.76595ZM5.20345 8.63932C5.25521 8.57259 5.30794 8.50586 5.36133 8.43945C5.58073 8.16113 5.80762 7.88965 6.04199 7.62467C6.06738 7.59668 6.09082 7.56803 6.11589 7.54004C6.38542 7.23958 6.66439 6.94857 6.95345 6.66667C6.98665 6.63411 7.01986 6.59994 7.05469 6.56999C7.32845 6.30599 7.61003 6.05013 7.89941 5.80273L7.96615 5.74674C8.61133 5.2015 9.29232 4.70052 10.0046 4.24674L10.0306 4.23014C10.7585 3.76823 11.5169 3.35742 12.3014 3L19.2861 5.76595V12.4993L12.7168 17.7546L5.89746 15.4854L4.51139 9.59342C4.7334 9.2666 4.96387 8.94987 5.20345 8.63932ZM4.40007 30.2301C4.2041 29.9313 4.0166 29.627 3.83789 29.3167L3.7946 29.2419C3.61686 28.9333 3.44857 28.6195 3.29004 28.3008L3.28451 28.2907C2.95052 27.6201 2.65723 26.93 2.40658 26.224V26.2174C2.28809 25.8841 2.18001 25.5426 2.08008 25.1992L2.04395 25.0726C1.95247 24.75 1.86947 24.4238 1.79525 24.0941C1.78874 24.0618 1.7806 24.0313 1.77409 23.9993C1.61035 23.2546 1.49284 22.5007 1.42188 21.7412L5.49186 16.8574L12.264 19.1146L14.2295 26.9759L11 31.2728L4.40007 30.2301ZM24.4395 38.1286C24.1061 38.2113 23.764 38.2826 23.4219 38.3467C23.374 38.3561 23.3252 38.3639 23.2773 38.3727C22.986 38.4248 22.6914 38.4694 22.3962 38.5059C22.3174 38.516 22.2393 38.5267 22.1608 38.5361C21.8867 38.568 21.61 38.5921 21.3327 38.612C21.2454 38.6178 21.1592 38.6266 21.0719 38.6322C20.7174 38.654 20.36 38.6667 20 38.6667C19.6702 38.6667 19.3424 38.6579 19.0166 38.6406C18.9772 38.6406 18.9395 38.6341 18.9001 38.6312C18.61 38.6146 18.3213 38.5928 18.0332 38.5648L18 38.5586C17.3688 38.4902 16.7412 38.39 16.1201 38.2588L12.1768 32.0846L15.3555 27.846H24.6445L27.8753 32.1126L24.4395 38.1286ZM38.2308 24C38.224 24.0319 38.2161 24.0628 38.2093 24.0947C38.1348 24.4242 38.0518 24.7503 37.9606 25.0732L37.9248 25.1999C37.8245 25.5433 37.7168 25.8835 37.598 26.2181V26.2246C37.3473 26.9307 37.0544 27.6208 36.7201 28.2913L36.7145 28.3014C36.555 28.6204 36.387 28.9342 36.21 29.2425L36.1667 29.3174C35.9889 29.6286 35.8018 29.9323 35.6055 30.2295L29.028 31.2666L25.776 26.9733L27.7406 19.1139L34.5127 16.8568L38.5827 21.7406C38.512 22.5003 38.3945 23.2549 38.2308 24V24Z" fill="#0084A4"/>
</svg>
