<svg width="40" height="40" viewBox="0 0 40 40" fill="none" xmlns="http://www.w3.org/2000/svg">
<g clip-path="url(#clip0)">
<path d="M34.8635 13.7998C35.1239 14.0598 35.5459 14.0598 35.8059 13.7998L37.8052 11.8005C38.0655 11.5402 38.0655 11.1184 37.8052 10.8581L33.1402 6.19311C32.8802 5.93311 32.4582 5.93311 32.1978 6.19311L30.1985 8.1924C29.9385 8.45273 29.9385 8.87445 30.1985 9.13478L31.0605 9.99645L29.743 11.314C27.4944 9.58058 24.8232 8.48006 22.0061 8.12634V5.33144H25.3383C25.7063 5.33144 26.0047 5.03304 26.0047 4.66501V0.66643C26.0047 0.298397 25.7063 0 25.3383 0H14.6754C14.3074 0 14.009 0.298397 14.009 0.66643V4.66501C14.009 5.03304 14.3074 5.33144 14.6754 5.33144H18.0076V8.12634C15.1909 8.48006 12.5196 9.58058 10.2711 11.314L8.95349 9.99645L9.81516 9.13478C10.0755 8.87445 10.0755 8.45273 9.81516 8.1924L7.81587 6.19311C7.55587 5.93311 7.13382 5.93311 6.8735 6.19311L2.20849 10.8581C1.94849 11.1184 1.94849 11.5402 2.20849 11.8005L4.20778 13.7998C4.4681 14.0598 4.89015 14.0598 5.15015 13.7998L5.96074 12.9895L7.32353 14.2615C2.26966 20.8399 3.08415 30.1904 9.19917 35.7959C15.3142 41.4013 24.6998 41.4013 30.8149 35.7959C36.9299 30.1904 37.7444 20.8399 32.6905 14.2615L34.0533 12.9866L34.8635 13.7998ZM32.669 7.60667L36.392 11.3293L35.3347 12.3862L34.6738 11.7253C34.6449 11.6648 34.6071 11.6092 34.5619 11.56L32.4692 9.5194L31.6121 8.66359L32.669 7.60667ZM15.3418 1.33286H24.6719V3.99858H15.3418V1.33286ZM19.3404 7.99716V5.33144H20.6733V7.99716H19.3404ZM4.67896 12.3862L3.62205 11.3293L7.34468 7.60667L8.40192 8.66359L7.54481 9.51875L5.45213 11.56C5.4069 11.6092 5.36915 11.6648 5.34019 11.7253L4.67896 12.3862ZM8.01111 10.9388L9.06835 11.9957L7.99582 13.0679L6.90376 12.0465L8.01111 10.9388ZM20.0068 38.6529C11.9098 38.6529 5.34539 32.0889 5.34539 23.9915C5.34539 15.8941 11.9098 9.33002 20.0068 9.33002C28.1042 9.33002 34.6683 15.8941 34.6683 23.9915C34.6592 32.085 28.1003 38.6438 20.0068 38.6529ZM32.0179 13.0679L30.9457 11.9957L32.0026 10.9388L33.1103 12.0465L32.0179 13.0679Z" fill="#0084A4"/>
<path d="M29.4315 14.5668C29.4214 14.5567 29.4084 14.5541 29.3983 14.545C24.2071 9.36879 15.8068 9.36879 10.6156 14.545C10.6055 14.5541 10.5922 14.5567 10.5824 14.5668C10.5723 14.5769 10.5697 14.5896 10.5609 14.5997C5.38407 19.7909 5.38407 28.1922 10.5609 33.3834C10.5697 33.3935 10.573 33.4068 10.5824 33.4162C10.5915 33.4253 10.6055 33.4289 10.6156 33.438C15.8068 38.6143 24.2071 38.6143 29.3983 33.438C29.4084 33.4289 29.4214 33.4263 29.4315 33.4162C29.4416 33.4061 29.4442 33.3935 29.453 33.3834C34.6299 28.1922 34.6299 19.7909 29.453 14.5997C29.4442 14.5896 29.4409 14.5762 29.4315 14.5668ZM30.0033 24.658H31.9687C31.8213 27.3715 30.7517 29.9533 28.9372 31.976L27.5461 30.5891C27.2832 30.3473 26.8764 30.3555 26.6236 30.6083C26.3711 30.8608 26.3626 31.2679 26.6047 31.5308L27.9913 32.9216C25.9686 34.7364 23.3868 35.8057 20.6732 35.9534V33.988C20.6732 33.6199 20.3748 33.3215 20.0068 33.3215C19.6388 33.3215 19.3404 33.6199 19.3404 33.988V35.9534C16.6271 35.8057 14.0454 34.7364 12.0223 32.9216L13.4092 31.5308C13.6513 31.2679 13.6429 30.8608 13.39 30.6083C13.1375 30.3555 12.7304 30.3473 12.4675 30.5891L11.08 31.9766C9.2642 29.9542 8.19361 27.3722 8.04523 24.658H10.0104C10.3784 24.658 10.6768 24.3596 10.6768 23.9915C10.6768 23.6235 10.3784 23.3251 10.0104 23.3251H8.04523C8.19361 20.6112 9.2642 18.0294 11.08 16.0071L12.4675 17.3939C12.7304 17.6357 13.1375 17.6276 13.39 17.3747C13.6429 17.1222 13.6513 16.7151 13.4092 16.4522L12.0217 15.0647C14.0444 13.2489 16.6265 12.178 19.3404 12.0296V13.9951C19.3404 14.3631 19.6388 14.6615 20.0068 14.6615C20.3748 14.6615 20.6732 14.3631 20.6732 13.9951V12.0296C23.3871 12.1783 25.9689 13.2489 27.9913 15.0647L26.6047 16.4522C26.4244 16.6178 26.3499 16.8691 26.4098 17.1063C26.47 17.3432 26.6552 17.5286 26.8924 17.5885C27.1296 17.6487 27.3805 17.5739 27.5461 17.3939L28.9372 16.0071C30.7517 18.0298 31.8213 20.6115 31.9687 23.3251H30.0033C29.6352 23.3251 29.3368 23.6235 29.3368 23.9915C29.3368 24.3596 29.6352 24.658 30.0033 24.658Z" fill="#0084A4"/>
<path d="M24.8671 18.189L20.8685 22.1876L20.8646 22.1934C20.5978 22.0626 20.3043 21.994 20.0069 21.9923C18.9028 21.9923 18.0076 22.8875 18.0076 23.9916C18.0076 25.0957 18.9028 25.9909 20.0069 25.9909C21.1113 25.9909 22.0061 25.0957 22.0061 23.9916C22.0052 23.6942 21.9368 23.401 21.8063 23.1339L21.8122 23.13L25.8108 19.1314C26.0636 18.8698 26.0597 18.4542 25.8026 18.1971C25.5456 17.9401 25.13 17.9365 24.8687 18.189H24.8671ZM20.0069 24.6581C19.6388 24.6581 19.3404 24.3597 19.3404 23.9916C19.3404 23.6236 19.6388 23.3252 20.0069 23.3252C20.3749 23.3252 20.6733 23.6236 20.6733 23.9916C20.6733 24.3597 20.3749 24.6581 20.0069 24.6581Z" fill="#0084A4"/>
</g>
<defs>
<clipPath id="clip0">
<rect width="40" height="40" fill="white"/>
</clipPath>
</defs>
</svg>
