<?xml version="1.0" standalone="no"?>
<!DOCTYPE svg PUBLIC "-//W3C//DTD SVG 1.1//EN" "http://www.w3.org/Graphics/SVG/1.1/DTD/svg11.dtd" >
<svg>
<metadata>
Created by FontForge 20090914 at Sun Jun 27 22:06:10 2021
 By www-data
Copyright &#194;&#169; UEFA 2017. Exclusively designed for UEFA. All rights reserved.
</metadata>
<defs>
<font id="BridgeType-Regular" horiz-adv-x="520" >
  <font-face 
    font-family="Bridge Type"
    font-weight="400"
    font-stretch="normal"
    units-per-em="1000"
    panose-1="0 0 5 0 0 0 0 0 0 0"
    ascent="800"
    descent="-200"
    x-height="670"
    cap-height="670"
    bbox="-420 -200 1240 950"
    underline-thickness="50"
    underline-position="-100"
    unicode-range="U+0020-U+FB02"
  />
<missing-glyph horiz-adv-x="500" 
d="M410 800v-1000h-317v1000h317zM333 733h-165v-33h65v-37h-66v-33h166v33h-66v37h66v33zM267 604h-100v-104h166v34h-66v70zM233 570v-36h-33v36h33zM333 473h-166v-33h66v-37h-66v-33h100v70h66v33zM333 413h-33v-66h-133v-34h166v100zM333 291h-100v-56h34v23h33v-47
h-100v80h-33v-113h166v113zM333 118h-166v-113h166v113zM300 85v-47h-100v47h100zM333 -18h-166v-33h70l-70 -47v-33h166v33h-102l70 47h32v33z" />
    <glyph glyph-name="fi" unicode="fi" horiz-adv-x="840" 
d="M250 560c-60 0 -90 -28.335 -90 -85.002v-20c0 -56.667 30 -85 90 -85h110v-110h-120c-63.333 0 -112.5 17.833 -147.5 53.5s-52.5 82.834 -52.5 141.501v20c0 58.667 17.5 105.834 52.5 141.501s84.167 53.5 147.5 53.5h220v-110h-210zM785 -0.00195312
c-60 0 -107.5 16 -142.5 48s-52.5 79.333 -52.5 142v280c0 33.333 -6.33301 56.666 -19 69.999s-31.334 20 -56.001 20h-25v110h25c60 0 107.5 -16 142.5 -48s52.5 -79.333 52.5 -142v-280c0 -33.333 6.33301 -56.666 19 -69.999s31.334 -20 56.001 -20h25v-110h-25z
M719 559.998c-14.667 48.667 -49.333 85.333 -104 110h195v-110h-91zM40.001 354.997c23.333 -52 63.333 -86.667 120 -104v-251h-120v355zM490.001 -0.00292969l-0.000976562 110.001h91c14.667 -48.667 49.334 -85.334 104.001 -110.001h-195z" />
    <glyph glyph-name="fl" unicode="fl" horiz-adv-x="910" 
d="M250 560c-60 0 -90 -28.335 -90 -85.002v-20c0 -56.667 30 -85 90 -85h110v-110h-120c-63.333 0 -112.5 17.833 -147.5 53.5s-52.5 82.834 -52.5 141.501v20c0 58.667 17.5 105.834 52.5 141.501s84.167 53.5 147.5 53.5h220v-110h-210zM710 109.998l190 -0.000976562
v-110h-200c-63.333 0 -112.5 17.833 -147.5 53.5s-52.5 82.834 -52.5 141.501v475h120v-475c0 -56.667 30 -85 90 -85zM40 354.997c23.333 -52 63.333 -86.667 120 -104v-251h-120v355z" />
    <glyph glyph-name=".notdef" horiz-adv-x="500" 
d="M410 800v-1000h-317v1000h317zM333 733h-165v-33h65v-37h-66v-33h166v33h-66v37h66v33zM267 604h-100v-104h166v34h-66v70zM233 570v-36h-33v36h33zM333 473h-166v-33h66v-37h-66v-33h100v70h66v33zM333 413h-33v-66h-133v-34h166v100zM333 291h-100v-56h34v23h33v-47
h-100v80h-33v-113h166v113zM333 118h-166v-113h166v113zM300 85v-47h-100v47h100zM333 -18h-166v-33h70l-70 -47v-33h166v33h-102l70 47h32v33z" />
    <glyph glyph-name="space" unicode=" " horiz-adv-x="200" 
 />
    <glyph glyph-name="exclam" unicode="!" horiz-adv-x="200" 
d="M40 160v510h120v-510h-120zM40 0v120h120v-20c0 -66.667 -33.333 -100 -100 -100h-20z" />
    <glyph glyph-name="quotedbl" unicode="&#x22;" horiz-adv-x="320" 
d="M40 450v220h100v-130c0 -60 -30 -90 -90 -90h-10zM180 450v220h100v-130c0 -60 -30 -90 -90 -90h-10z" />
    <glyph glyph-name="numbersign" unicode="#" horiz-adv-x="640" 
d="M600 670l-87 -200h87v-90h-126l-38 -90h164v-90h-203l-87 -200h-100l87 200h-70l-87 -200h-100l87 200h-87v90h126l38 90h-164v90h203l87 200h100l-87 -200h70l87 200h100zM336 290l38 90h-70l-38 -90h70z" />
    <glyph glyph-name="dollar" unicode="$" 
d="M315 388c52.667 -6.66699 93.334 -27.167 122.001 -61.5s43 -78.166 43 -131.499c0 -50 -12.5 -91.667 -37.5 -125s-60.833 -55 -107.5 -65v124c16.667 14 25 36 25 66c0 40 -15 65.667 -45 77v-332h-110v342c-52.667 6.66699 -93.334 27.167 -122.001 61.5
s-43 78.166 -43 131.499c0 50 12.5 91.667 37.5 125s60.833 55 107.5 65v-124c-16.667 -14 -25 -36 -25 -66c0 -40 15 -65.667 45 -77v332h110v-342zM360 475c0 30 -8.33301 52 -25 66v124c46.667 -10 82.5 -31.667 107.5 -65s37.5 -75 37.5 -125h-120zM160 195
c0 -30 8.33301 -52 25 -66v-124c-46.667 10 -82.5 31.667 -107.5 65s-37.5 75 -37.5 125h120z" />
    <glyph glyph-name="percent" unicode="%" horiz-adv-x="900" 
d="M232 670c50.667 0 90 -14.167 118 -42.5s42 -66.166 42 -113.499v-78c0 -47.333 -14 -85.166 -42 -113.499s-67.333 -42.5 -118 -42.5h-32c-50.667 0 -90 14.167 -118 42.5s-42 66.166 -42 113.499v78c0 47.333 14 85.166 42 113.499s67.333 42.5 118 42.5h32zM198 0
l410 670h100l-410 -670h-100zM296 436v78c0 45.333 -24 68 -72 68h-16c-48 0 -72 -22.667 -72 -68v-78c0 -45.333 24 -68 72 -68h16c48 0 72 22.667 72 68zM700 390c50.667 0 90 -14.167 118 -42.5s42 -66.166 42 -113.499v-78c0 -47.333 -14 -85.166 -42 -113.499
s-67.333 -42.5 -118 -42.5h-32c-50.667 0 -90 14.167 -118 42.5s-42 66.166 -42 113.499v78c0 47.333 14 85.166 42 113.499s67.333 42.5 118 42.5h32zM764 156v78c0 45.333 -24 68 -72 68h-16c-48 0 -72 -22.667 -72 -68v-78c0 -45.333 24 -68 72 -68h16
c48 0 72 22.667 72 68z" />
    <glyph glyph-name="ampersand" unicode="&#x26;" horiz-adv-x="560" 
d="M490 195c0 -39.333 -8.00098 -73.6699 -24.001 -103.003l74 -92h-140l-221 264c-19.333 -14.667 -29 -37.667 -29 -69c0 -56.667 30 -85 90 -85h42l84 -99c-24 -7.33301 -49.333 -11 -76 -11h-60c-63.333 0 -112.5 17.833 -147.5 53.5s-52.5 82.834 -52.5 141.501
c0 72.667 25.333 126.334 76 161.001c-24 36 -36 75.667 -36 119c0 58.667 17.5 105.834 52.5 141.501s84.167 53.5 147.5 53.5h20c63.333 0 112.5 -17.833 147.5 -53.5s52.5 -82.834 52.5 -141.501h-120c0 56.667 -30 85 -90 85s-90 -28.333 -90 -85
c0 -15.333 2.5 -29.166 7.5 -41.499s15.5 -28.5 31.5 -48.5l141 -175v168c38.667 -13.333 68.334 -36 89.001 -68s31 -70.333 31 -115zM392.999 389.996h157v-110h-54c-18.667 52 -53 88.667 -103 110z" />
    <glyph glyph-name="quotesingle" unicode="'" horiz-adv-x="180" 
d="M40 450v220h100v-130c0 -60 -30 -90 -90 -90h-10z" />
    <glyph glyph-name="parenleft" unicode="(" horiz-adv-x="290" 
d="M160 45c0 -56.667 30 -85.002 90 -85.002h30v-110h-40c-63.333 0 -112.5 17.833 -147.5 53.5s-52.5 82.834 -52.5 141.501v580c0 58.667 17.5 105.834 52.5 141.501s84.167 53.5 147.5 53.5h40v-110h-30c-60 0 -90 -28.333 -90 -85v-580z" />
    <glyph glyph-name="parenright" unicode=")" horiz-adv-x="290" 
d="M130 45v580.002c0 56.667 -30 85 -90 85h-30v110h40c63.333 0 112.5 -17.833 147.5 -53.5s52.5 -82.834 52.5 -141.501v-580c0 -58.667 -17.5 -105.834 -52.5 -141.501s-84.167 -53.5 -147.5 -53.5h-40v110h30c60 0 90 28.333 90 85z" />
    <glyph glyph-name="asterisk" unicode="*" horiz-adv-x="370" 
d="M330 560v-70h-65l44 -44l-49 -49l-40 40v-57h-70v65l-48 -48l-49 49l44 44h-57v70h57l-44 44l49 49l48 -48v65h70v-57l40 40l49 -49l-44 -44h65z" />
    <glyph glyph-name="plus" unicode="+" 
d="M480 390v-110h-165v-165h-110v165h-165v110h165v165h110v-165h165z" />
    <glyph glyph-name="comma" unicode="," horiz-adv-x="200" 
d="M40 -100l20 220h100l-13 -130c-6.66699 -60 -39 -90 -97 -90h-10z" />
    <glyph glyph-name="hyphen" unicode="-" horiz-adv-x="380" 
d="M40 280v110h300v-110h-300z" />
    <glyph glyph-name="period" unicode="." horiz-adv-x="200" 
d="M40 0v120h120v-20c0 -66.667 -33.333 -100 -100 -100h-20z" />
    <glyph glyph-name="slash" unicode="/" horiz-adv-x="450" 
d="M20 0l310 670h100l-310 -670h-100z" />
    <glyph glyph-name="zero" unicode="0" 
d="M280 670c63.333 0 112.5 -17.833 147.5 -53.5s52.5 -82.834 52.5 -141.501v-280c0 -74 -26 -128.333 -78 -163l-242 429v-266c0 -56.667 30 -85 90 -85h20c23.333 0 42.333 4.66699 57 14l57 -102c-29.333 -14.667 -64 -22 -104 -22h-40
c-63.333 0 -112.5 17.833 -147.5 53.5s-52.5 82.834 -52.5 141.501v280c0 74 26 128.333 78 163l242 -425v262c0 56.667 -30 85 -90 85h-20c-23.333 0 -42.333 -4.66699 -57 -14l-57 102c29.333 14.667 64 22 104 22h40z" />
    <glyph glyph-name="one" unicode="1" horiz-adv-x="280" 
d="M20 475v110.001h10c60 0 90 28.333 90 85h120c0 -58.667 -17.5 -105.834 -52.5 -141.501s-84.167 -53.5 -147.5 -53.5h-20zM120 0.000976562v466c56.667 17.333 96.667 52 120 104v-570h-120z" />
    <glyph glyph-name="two" unicode="2" horiz-adv-x="510" 
d="M160 195v-65h-120v65c0 58.667 17.5 105.834 52.5 141.501s84.167 53.5 147.5 53.5h30c60 0 90 28.333 90 85s-30 85 -90 85h-20c-60 0 -90 -28.333 -90 -85h-120c0 58.667 17.5 105.834 52.5 141.501s84.167 53.5 147.5 53.5h40c63.333 0 112.5 -17.833 147.5 -53.5
s52.5 -82.834 52.5 -141.501s-17.5 -105.834 -52.5 -141.501s-84.167 -53.5 -147.5 -53.5h-30c-60 0 -90 -28.333 -90 -85zM40 0v110h440v-110h-440z" />
    <glyph glyph-name="three" unicode="3" 
d="M250 560c-60 0 -90 -28.333 -90 -85h-120c0 58.667 17.5 105.834 52.5 141.501s84.167 53.5 147.5 53.5h40c63.333 0 112.5 -17.833 147.5 -53.5s52.5 -82.834 52.5 -141.501c0 -50 -12.667 -91.667 -38 -125c-28 29.333 -65.333 48 -112 56c20 14.667 30 37.667 30 69
c0 56.667 -30 85 -90 85h-20zM280 390c63.333 0 112.5 -17.832 147.5 -53.499s52.5 -82.834 52.5 -141.501s-17.5 -105.834 -52.5 -141.501s-84.167 -53.5 -147.5 -53.5h-40c-63.333 0 -112.5 17.833 -147.5 53.5s-52.5 82.834 -52.5 141.501h120c0 -56.667 30 -85 90 -85
h20c60 0 90 28.333 90 85s-26.667 85 -80 85h-120v110h120z" />
    <glyph glyph-name="four" unicode="4" horiz-adv-x="530" 
d="M510 240v-109.999h-60v-130h-120v130h-180v35c0 26 6.66699 49 20 69l4 6h156v267l-177 -262c-15.333 -22.667 -23 -49.334 -23 -80.001v-35h-120v45c0 42.667 20.667 94.667 62 156l165 244c42.667 63.333 96.667 95 162 95h51v-430h60z" />
    <glyph glyph-name="five" unicode="5" 
d="M160 449c-56.667 -17.333 -96.667 -52 -120 -104v325h420v-110h-300v-111zM280 440c63.333 0 112.5 -17.832 147.5 -53.499s52.5 -82.834 52.5 -141.501v-50c0 -58.667 -17.5 -105.834 -52.5 -141.501s-84.167 -53.5 -147.5 -53.5h-240v110h230c60 0 90 28.333 90 85v50
c0 56.667 -30 85 -90 85h-20c-60 0 -90 -28.333 -90 -85h-120c0 58.667 17.5 105.834 52.5 141.501s84.167 53.5 147.5 53.5h40z" />
    <glyph glyph-name="six" unicode="6" 
d="M280 390c63.333 0 112.5 -17.833 147.5 -53.5s52.5 -82.834 52.5 -141.501s-17.5 -105.834 -52.5 -141.501s-84.167 -53.5 -147.5 -53.5h-40c-63.333 0 -112.5 17.833 -147.5 53.5s-52.5 82.834 -52.5 141.501v180c23.333 -52 63.333 -86.667 120 -104v-76
c0 -56.667 30 -85 90 -85h20c60 0 90 28.333 90 85s-30 85 -90 85h-30c-63.333 0 -112.5 17.833 -147.5 53.5s-52.5 82.834 -52.5 141.501s17.5 105.834 52.5 141.501s84.167 53.5 147.5 53.5h40c63.333 0 112.5 -17.833 147.5 -53.5s52.5 -82.834 52.5 -141.501h-120
c0 56.667 -30 85 -90 85h-20c-60 0 -90 -28.333 -90 -85s30 -85 90 -85h30z" />
    <glyph glyph-name="seven" unicode="7" horiz-adv-x="500" 
d="M20 560v110h320v-35c0 -26 -6.66699 -49 -20 -69l-4 -6h-296zM40 0v45c0 41.333 20.667 93.333 62 156l235 354c15.333 23.333 23 50 23 80v35h120v-45c0 -41.333 -20.667 -93.333 -62 -156l-235 -354c-15.333 -23.333 -23 -50 -23 -80v-35h-120z" />
    <glyph glyph-name="eight" unicode="8" 
d="M280 390c63.333 0 112.5 -17.833 147.5 -53.5s52.5 -82.834 52.5 -141.501s-17.5 -105.834 -52.5 -141.501s-84.167 -53.5 -147.5 -53.5h-40c-63.333 0 -112.5 17.833 -147.5 53.5s-52.5 82.834 -52.5 141.501c0 50 12.667 91.667 38 125c28 -29.333 65.333 -48 112 -56
c-20 -14.667 -30 -37.667 -30 -69c0 -56.667 30 -85 90 -85h20c60 0 90 28.333 90 85s-26.667 85 -80 85h-37c-64 0 -113.667 17.833 -149 53.5s-52.333 82.834 -51 141.501c0 58.667 17.5 105.834 52.5 141.501s84.167 53.5 147.5 53.5h37
c63.333 0 112.5 -17.833 147.5 -53.5s52.5 -82.834 52.5 -141.501c0 -50 -12.667 -91.667 -38 -125c-28 29.333 -65.333 48 -112 56c20 14.667 30 37.667 30 69c0 56.667 -30 85 -90 85h-17c-60 0 -90 -28.333 -90 -85s26.667 -85 80 -85h37z" />
    <glyph glyph-name="nine" unicode="9" 
d="M480 295c-23.333 52 -63.333 86.667 -120 104v76c0 56.667 -30 85 -90 85h-20c-60 0 -90 -28.333 -90 -85s30 -85 90 -85h30c63.333 0 112.5 -17.833 147.5 -53.5s52.5 -82.834 52.5 -141.501s-17.5 -105.834 -52.5 -141.501s-84.167 -53.5 -147.5 -53.5h-40
c-63.333 0 -112.5 17.833 -147.5 53.5s-52.5 82.834 -52.5 141.501h120c0 -56.667 30 -85 90 -85h20c60 0 90 28.333 90 85s-30 85 -90 85h-30c-63.333 0 -112.5 17.833 -147.5 53.5s-52.5 82.834 -52.5 141.501s17.5 105.834 52.5 141.501s84.167 53.5 147.5 53.5h40
c63.333 0 112.5 -17.833 147.5 -53.5s52.5 -82.834 52.5 -141.501v-180z" />
    <glyph glyph-name="colon" unicode=":" horiz-adv-x="200" 
d="M40 380v120h120v-20c0 -66.667 -33.333 -100 -100 -100h-20zM40 0v120h120v-20c0 -66.667 -33.333 -100 -100 -100h-20z" />
    <glyph glyph-name="semicolon" unicode=";" horiz-adv-x="200" 
d="M40 380v120h120v-20c0 -66.667 -33.333 -100 -100 -100h-20zM40 -100l20 220h100l-13 -130c-6.66699 -60 -39 -90 -97 -90h-10z" />
    <glyph glyph-name="less" unicode="&#x3c;" horiz-adv-x="370" 
d="M40 335c0 45.333 18.333 80.333 55 105l138 93c12.667 8.66699 24.834 14.5 36.501 17.5s28.5 4.5 50.5 4.5h10v-120h-25c-6.66699 0 -12.334 -1.66699 -17.001 -5l-135 -95l135 -95c4.66699 -3.33301 10.334 -5 17.001 -5h25v-120h-10c-22 0 -38.833 1.5 -50.5 4.5
s-23.834 8.83301 -36.501 17.5l-138 93c-36.667 24.667 -55 59.667 -55 105z" />
    <glyph glyph-name="equal" unicode="=" 
d="M40 360v110h440v-110h-440zM40 200v110h440v-110h-440z" />
    <glyph glyph-name="greater" unicode="&#x3e;" horiz-adv-x="370" 
d="M330 335c0 -45.333 -18.333 -80.333 -55 -105l-138 -93c-12.667 -8.66699 -24.834 -14.5 -36.501 -17.5s-28.5 -4.5 -50.5 -4.5h-10v120h25c6.66699 0 12.334 1.66699 17.001 5l135 95l-135 95c-4.66699 3.33301 -10.334 5 -17.001 5h-25v120h10
c22 0 38.833 -1.5 50.5 -4.5s23.834 -8.83301 36.501 -17.5l138 -93c36.667 -24.667 55 -59.667 55 -105z" />
    <glyph glyph-name="question" unicode="?" 
d="M280 160l-120 0.000976562v230h110c60 0 90 28.333 90 85s-30 85 -90 85h-20c-60 0 -90 -28.333 -90 -85h-120c0 58.667 17.5 105.834 52.5 141.501s84.167 53.5 147.5 53.5h40c63.333 0 112.5 -17.833 147.5 -53.5s52.5 -82.834 52.5 -141.501
s-17.5 -105.834 -52.5 -141.501s-84.167 -53.5 -147.5 -53.5v-120zM160 0.000976562v120h120v-20c0 -66.667 -33.333 -100 -100 -100h-20z" />
    <glyph glyph-name="at" unicode="@" horiz-adv-x="720" 
d="M480 670c63.333 0 112.5 -17.833 147.5 -53.5s52.5 -82.834 52.5 -141.501v-335h-239v234c0 45.333 -24 68 -72 68h-16c-48 0 -72 -22.667 -72 -68v-78c0 -45.333 24 -68 72 -68h16c26 0 44.667 6.33301 56 19v-102c-15.333 -3.33301 -31.333 -5 -48 -5h-32
c-50.667 0 -90 14.167 -118 42.5s-42 66.166 -42 113.499v78c0 47.333 14 85.166 42 113.499s67.333 42.5 118 42.5h32c50.667 0 90 -14.167 118 -42.5s42 -66.166 42 -113.499v-154h53v255c0 73.333 -37 110 -111 110h-238c-74 0 -111 -36.667 -111 -110v-280
c0 -73.333 37 -110 111 -110h200v-85h-201c-63.333 0 -112.5 17.833 -147.5 53.5s-52.5 82.834 -52.5 141.501v280c0 58.667 17.5 105.834 52.5 141.501s84.167 53.5 147.5 53.5h240z" />
    <glyph glyph-name="A" unicode="A" 
d="M40 0v174.999c0 58.667 17.5 105.834 52.5 141.501s84.167 53.5 147.5 53.5h40c29.333 0 56 -5.66699 80 -17v52c0 6.66699 -1.66699 12.334 -5 17.001l-97 136l-93 -136c-3.33301 -4.66699 -5 -10.334 -5 -17.001v-26c-56.667 -17.333 -96.667 -52 -120 -104v115
c0 22 1.5 38.833 4.5 50.5s8.83301 23.834 17.5 36.501l93 138c24.667 36.667 59.667 55 105 55c43.333 0 79 -20 107 -60l91 -133c8.66699 -12.667 14.5 -24.834 17.5 -36.501s4.5 -28.5 4.5 -50.5v-390h-120v175c0 56.667 -30 85 -90 85h-20c-60 0 -90 -28.333 -90 -85
v-175h-120z" />
    <glyph glyph-name="B" unicode="B" 
d="M280 390c63.333 0 112.5 -17.8301 147.5 -53.4971s52.5 -82.834 52.5 -141.501s-17.5 -105.834 -52.5 -141.501s-84.167 -53.5 -147.5 -53.5h-240v670h240c63.333 0 112.5 -17.833 147.5 -53.5s52.5 -82.834 52.5 -141.501c0 -50 -12.667 -91.667 -38 -125
c-28 29.333 -65.333 48 -112 56c20 14.667 30 37.667 30 69c0 56.667 -30 85 -90 85h-110v-170h120zM270 110.003c60 0 90 28.333 90 85s-26.667 85 -80 85h-120v-170h110z" />
    <glyph glyph-name="C" unicode="C" horiz-adv-x="500" 
d="M160 195c0 -56.667 30 -85.001 90 -85.001h230v-110h-240c-63.333 0 -112.5 17.833 -147.5 53.5s-52.5 82.834 -52.5 141.501v280c0 58.667 17.5 105.834 52.5 141.501s84.167 53.5 147.5 53.5h40c63.333 0 112.5 -17.833 147.5 -53.5s52.5 -82.834 52.5 -141.501h-120
c0 56.667 -30 85 -90 85h-20c-60 0 -90 -28.333 -90 -85v-280z" />
    <glyph glyph-name="D" unicode="D" 
d="M280 670c63.333 0 112.5 -17.8311 147.5 -53.498s52.5 -82.834 52.5 -141.501v-280c0 -58.667 -17.5 -105.834 -52.5 -141.501s-84.167 -53.5 -147.5 -53.5h-240v670h240zM360 475.002c0 56.667 -30 85 -90 85h-110v-450h110c60 0 90 28.333 90 85v280z" />
    <glyph glyph-name="E" unicode="E" horiz-adv-x="500" 
d="M240 260c-63.333 0 -112.5 17.832 -147.5 53.499s-52.5 82.834 -52.5 141.501v20c0 58.667 17.5 105.834 52.5 141.501s84.167 53.5 147.5 53.5h40c63.333 0 112.5 -17.833 147.5 -53.5s52.5 -82.834 52.5 -141.501h-120c0 56.667 -30 85 -90 85h-20
c-60 0 -90 -28.333 -90 -85v-20c0 -56.667 30 -85 90 -85h110v-110h-120zM160 194.999c0 -56.667 30 -85.001 90 -85.001h230v-110h-240c-63.333 0 -112.5 17.833 -147.5 53.5s-52.5 82.834 -52.5 141.501v160c23.333 -52 63.333 -86.667 120 -104v-56z" />
    <glyph glyph-name="F" unicode="F" horiz-adv-x="470" 
d="M250 560c-60 0 -90 -28.335 -90 -85.002v-20c0 -56.667 30 -85 90 -85h110v-110h-120c-63.333 0 -112.5 17.833 -147.5 53.5s-52.5 82.834 -52.5 141.501v20c0 58.667 17.5 105.834 52.5 141.501s84.167 53.5 147.5 53.5h220v-110h-210zM40 354.998
c23.333 -52 63.333 -86.667 120 -104v-251h-120v355z" />
    <glyph glyph-name="G" unicode="G" horiz-adv-x="550" 
d="M280 390c63.333 0 112.5 -17.832 147.5 -53.499s52.5 -82.834 52.5 -141.501s-17.5 -105.834 -52.5 -141.501s-84.167 -53.5 -147.5 -53.5h-40c-63.333 0 -112.5 17.833 -147.5 53.5s-52.5 82.834 -52.5 141.501v280c0 58.667 17.5 105.834 52.5 141.501
s84.167 53.5 147.5 53.5h40c63.333 0 112.5 -17.833 147.5 -53.5s52.5 -82.834 52.5 -141.501h-120c0 56.667 -30 85 -90 85h-20c-60 0 -90 -28.333 -90 -85v-280c0 -56.667 30 -85 90 -85h20c60 0 90 28.333 90 85s-30 85 -90 85v110h10zM383 390.001h157v-110h-54
c-18.667 52 -53 88.667 -103 110z" />
    <glyph glyph-name="H" unicode="H" 
d="M280 390c63.333 0 112.5 -17.833 147.5 -53.5s52.5 -82.834 52.5 -141.501v-195h-120v195c0 56.667 -30 85 -90 85h-30c-63.333 0 -112.5 17.833 -147.5 53.5s-52.5 82.834 -52.5 141.501v195h120v-195c0 -56.667 30 -85 90 -85h30zM360 670h120v-375
c-23.333 52 -63.333 86.667 -120 104v271zM40 375c23.333 -52 63.333 -86.667 120 -104v-271h-120v375z" />
    <glyph glyph-name="I" unicode="I" horiz-adv-x="380" 
d="M325 0c-60 0 -107.5 16 -142.5 48s-52.5 79.333 -52.5 142v280c0 33.333 -6.33301 56.666 -19 69.999s-31.334 20 -56.001 20h-25v110h25c60 0 107.5 -16 142.5 -48s52.5 -79.333 52.5 -142v-280c0 -33.333 6.33301 -56.666 19 -69.999s31.334 -20 56.001 -20h25v-110
h-25zM259 560c-14.667 48.667 -49.333 85.333 -104 110h195v-110h-91zM30.001 -0.000976562l-0.000976562 110.001h91c14.667 -48.667 49.334 -85.334 104.001 -110.001h-195z" />
    <glyph glyph-name="J" unicode="J" 
d="M360 670h120v-475c0 -58.667 -17.5 -105.834 -52.5 -141.501s-84.167 -53.5 -147.5 -53.5h-60c-63.333 0 -112.5 17.833 -147.5 53.5s-52.5 82.834 -52.5 141.501h120c0 -56.667 30 -85 90 -85h40c60 0 90 28.333 90 85v475z" />
    <glyph glyph-name="K" unicode="K" 
d="M440 450c-10 -52.667 -31 -91.001 -63 -115.001c32 -24 53 -62.333 63 -115l16 -90c2.66699 -13.333 10.667 -20 24 -20h20v-110h-10c-46 0 -81.5 10.333 -106.5 31s-41.5 57 -49.5 109l-10 66c-8 49.333 -36 74 -84 74c-53.333 0 -80 -28.333 -80 -85v-195h-120v195
c0 58.667 17.5 105.834 52.5 141.501s84.167 53.5 147.5 53.5c48 0 76 24.667 84 74l10 66c8 52 24.5 88.333 49.5 109s60.5 31 106.5 31h10v-110h-20c-13.333 0 -21.333 -6.66699 -24 -20zM160 398.999c-56.667 -17.333 -96.667 -52 -120 -104v375h120v-271z" />
    <glyph glyph-name="L" unicode="L" horiz-adv-x="450" 
d="M250 110l190 -0.000976562v-110h-200c-63.333 0 -112.5 17.833 -147.5 53.5s-52.5 82.834 -52.5 141.501v475h120v-475c0 -56.667 30 -85 90 -85z" />
    <glyph glyph-name="M" unicode="M" horiz-adv-x="640" 
d="M320 242c-45.333 0 -80.333 18.333 -105 55l-113 172c-41.333 62.667 -62 114.667 -62 156v45h120v-35c0 -30 7.66699 -56.667 23 -80l136 -201l138 201c15.333 23.333 23 50 23 80v35h120v-45c0 -42 -20.667 -94 -62 -156l-111 -167c-28 -40 -63.667 -60 -107 -60zM40 0
v540c12.667 -28.667 27.667 -56 45 -82l75 -113v-345h-120zM480 0v345l75 113c17.333 26 32.333 53.333 45 82v-540h-120z" />
    <glyph glyph-name="N" unicode="N" 
d="M360 0v35c0 30 -7.66699 56.667 -23 80l-235 354c-41.333 62.667 -62 114.667 -62 156v45h120v-35c0 -30 7.66699 -56.667 23 -80l235 -354c41.333 -62.667 62 -114.667 62 -156v-45h-120zM480 130c-10.667 24 -25.667 51.333 -45 82l-75 113v345h120v-540zM40 0v540
c12.667 -28.667 27.667 -56 45 -82l75 -113v-345h-120z" />
    <glyph glyph-name="O" unicode="O" 
d="M280 670c63.333 0 112.5 -17.833 147.5 -53.5s52.5 -82.834 52.5 -141.501v-280c0 -58.667 -17.5 -105.834 -52.5 -141.501s-84.167 -53.5 -147.5 -53.5h-40c-63.333 0 -112.5 17.833 -147.5 53.5s-52.5 82.834 -52.5 141.501v280c0 58.667 17.5 105.834 52.5 141.501
s84.167 53.5 147.5 53.5h40zM360 195v280c0 56.667 -30 85 -90 85h-20c-60 0 -90 -28.333 -90 -85v-280c0 -56.667 30 -85 90 -85h20c60 0 90 28.333 90 85z" />
    <glyph glyph-name="P" unicode="P" horiz-adv-x="500" 
d="M280 670c63.333 0 112.5 -17.833 147.5 -53.5s52.5 -82.834 52.5 -141.501s-17.5 -105.834 -52.5 -141.501s-84.167 -53.5 -147.5 -53.5h-30c-60 0 -90 -28.333 -90 -85v-195h-120v195c0 58.667 17.5 105.834 52.5 141.501s84.167 53.5 147.5 53.5h30
c60 0 90 28.333 90 85s-30 85 -90 85h-20c-60 0 -90 -28.333 -90 -85v-76c-56.667 -17.333 -96.667 -52 -120 -104v180c0 58.667 17.5 105.834 52.5 141.501s84.167 53.5 147.5 53.5h40z" />
    <glyph glyph-name="Q" unicode="Q" 
d="M330 126c20 14.667 30 37.667 30 69v280c0 56.667 -30 85 -90 85h-20c-60 0 -90 -28.333 -90 -85v-280c0 -56.667 30 -85 90 -85h30c63.333 0 112.5 -17.833 147.5 -53.5s52.5 -82.834 52.5 -141.501h-120c0 56.667 -26.667 85 -80 85h-40
c-63.333 0 -112.5 17.833 -147.5 53.5s-52.5 82.834 -52.5 141.501v280c0 58.667 17.5 105.834 52.5 141.501s84.167 53.5 147.5 53.5h40c63.333 0 112.5 -17.833 147.5 -53.5s52.5 -82.834 52.5 -141.501v-280c0 -50 -12.667 -91.667 -38 -125
c-28 29.333 -65.333 48 -112 56z" />
    <glyph glyph-name="R" unicode="R" 
d="M480 110l20 -0.000976562v-110h-10c-46 0 -81.5 10.333 -106.5 31s-41.5 57 -49.5 109l-10 66c-8 49.333 -36 74 -84 74c-53.333 0 -80 -28.333 -80 -85v-195h-120v195c0 58.667 17.5 105.834 52.5 141.501s84.167 53.5 147.5 53.5h30c60 0 90 28.333 90 85
s-30 85 -90 85h-20c-60 0 -90 -28.333 -90 -85v-76c-56.667 -17.333 -96.667 -52 -120 -104v180c0 58.667 17.5 105.834 52.5 141.501s84.167 53.5 147.5 53.5h40c63.333 0 112.5 -17.833 147.5 -53.5s52.5 -82.834 52.5 -141.501c0 -74.667 -27.667 -127.667 -83 -159
c20.667 -22.667 35 -54.667 43 -96l16 -90c2.66699 -13.333 10.667 -20 24 -20z" />
    <glyph glyph-name="S" unicode="S" horiz-adv-x="510" 
d="M280 390c63.333 0 112.5 -17.833 147.5 -53.5s52.5 -82.834 52.5 -141.501s-17.5 -105.834 -52.5 -141.501s-84.167 -53.5 -147.5 -53.5h-40c-63.333 0 -112.5 17.833 -147.5 53.5s-52.5 82.834 -52.5 141.501h120c0 -56.667 30 -85 90 -85h20c60 0 90 28.333 90 85
s-30 85 -90 85h-30c-63.333 0 -112.5 17.833 -147.5 53.5s-52.5 82.834 -52.5 141.501s17.5 105.834 52.5 141.501s84.167 53.5 147.5 53.5h40c63.333 0 112.5 -17.833 147.5 -53.5s52.5 -82.834 52.5 -141.501h-120c0 56.667 -30 85 -90 85h-20c-60 0 -90 -28.333 -90 -85
s30 -85 90 -85h30z" />
    <glyph glyph-name="T" unicode="T" horiz-adv-x="460" 
d="M10 560l0.000976562 110.001h255c-54.667 -24.667 -89.334 -61.334 -104.001 -110.001h-151zM170.001 0.000976562l0.000976562 479.999c0 62.667 17.5 110 52.5 142s82.5 48 142.5 48h85v-110h-85c-24.667 0 -43.334 -6.66699 -56.001 -20s-19 -36.666 -19 -69.999v-470
h-120z" />
    <glyph glyph-name="U" unicode="U" 
d="M360 670h120v-475c0 -58.667 -17.5 -105.834 -52.5 -141.501s-84.167 -53.5 -147.5 -53.5h-40c-63.333 0 -112.5 17.833 -147.5 53.5s-52.5 82.834 -52.5 141.501v475h120v-475c0 -56.667 30 -85 90 -85h20c60 0 90 28.333 90 85v475z" />
    <glyph glyph-name="V" unicode="V" 
d="M260 0c-45.333 0 -80.333 18.333 -105 55l-93 138c-8.66699 12.667 -14.5 24.834 -17.5 36.501s-4.5 28.5 -4.5 50.5v390h120v-405c0 -6.66699 1.66699 -12.334 5 -17.001l161 -229c-20 -12.667 -42 -19 -66 -19zM346 35l-70 100l79 113
c3.33301 4.66699 5 10.334 5 17.001v405h120v-390c0 -22 -1.5 -38.833 -4.5 -50.5s-8.83301 -23.834 -17.5 -36.501l-91 -133c-6 -8.66699 -13 -17 -21 -25z" />
    <glyph glyph-name="W" unicode="W" horiz-adv-x="840" 
d="M260 0c-45.333 0 -80.333 18.333 -105 55l-93 138c-8.66699 12.667 -14.5 24.834 -17.5 36.501s-4.5 28.5 -4.5 50.5v390h120v-405c0 -6.66699 1.66699 -12.334 5 -17.001l161 -229c-20 -12.667 -42 -19 -66 -19zM580 0c-45.333 0 -80.333 18.333 -105 55l-55 82l-53 -77
c-6 -8.66699 -13 -17 -21 -25l-70 100l79 113c3.33301 4.66699 5 10.334 5 17.001v405h120v-405c0 -6.66699 1.66699 -12.334 5 -17.001l161 -229c-20 -12.667 -42 -19 -66 -19zM666 35l-70 100l79 113c3.33301 4.66699 5 10.334 5 17.001v405h120v-390
c0 -22 -1.5 -38.833 -4.5 -50.5s-8.83301 -23.834 -17.5 -36.501l-91 -133c-6 -8.66699 -13 -17 -21 -25z" />
    <glyph glyph-name="X" unicode="X" 
d="M490 0c-10.667 0 -20.667 1 -30 3s-17.333 3.83301 -24 5.5s-14 5.66699 -22 12l-18 14c-4 3 -10 10 -18 21l-16.5 23l-19.5 29.5l-21 32l-267 400c-8 13.333 -16 20 -24 20h-10v110h10c10.667 0 20.667 -1 30 -3s17.333 -3.83301 24 -5.5s14 -5.66699 22 -12l18 -14
c4 -3 10 -10 18 -21l16.5 -23l19.5 -29.5l21 -32l267 -400c8 -13.333 16 -20 24 -20h10v-110h-10zM341 353l-69 104l49 73l21 32l19.5 29.5l16.5 23c8 11 14 18 18 21l18 14c8 6.33301 15.333 10.333 22 12s14.667 3.5 24 5.5s19.333 3 30 3h10v-110h-10
c-8 0 -16 -6.66699 -24 -20zM30 0h-10v110h10c8 0 16 6.66699 24 20l125 187l69 -104l-49 -73l-21 -32l-19.5 -29.5l-16.5 -23c-8 -11 -14 -18 -18 -21l-18 -14c-8 -6.33301 -15.333 -10.333 -22 -12s-14.667 -3.5 -24 -5.5s-19.333 -3 -30 -3z" />
    <glyph glyph-name="Y" unicode="Y" horiz-adv-x="500" 
d="M174 235l-122 178c-8.66699 12.667 -14.5 24.834 -17.5 36.501s-4.5 28.5 -4.5 50.5v170h120v-185c0 -6.66699 1.66699 -12.334 5 -17.001l82 -119c-32.667 -43.333 -53.667 -81.333 -63 -114zM190 0v205c0 28.667 15.667 65.334 47 110.001l108 153
c3.33301 4.66699 5 10.334 5 17.001v185h120v-170c0 -22 -1.5 -38.833 -4.5 -50.5s-8.83301 -23.834 -17.5 -36.501l-91 -133c-31.333 -46.667 -47 -83.334 -47 -110.001v-170h-120z" />
    <glyph glyph-name="Z" unicode="Z" horiz-adv-x="500" 
d="M30 0v45c0 41.333 20.667 93.333 62 156l235 354c15.333 23.333 23 50 23 80v35h120v-45c0 -41.333 -20.667 -93.333 -62 -156l-235 -354c-15.333 -23.333 -23 -50 -23 -80v-35h-120zM30 560v110h300v-35c0 -26 -6.66699 -49 -20 -69l-4 -6h-276zM170 0v35
c0 26 6.66699 49 20 69l4 6h276v-110h-300z" />
    <glyph glyph-name="bracketleft" unicode="[" horiz-adv-x="290" 
d="M160 -40h120v-110h-240v970h240v-110h-120v-750z" />
    <glyph glyph-name="backslash" unicode="\" horiz-adv-x="450" 
d="M430 0h-100l-310 670h100z" />
    <glyph glyph-name="bracketright" unicode="]" horiz-adv-x="290" 
d="M130 -40v750h-120v110h240v-970h-240v110h120z" />
    <glyph glyph-name="asciicircum" unicode="^" horiz-adv-x="460" 
d="M358 371c26 -19.333 42.833 -35.166 50.5 -47.499s11.5 -28.5 11.5 -48.5v-15h-120v5c0 6.66699 -1.33301 11.667 -4 15s-9 8.33301 -19 15l-47 31l-47 -31c-10 -6.66699 -16.333 -11.667 -19 -15s-4 -8.33301 -4 -15v-5h-120v15c0 20 3.83301 36.167 11.5 48.5
s24.5 28.166 50.5 47.499l128 94z" />
    <glyph glyph-name="underscore" unicode="_" horiz-adv-x="340" 
d="M20 -160v110h300v-110h-300z" />
    <glyph glyph-name="grave" unicode="`" horiz-adv-x="260" 
d="M130 855c0 -20.667 4.33398 -36.667 13.001 -48s26 -17 52 -17h25v-80h-39c-44.667 0 -79.334 12.5 -104.001 37.5s-37 60.833 -37 107.5h90z" />
    <glyph glyph-name="a" unicode="a" 
d="M40 0v174.999c0 58.667 17.5 105.834 52.5 141.501s84.167 53.5 147.5 53.5h40c29.333 0 56 -5.66699 80 -17v52c0 6.66699 -1.66699 12.334 -5 17.001l-97 136l-93 -136c-3.33301 -4.66699 -5 -10.334 -5 -17.001v-26c-56.667 -17.333 -96.667 -52 -120 -104v115
c0 22 1.5 38.833 4.5 50.5s8.83301 23.834 17.5 36.501l93 138c24.667 36.667 59.667 55 105 55c43.333 0 79 -20 107 -60l91 -133c8.66699 -12.667 14.5 -24.834 17.5 -36.501s4.5 -28.5 4.5 -50.5v-390h-120v175c0 56.667 -30 85 -90 85h-20c-60 0 -90 -28.333 -90 -85
v-175h-120z" />
    <glyph glyph-name="b" unicode="b" 
d="M280 390c63.333 0 112.5 -17.8301 147.5 -53.4971s52.5 -82.834 52.5 -141.501s-17.5 -105.834 -52.5 -141.501s-84.167 -53.5 -147.5 -53.5h-240v670h240c63.333 0 112.5 -17.833 147.5 -53.5s52.5 -82.834 52.5 -141.501c0 -50 -12.667 -91.667 -38 -125
c-28 29.333 -65.333 48 -112 56c20 14.667 30 37.667 30 69c0 56.667 -30 85 -90 85h-110v-170h120zM270 110.003c60 0 90 28.333 90 85s-26.667 85 -80 85h-120v-170h110z" />
    <glyph glyph-name="c" unicode="c" horiz-adv-x="500" 
d="M160 195c0 -56.667 30 -85.001 90 -85.001h230v-110h-240c-63.333 0 -112.5 17.833 -147.5 53.5s-52.5 82.834 -52.5 141.501v280c0 58.667 17.5 105.834 52.5 141.501s84.167 53.5 147.5 53.5h40c63.333 0 112.5 -17.833 147.5 -53.5s52.5 -82.834 52.5 -141.501h-120
c0 56.667 -30 85 -90 85h-20c-60 0 -90 -28.333 -90 -85v-280z" />
    <glyph glyph-name="d" unicode="d" 
d="M280 670c63.333 0 112.5 -17.8311 147.5 -53.498s52.5 -82.834 52.5 -141.501v-280c0 -58.667 -17.5 -105.834 -52.5 -141.501s-84.167 -53.5 -147.5 -53.5h-240v670h240zM360 475.002c0 56.667 -30 85 -90 85h-110v-450h110c60 0 90 28.333 90 85v280z" />
    <glyph glyph-name="e" unicode="e" horiz-adv-x="500" 
d="M240 260c-63.333 0 -112.5 17.832 -147.5 53.499s-52.5 82.834 -52.5 141.501v20c0 58.667 17.5 105.834 52.5 141.501s84.167 53.5 147.5 53.5h40c63.333 0 112.5 -17.833 147.5 -53.5s52.5 -82.834 52.5 -141.501h-120c0 56.667 -30 85 -90 85h-20
c-60 0 -90 -28.333 -90 -85v-20c0 -56.667 30 -85 90 -85h110v-110h-120zM160 194.999c0 -56.667 30 -85.001 90 -85.001h230v-110h-240c-63.333 0 -112.5 17.833 -147.5 53.5s-52.5 82.834 -52.5 141.501v160c23.333 -52 63.333 -86.667 120 -104v-56z" />
    <glyph glyph-name="f" unicode="f" horiz-adv-x="470" 
d="M250 560c-60 0 -90 -28.335 -90 -85.002v-20c0 -56.667 30 -85 90 -85h110v-110h-120c-63.333 0 -112.5 17.833 -147.5 53.5s-52.5 82.834 -52.5 141.501v20c0 58.667 17.5 105.834 52.5 141.501s84.167 53.5 147.5 53.5h220v-110h-210zM40 354.998
c23.333 -52 63.333 -86.667 120 -104v-251h-120v355z" />
    <glyph glyph-name="g" unicode="g" horiz-adv-x="550" 
d="M280 390c63.333 0 112.5 -17.832 147.5 -53.499s52.5 -82.834 52.5 -141.501s-17.5 -105.834 -52.5 -141.501s-84.167 -53.5 -147.5 -53.5h-40c-63.333 0 -112.5 17.833 -147.5 53.5s-52.5 82.834 -52.5 141.501v280c0 58.667 17.5 105.834 52.5 141.501
s84.167 53.5 147.5 53.5h40c63.333 0 112.5 -17.833 147.5 -53.5s52.5 -82.834 52.5 -141.501h-120c0 56.667 -30 85 -90 85h-20c-60 0 -90 -28.333 -90 -85v-280c0 -56.667 30 -85 90 -85h20c60 0 90 28.333 90 85s-30 85 -90 85v110h10zM383 390.001h157v-110h-54
c-18.667 52 -53 88.667 -103 110z" />
    <glyph glyph-name="h" unicode="h" 
d="M280 390c63.333 0 112.5 -17.833 147.5 -53.5s52.5 -82.834 52.5 -141.501v-195h-120v195c0 56.667 -30 85 -90 85h-30c-63.333 0 -112.5 17.833 -147.5 53.5s-52.5 82.834 -52.5 141.501v195h120v-195c0 -56.667 30 -85 90 -85h30zM360 670h120v-375
c-23.333 52 -63.333 86.667 -120 104v271zM40 375c23.333 -52 63.333 -86.667 120 -104v-271h-120v375z" />
    <glyph glyph-name="i" unicode="i" horiz-adv-x="380" 
d="M325 0c-60 0 -107.5 16 -142.5 48s-52.5 79.333 -52.5 142v280c0 33.333 -6.33301 56.666 -19 69.999s-31.334 20 -56.001 20h-25v110h25c60 0 107.5 -16 142.5 -48s52.5 -79.333 52.5 -142v-280c0 -33.333 6.33301 -56.666 19 -69.999s31.334 -20 56.001 -20h25v-110
h-25zM259 560c-14.667 48.667 -49.333 85.333 -104 110h195v-110h-91zM30.001 -0.000976562l-0.000976562 110.001h91c14.667 -48.667 49.334 -85.334 104.001 -110.001h-195z" />
    <glyph glyph-name="j" unicode="j" 
d="M360 670h120v-475c0 -58.667 -17.5 -105.834 -52.5 -141.501s-84.167 -53.5 -147.5 -53.5h-60c-63.333 0 -112.5 17.833 -147.5 53.5s-52.5 82.834 -52.5 141.501h120c0 -56.667 30 -85 90 -85h40c60 0 90 28.333 90 85v475z" />
    <glyph glyph-name="k" unicode="k" 
d="M440 450c-10 -52.667 -31 -91.001 -63 -115.001c32 -24 53 -62.333 63 -115l16 -90c2.66699 -13.333 10.667 -20 24 -20h20v-110h-10c-46 0 -81.5 10.333 -106.5 31s-41.5 57 -49.5 109l-10 66c-8 49.333 -36 74 -84 74c-53.333 0 -80 -28.333 -80 -85v-195h-120v195
c0 58.667 17.5 105.834 52.5 141.501s84.167 53.5 147.5 53.5c48 0 76 24.667 84 74l10 66c8 52 24.5 88.333 49.5 109s60.5 31 106.5 31h10v-110h-20c-13.333 0 -21.333 -6.66699 -24 -20zM160 398.999c-56.667 -17.333 -96.667 -52 -120 -104v375h120v-271z" />
    <glyph glyph-name="l" unicode="l" horiz-adv-x="450" 
d="M250 110l190 -0.000976562v-110h-200c-63.333 0 -112.5 17.833 -147.5 53.5s-52.5 82.834 -52.5 141.501v475h120v-475c0 -56.667 30 -85 90 -85z" />
    <glyph glyph-name="m" unicode="m" horiz-adv-x="640" 
d="M320 242c-45.333 0 -80.333 18.333 -105 55l-113 172c-41.333 62.667 -62 114.667 -62 156v45h120v-35c0 -30 7.66699 -56.667 23 -80l136 -201l138 201c15.333 23.333 23 50 23 80v35h120v-45c0 -42 -20.667 -94 -62 -156l-111 -167c-28 -40 -63.667 -60 -107 -60zM40 0
v540c12.667 -28.667 27.667 -56 45 -82l75 -113v-345h-120zM480 0v345l75 113c17.333 26 32.333 53.333 45 82v-540h-120z" />
    <glyph glyph-name="n" unicode="n" 
d="M360 0v35c0 30 -7.66699 56.667 -23 80l-235 354c-41.333 62.667 -62 114.667 -62 156v45h120v-35c0 -30 7.66699 -56.667 23 -80l235 -354c41.333 -62.667 62 -114.667 62 -156v-45h-120zM480 130c-10.667 24 -25.667 51.333 -45 82l-75 113v345h120v-540zM40 0v540
c12.667 -28.667 27.667 -56 45 -82l75 -113v-345h-120z" />
    <glyph glyph-name="o" unicode="o" 
d="M280 670c63.333 0 112.5 -17.833 147.5 -53.5s52.5 -82.834 52.5 -141.501v-280c0 -58.667 -17.5 -105.834 -52.5 -141.501s-84.167 -53.5 -147.5 -53.5h-40c-63.333 0 -112.5 17.833 -147.5 53.5s-52.5 82.834 -52.5 141.501v280c0 58.667 17.5 105.834 52.5 141.501
s84.167 53.5 147.5 53.5h40zM360 195v280c0 56.667 -30 85 -90 85h-20c-60 0 -90 -28.333 -90 -85v-280c0 -56.667 30 -85 90 -85h20c60 0 90 28.333 90 85z" />
    <glyph glyph-name="p" unicode="p" horiz-adv-x="500" 
d="M280 670c63.333 0 112.5 -17.833 147.5 -53.5s52.5 -82.834 52.5 -141.501s-17.5 -105.834 -52.5 -141.501s-84.167 -53.5 -147.5 -53.5h-30c-60 0 -90 -28.333 -90 -85v-195h-120v195c0 58.667 17.5 105.834 52.5 141.501s84.167 53.5 147.5 53.5h30
c60 0 90 28.333 90 85s-30 85 -90 85h-20c-60 0 -90 -28.333 -90 -85v-76c-56.667 -17.333 -96.667 -52 -120 -104v180c0 58.667 17.5 105.834 52.5 141.501s84.167 53.5 147.5 53.5h40z" />
    <glyph glyph-name="q" unicode="q" 
d="M330 126c20 14.667 30 37.667 30 69v280c0 56.667 -30 85 -90 85h-20c-60 0 -90 -28.333 -90 -85v-280c0 -56.667 30 -85 90 -85h30c63.333 0 112.5 -17.833 147.5 -53.5s52.5 -82.834 52.5 -141.501h-120c0 56.667 -26.667 85 -80 85h-40
c-63.333 0 -112.5 17.833 -147.5 53.5s-52.5 82.834 -52.5 141.501v280c0 58.667 17.5 105.834 52.5 141.501s84.167 53.5 147.5 53.5h40c63.333 0 112.5 -17.833 147.5 -53.5s52.5 -82.834 52.5 -141.501v-280c0 -50 -12.667 -91.667 -38 -125
c-28 29.333 -65.333 48 -112 56z" />
    <glyph glyph-name="r" unicode="r" 
d="M480 110l20 -0.000976562v-110h-10c-46 0 -81.5 10.333 -106.5 31s-41.5 57 -49.5 109l-10 66c-8 49.333 -36 74 -84 74c-53.333 0 -80 -28.333 -80 -85v-195h-120v195c0 58.667 17.5 105.834 52.5 141.501s84.167 53.5 147.5 53.5h30c60 0 90 28.333 90 85
s-30 85 -90 85h-20c-60 0 -90 -28.333 -90 -85v-76c-56.667 -17.333 -96.667 -52 -120 -104v180c0 58.667 17.5 105.834 52.5 141.501s84.167 53.5 147.5 53.5h40c63.333 0 112.5 -17.833 147.5 -53.5s52.5 -82.834 52.5 -141.501c0 -74.667 -27.667 -127.667 -83 -159
c20.667 -22.667 35 -54.667 43 -96l16 -90c2.66699 -13.333 10.667 -20 24 -20z" />
    <glyph glyph-name="s" unicode="s" horiz-adv-x="510" 
d="M280 390c63.333 0 112.5 -17.833 147.5 -53.5s52.5 -82.834 52.5 -141.501s-17.5 -105.834 -52.5 -141.501s-84.167 -53.5 -147.5 -53.5h-40c-63.333 0 -112.5 17.833 -147.5 53.5s-52.5 82.834 -52.5 141.501h120c0 -56.667 30 -85 90 -85h20c60 0 90 28.333 90 85
s-30 85 -90 85h-30c-63.333 0 -112.5 17.833 -147.5 53.5s-52.5 82.834 -52.5 141.501s17.5 105.834 52.5 141.501s84.167 53.5 147.5 53.5h40c63.333 0 112.5 -17.833 147.5 -53.5s52.5 -82.834 52.5 -141.501h-120c0 56.667 -30 85 -90 85h-20c-60 0 -90 -28.333 -90 -85
s30 -85 90 -85h30z" />
    <glyph glyph-name="t" unicode="t" horiz-adv-x="460" 
d="M10 560l0.000976562 110.001h255c-54.667 -24.667 -89.334 -61.334 -104.001 -110.001h-151zM170.001 0.000976562l0.000976562 479.999c0 62.667 17.5 110 52.5 142s82.5 48 142.5 48h85v-110h-85c-24.667 0 -43.334 -6.66699 -56.001 -20s-19 -36.666 -19 -69.999v-470
h-120z" />
    <glyph glyph-name="u" unicode="u" 
d="M360 670h120v-475c0 -58.667 -17.5 -105.834 -52.5 -141.501s-84.167 -53.5 -147.5 -53.5h-40c-63.333 0 -112.5 17.833 -147.5 53.5s-52.5 82.834 -52.5 141.501v475h120v-475c0 -56.667 30 -85 90 -85h20c60 0 90 28.333 90 85v475z" />
    <glyph glyph-name="v" unicode="v" 
d="M260 0c-45.333 0 -80.333 18.333 -105 55l-93 138c-8.66699 12.667 -14.5 24.834 -17.5 36.501s-4.5 28.5 -4.5 50.5v390h120v-405c0 -6.66699 1.66699 -12.334 5 -17.001l161 -229c-20 -12.667 -42 -19 -66 -19zM346 35l-70 100l79 113
c3.33301 4.66699 5 10.334 5 17.001v405h120v-390c0 -22 -1.5 -38.833 -4.5 -50.5s-8.83301 -23.834 -17.5 -36.501l-91 -133c-6 -8.66699 -13 -17 -21 -25z" />
    <glyph glyph-name="w" unicode="w" horiz-adv-x="840" 
d="M260 0c-45.333 0 -80.333 18.333 -105 55l-93 138c-8.66699 12.667 -14.5 24.834 -17.5 36.501s-4.5 28.5 -4.5 50.5v390h120v-405c0 -6.66699 1.66699 -12.334 5 -17.001l161 -229c-20 -12.667 -42 -19 -66 -19zM580 0c-45.333 0 -80.333 18.333 -105 55l-55 82l-53 -77
c-6 -8.66699 -13 -17 -21 -25l-70 100l79 113c3.33301 4.66699 5 10.334 5 17.001v405h120v-405c0 -6.66699 1.66699 -12.334 5 -17.001l161 -229c-20 -12.667 -42 -19 -66 -19zM666 35l-70 100l79 113c3.33301 4.66699 5 10.334 5 17.001v405h120v-390
c0 -22 -1.5 -38.833 -4.5 -50.5s-8.83301 -23.834 -17.5 -36.501l-91 -133c-6 -8.66699 -13 -17 -21 -25z" />
    <glyph glyph-name="x" unicode="x" 
d="M490 0c-10.667 0 -20.667 1 -30 3s-17.333 3.83301 -24 5.5s-14 5.66699 -22 12l-18 14c-4 3 -10 10 -18 21l-16.5 23l-19.5 29.5l-21 32l-267 400c-8 13.333 -16 20 -24 20h-10v110h10c10.667 0 20.667 -1 30 -3s17.333 -3.83301 24 -5.5s14 -5.66699 22 -12l18 -14
c4 -3 10 -10 18 -21l16.5 -23l19.5 -29.5l21 -32l267 -400c8 -13.333 16 -20 24 -20h10v-110h-10zM341 353l-69 104l49 73l21 32l19.5 29.5l16.5 23c8 11 14 18 18 21l18 14c8 6.33301 15.333 10.333 22 12s14.667 3.5 24 5.5s19.333 3 30 3h10v-110h-10
c-8 0 -16 -6.66699 -24 -20zM30 0h-10v110h10c8 0 16 6.66699 24 20l125 187l69 -104l-49 -73l-21 -32l-19.5 -29.5l-16.5 -23c-8 -11 -14 -18 -18 -21l-18 -14c-8 -6.33301 -15.333 -10.333 -22 -12s-14.667 -3.5 -24 -5.5s-19.333 -3 -30 -3z" />
    <glyph glyph-name="y" unicode="y" horiz-adv-x="500" 
d="M174 235l-122 178c-8.66699 12.667 -14.5 24.834 -17.5 36.501s-4.5 28.5 -4.5 50.5v170h120v-185c0 -6.66699 1.66699 -12.334 5 -17.001l82 -119c-32.667 -43.333 -53.667 -81.333 -63 -114zM190 0v205c0 28.667 15.667 65.334 47 110.001l108 153
c3.33301 4.66699 5 10.334 5 17.001v185h120v-170c0 -22 -1.5 -38.833 -4.5 -50.5s-8.83301 -23.834 -17.5 -36.501l-91 -133c-31.333 -46.667 -47 -83.334 -47 -110.001v-170h-120z" />
    <glyph glyph-name="z" unicode="z" horiz-adv-x="500" 
d="M30 0v45c0 41.333 20.667 93.333 62 156l235 354c15.333 23.333 23 50 23 80v35h120v-45c0 -41.333 -20.667 -93.333 -62 -156l-235 -354c-15.333 -23.333 -23 -50 -23 -80v-35h-120zM30 560v110h300v-35c0 -26 -6.66699 -49 -20 -69l-4 -6h-276zM170 0v35
c0 26 6.66699 49 20 69l4 6h276v-110h-300z" />
    <glyph glyph-name="braceleft" unicode="{" horiz-adv-x="350" 
d="M220 475c0 -59.333 -17 -106.002 -51 -140.002c34 -34 51 -80.667 51 -140v-150c0 -56.667 30 -85 90 -85h30v-110h-40c-63.333 0 -112.5 17.833 -147.5 53.5s-52.5 82.834 -52.5 141.501v150c0 56.667 -30 85 -90 85v110c60 0 90 28.333 90 85v150
c0 58.667 17.5 105.834 52.5 141.501s84.167 53.5 147.5 53.5h40v-110h-30c-60 0 -90 -28.333 -90 -85v-150z" />
    <glyph glyph-name="bar" unicode="|" horiz-adv-x="180" 
d="M40 770h100v-870h-100v870z" />
    <glyph glyph-name="braceright" unicode="}" horiz-adv-x="350" 
d="M130 475v150.002c0 56.667 -30 85 -90 85h-30v110h40c63.333 0 112.5 -17.833 147.5 -53.5s52.5 -82.834 52.5 -141.501v-150c0 -56.667 30 -85 90 -85v-110c-60 0 -90 -28.333 -90 -85v-150c0 -58.667 -17.5 -105.834 -52.5 -141.501s-84.167 -53.5 -147.5 -53.5h-40
v110h30c60 0 90 28.333 90 85v150c0 59.333 17 106 51 140c-34 34 -51 80.667 -51 140z" />
    <glyph glyph-name="asciitilde" unicode="~" horiz-adv-x="500" 
d="M460 425h-100c0 -30 -12 -45 -36 -45c-13.333 0 -37.833 7.5 -73.5 22.5s-68.834 22.5 -99.501 22.5c-74 0 -111 -55 -111 -165h100c0 30 12 45 36 45c13.333 0 37.833 -7.5 73.5 -22.5s68.834 -22.5 99.501 -22.5c74 0 111 55 111 165z" />
    <glyph glyph-name="exclamdown" unicode="&#xa1;" horiz-adv-x="200" 
d="M160 670v-120h-120v20c0 66.667 33.333 100 100 100h20zM160 510v-510h-120v510h120z" />
    <glyph glyph-name="cent" unicode="&#xa2;" horiz-adv-x="500" 
d="M315 730l0.000976562 -619.999h165v-110h-165v-60h-110v62c-52.667 6.66699 -93.334 27.167 -122.001 61.5s-43 78.166 -43 131.499v280c0 50 12.5 91.667 37.5 125s60.833 55 107.5 65v-124c-16.667 -14 -25 -36 -25 -66v-280c0 -40 15 -65.667 45 -77v612h110z
M360.001 475.001c0 30 -8.33301 52 -25 66v124c46.667 -10 82.5 -31.667 107.5 -65s37.5 -75 37.5 -125h-120z" />
    <glyph glyph-name="sterling" unicode="&#xa3;" horiz-adv-x="510" 
d="M280 670l200 -0.000976562v-110h-190c-60 0 -90 -28.333 -90 -85v-85h200v-110h-370v110h50v85c0 58.667 17.5 105.834 52.5 141.501s84.167 53.5 147.5 53.5zM200 259.999v-150h280v-110h-450v110h50v150h120z" />
    <glyph glyph-name="currency" unicode="&#xa4;" 
d="M402 517c52 -33.333 78 -87.333 78 -162v-40c0 -74.667 -26 -128.667 -78 -162l78 -153h-100l-62 122c-16 -1.33301 -28.667 -2 -38 -2h-40c-9.33301 0 -22 0.666992 -38 2l-62 -122h-100l78 153c-52 33.333 -78 87.333 -78 162v40c0 74.667 26 128.667 78 162l-78 153
h100l62 -122c16 1.33301 28.667 2 38 2h40c9.33301 0 22 -0.666992 38 -2l62 122h100zM270 230c60 0 90 28.333 90 85v40c0 56.667 -30 85 -90 85h-20c-60 0 -90 -28.333 -90 -85v-40c0 -56.667 30 -85 90 -85h20z" />
    <glyph glyph-name="yen" unicode="&#xa5;" horiz-adv-x="500" 
d="M470 590c0 -22 -1.5 -38.833 -4.5 -50.5s-8.83301 -23.834 -17.5 -36.501l-119 -173h131v-110h-420v110h131l-119 173c-8.66699 12.667 -14.5 24.834 -17.5 36.501s-4.5 28.5 -4.5 50.5v80h120v-95c0 -6.66699 1.66699 -12.334 5 -17.001l94 -136l96 136
c3.33301 4.66699 5 10.334 5 17.001v95h120v-80zM190 0v200h120v-200h-120z" />
    <glyph glyph-name="brokenbar" unicode="&#xa6;" horiz-adv-x="180" 
d="M40 400v370h100v-370h-100zM40 -100v370h100v-370h-100z" />
    <glyph glyph-name="section" unicode="&#xa7;" 
d="M280 490c63.333 0 112.5 -17.833 147.5 -53.5s52.5 -82.834 52.5 -141.501h-120c0 56.667 -30 85 -90 85h-30c-63.333 0 -112.5 17.833 -147.5 53.5s-52.5 82.834 -52.5 141.501s17.5 105.834 52.5 141.501s84.167 53.5 147.5 53.5h40
c63.333 0 112.5 -17.833 147.5 -53.5s52.5 -82.834 52.5 -141.501h-120c0 56.667 -30 85 -90 85h-20c-60 0 -90 -28.333 -90 -85s30 -85 90 -85h30zM240 180c-63.333 0 -112.5 17.833 -147.5 53.5s-52.5 82.834 -52.5 141.501h120c0 -56.667 30 -85 90 -85h30
c63.333 0 112.5 -17.833 147.5 -53.5s52.5 -82.834 52.5 -141.501s-17.5 -105.834 -52.5 -141.501s-84.167 -53.5 -147.5 -53.5h-40c-63.333 0 -112.5 17.833 -147.5 53.5s-52.5 82.834 -52.5 141.501h120c0 -56.667 30 -85 90 -85h20c60 0 90 28.333 90 85s-30 85 -90 85
h-30z" />
    <glyph glyph-name="dieresis" unicode="&#xa8;" horiz-adv-x="400" 
d="M160 830v-120h-120v20c0 66.667 33.333 100 100 100h20zM240 710v120h120v-20c0 -66.667 -33.333 -100 -100 -100h-20z" />
    <glyph glyph-name="copyright" unicode="&#xa9;" horiz-adv-x="720" 
d="M480 670c63.333 0 112.5 -17.833 147.5 -53.5s52.5 -82.834 52.5 -141.501v-280c0 -58.667 -17.5 -105.834 -52.5 -141.501s-84.167 -53.5 -147.5 -53.5h-240c-63.333 0 -112.5 17.833 -147.5 53.5s-52.5 82.834 -52.5 141.501v280c0 58.667 17.5 105.834 52.5 141.501
s84.167 53.5 147.5 53.5h240zM590 195v280c0 73.333 -37 110 -111 110h-238c-74 0 -111 -36.667 -111 -110v-280c0 -73.333 37 -110 111 -110h238c74 0 111 36.667 111 110zM280 283c0 -45.333 24 -67.999 72 -67.999h164v-88h-172c-50.667 0 -90 14.167 -118 42.5
s-42 66.166 -42 113.499v104c0 47.333 14 85.166 42 113.499s67.333 42.5 118 42.5h32c50.667 0 90 -14.167 118 -42.5s42 -66.166 42 -113.499h-96c0 45.333 -24 68 -72 68h-16c-48 0 -72 -22.667 -72 -68v-104z" />
    <glyph glyph-name="ordfeminine" unicode="&#xaa;" horiz-adv-x="432" 
d="M232 670c50.667 0 90 -14.166 118 -42.499s42 -66.166 42 -113.499v-234h-96v234c0 45.333 -24 68 -72 68h-16c-48 0 -72 -22.667 -72 -68v-78c0 -45.333 24 -68 72 -68h16c26 0 44.667 6.33301 56 19v-102c-15.333 -3.33301 -31.333 -5 -48 -5h-32
c-50.667 0 -90 14.167 -118 42.5s-42 66.166 -42 113.499v78c0 47.333 14 85.166 42 113.499s67.333 42.5 118 42.5h32zM40 180.001v80h352v-80h-352z" />
    <glyph glyph-name="guillemotleft" unicode="&#xab;" horiz-adv-x="640" 
d="M40 335c0 45.333 18.333 80.333 55 105l138 93c12.667 8.66699 24.834 14.5 36.501 17.5s28.5 4.5 50.5 4.5h10v-120h-25c-6.66699 0 -12.334 -1.66699 -17.001 -5l-135 -95l135 -95c4.66699 -3.33301 10.334 -5 17.001 -5h25v-120h-10c-22 0 -38.833 1.5 -50.5 4.5
s-23.834 8.83301 -36.501 17.5l-138 93c-36.667 24.667 -55 59.667 -55 105zM310 335c0 45.333 18.333 80.333 55 105l138 93c12.667 8.66699 24.834 14.5 36.501 17.5s28.5 4.5 50.5 4.5h10v-120h-25c-6.66699 0 -12.334 -1.66699 -17.001 -5l-135 -95l135 -95
c4.66699 -3.33301 10.334 -5 17.001 -5h25v-120h-10c-22 0 -38.833 1.5 -50.5 4.5s-23.834 8.83301 -36.501 17.5l-138 93c-36.667 24.667 -55 59.667 -55 105z" />
    <glyph glyph-name="logicalnot" unicode="&#xac;" horiz-adv-x="560" 
d="M520 390v-275h-110v165h-370v110h480z" />
    <glyph glyph-name="uni00AD" unicode="&#xad;" horiz-adv-x="380" 
d="M40 280v110h300v-110h-300z" />
    <glyph glyph-name="registered" unicode="&#xae;" horiz-adv-x="720" 
d="M480 670c63.333 0 112.5 -17.833 147.5 -53.5s52.5 -82.834 52.5 -141.501v-280c0 -58.667 -17.5 -105.834 -52.5 -141.501s-84.167 -53.5 -147.5 -53.5h-240c-63.333 0 -112.5 17.833 -147.5 53.5s-52.5 82.834 -52.5 141.501v280c0 58.667 17.5 105.834 52.5 141.501
s84.167 53.5 147.5 53.5h240zM590 195v280c0 73.333 -37 110 -111 110h-238c-74 0 -111 -36.667 -111 -110v-280c0 -73.333 37 -110 111 -110h238c74 0 111 36.667 111 110zM528 215l6.00098 0.00292969v-88h-28c-24 0 -44.667 7 -62 21s-29.833 29.333 -37.5 46
s-17.5 32 -29.5 46s-25.667 21 -41 21c-22 0 -36.5 -6 -43.5 -18s-10.5 -28.667 -10.5 -50v-66h-96v66c0 47.333 14 85.166 42 113.499s67.333 42.5 118 42.5h34c22.667 0 38.667 5.33301 48 16s14 23 14 37s-4.66699 26.333 -14 37s-25.333 16 -48 16h-26
c-48 0 -72 -22.667 -72 -68v-31c-45.333 -13.333 -77.333 -41 -96 -83v114c0 47.333 14 85.166 42 113.499s67.333 42.5 118 42.5h32c50.667 0 90 -12 118 -36s42 -55.667 42 -95c0 -58.667 -28.667 -99.334 -86 -122.001c31.333 -40.667 50.666 -63.667 57.999 -69
c5.33301 -4 11.333 -6 18 -6z" />
    <glyph glyph-name="macron" unicode="&#xaf;" horiz-adv-x="380" 
d="M40 710v90h300v-90h-300z" />
    <glyph glyph-name="degree" unicode="&#xb0;" horiz-adv-x="432" 
d="M232 670c50.667 0 90 -14.167 118 -42.5s42 -66.166 42 -113.499v-78c0 -47.333 -14 -85.166 -42 -113.499s-67.333 -42.5 -118 -42.5h-32c-50.667 0 -90 14.167 -118 42.5s-42 66.166 -42 113.499v78c0 47.333 14 85.166 42 113.499s67.333 42.5 118 42.5h32zM296 436
v78c0 45.333 -24 68 -72 68h-16c-48 0 -72 -22.667 -72 -68v-78c0 -45.333 24 -68 72 -68h16c48 0 72 22.667 72 68z" />
    <glyph glyph-name="plusminus" unicode="&#xb1;" 
d="M315 465h165v-110h-165v-165h-110v165h-165v110h165v165h110v-165zM40 40v110h440v-110h-440z" />
    <glyph glyph-name="uni00B2" unicode="&#xb2;" horiz-adv-x="430" 
d="M135 390v-52h-96v52c0 47.333 14 85.166 42 113.499s67.333 42.5 118 42.5h24c48 0 72 22.667 72 68s-24 68 -72 68h-16c-48 0 -72 -22.667 -72 -68h-96c0 47.333 14 85.166 42 113.499s67.333 42.5 118 42.5h32c50.667 0 90 -14.167 118 -42.5s42 -66.166 42 -113.499
s-14 -85.166 -42 -113.499s-67.333 -42.5 -118 -42.5h-24c-48 0 -72 -22.667 -72 -68zM39 234v88h352v-88h-352z" />
    <glyph glyph-name="uni00B3" unicode="&#xb3;" horiz-adv-x="430" 
d="M207 682c-48 0 -72 -22.666 -72 -67.999h-96c0 47.333 14 85.166 42 113.499s67.333 42.5 118 42.5h32c50.667 0 90 -14.167 118 -42.5s42 -66.166 42 -113.499c0 -40.667 -10 -74 -30 -100c-23.333 22.667 -53.333 37.667 -90 45c16 11.333 24 29.666 24 54.999
c0 45.333 -24 68 -72 68h-16zM231 546.001c50.667 0 90 -14.168 118 -42.501s42 -66.166 42 -113.499s-14 -85.166 -42 -113.499s-67.333 -42.5 -118 -42.5h-32c-50.667 0 -90 14.167 -118 42.5s-42 66.166 -42 113.499h96c0 -45.333 24 -68 72 -68h16c48 0 72 22.667 72 68
s-21.333 68 -64 68h-96v88h96z" />
    <glyph glyph-name="acute" unicode="&#xb4;" horiz-adv-x="260" 
d="M130 855h90.001c0 -46.667 -12.333 -82.5 -37 -107.5s-59.334 -37.5 -104.001 -37.5h-39v80h25c26 0 43.333 5.66699 52 17s13 27.333 13 48z" />
    <glyph glyph-name="uni00B5" unicode="&#xb5;" 
d="M160 -200h-120v870h120v-870zM360 670l120 0.000976562v-475c0 -58.667 -17.5 -105.834 -52.5 -141.501s-84.167 -53.5 -147.5 -53.5h-40c-22 0 -42 2 -60 6v128c14.667 -16 38 -24 70 -24h20c60 0 90 28.333 90 85v475z" />
    <glyph glyph-name="paragraph" unicode="&#xb6;" horiz-adv-x="500" 
d="M240 670l100 -0.00195312v-670h-80v280h-20c-63.333 0 -112.5 17.833 -147.5 53.5s-52.5 82.834 -52.5 141.501s17.5 105.834 52.5 141.501s84.167 53.5 147.5 53.5zM460 -0.00195312h-80v670h80v-670z" />
    <glyph glyph-name="periodcentered" unicode="&#xb7;" horiz-adv-x="200" 
d="M40 275v120h120v-20c0 -66.667 -33.333 -100 -100 -100h-20z" />
    <glyph glyph-name="cedilla" unicode="&#xb8;" horiz-adv-x="235" 
d="M40 -90c20.667 0 36.667 4.33301 48 13s17 26 17 52v25h90v-39c0 -43.333 -13.667 -76 -41 -98s-65.333 -33 -114 -33v80z" />
    <glyph glyph-name="uni00B9" unicode="&#xb9;" horiz-adv-x="430" 
d="M55 614v87.999h48c48 0 72 22.667 72 68h96c0 -47.333 -14 -85.166 -42 -113.499s-67.333 -42.5 -118 -42.5h-56zM175 337.999v269c45.333 13.333 77.333 41 96 83v-352h-96zM39 233.999v88h352v-88h-352z" />
    <glyph glyph-name="ordmasculine" unicode="&#xba;" horiz-adv-x="432" 
d="M232 670c50.667 0 90 -14.167 118 -42.5s42 -66.166 42 -113.499v-78c0 -47.333 -14 -85.166 -42 -113.499s-67.333 -42.5 -118 -42.5h-32c-50.667 0 -90 14.167 -118 42.5s-42 66.166 -42 113.499v78c0 47.333 14 85.166 42 113.499s67.333 42.5 118 42.5h32zM296 436
v78c0 45.333 -24 68 -72 68h-16c-48 0 -72 -22.667 -72 -68v-78c0 -45.333 24 -68 72 -68h16c48 0 72 22.667 72 68zM40 180v80h352v-80h-352z" />
    <glyph glyph-name="guillemotright" unicode="&#xbb;" horiz-adv-x="640" 
d="M330 335c0 -45.333 -18.333 -80.333 -55 -105l-138 -93c-12.667 -8.66699 -24.834 -14.5 -36.501 -17.5s-28.5 -4.5 -50.5 -4.5h-10v120h25c6.66699 0 12.334 1.66699 17.001 5l135 95l-135 95c-4.66699 3.33301 -10.334 5 -17.001 5h-25v120h10
c22 0 38.833 -1.5 50.5 -4.5s23.834 -8.83301 36.501 -17.5l138 -93c36.667 -24.667 55 -59.667 55 -105zM600 335c0 -45.333 -18.333 -80.333 -55 -105l-138 -93c-12.667 -8.66699 -24.834 -14.5 -36.501 -17.5s-28.5 -4.5 -50.5 -4.5h-10v120h25
c6.66699 0 12.334 1.66699 17.001 5l135 95l-135 95c-4.66699 3.33301 -10.334 5 -17.001 5h-25v120h10c22 0 38.833 -1.5 50.5 -4.5s23.834 -8.83301 36.501 -17.5l138 -93c36.667 -24.667 55 -59.667 55 -105z" />
    <glyph glyph-name="onequarter" unicode="&#xbc;" horiz-adv-x="1100" 
d="M55 514v87.999h48c48 0 72 22.667 72 68h96c0 -47.333 -14 -85.166 -42 -113.499s-67.333 -42.5 -118 -42.5h-56zM390 -0.000976562l310 670h100l-310 -670h-100zM175 237.999v269c45.333 13.333 77.333 41 96 83v-352h-96zM1085 191.999v-88.001h-48v-104h-96v104h-144
v28c0 20.667 5.33301 39 16 55l3 5h125v214l-142 -210c-12 -18 -18 -39.333 -18 -64v-28h-96v36c0 34.667 16.667 76.334 50 125.001l132 195c32.667 50.667 75.667 76 129 76h41v-344h48zM39 133.998v88h352v-88h-352z" />
    <glyph glyph-name="onehalf" unicode="&#xbd;" horiz-adv-x="1150" 
d="M55 514v87.999h48c48 0 72 22.667 72 68h96c0 -47.333 -14 -85.166 -42 -113.499s-67.333 -42.5 -118 -42.5h-56zM390 -0.000976562l310 670h100l-310 -670h-100zM175 237.999v269c45.333 13.333 77.333 41 96 83v-352h-96zM855 155.999v-52h-96v52
c0 47.333 14 85.166 42 113.499s67.333 42.5 118 42.5h24c48 0 72 22.667 72 68s-24 68 -72 68h-16c-48 0 -72 -22.667 -72 -68h-96c0 47.333 14 85.166 42 113.499s67.333 42.5 118 42.5h32c50.667 0 90 -14.167 118 -42.5s42 -66.166 42 -113.499
s-14 -85.166 -42 -113.499s-67.333 -42.5 -118 -42.5h-24c-48 0 -72 -22.667 -72 -68zM39 133.999v88h352v-88h-352zM759 -0.000976562v88h352v-88h-352z" />
    <glyph glyph-name="threequarters" unicode="&#xbe;" horiz-adv-x="1060" 
d="M207 582c-48 0 -72 -22.666 -72 -67.999h-96c0 47.333 14 85.166 42 113.499s67.333 42.5 118 42.5h32c50.667 0 90 -14.167 118 -42.5s42 -66.166 42 -113.499c0 -40.667 -10 -74 -30 -100c-23.333 22.667 -53.333 37.667 -90 45c16 11.333 24 29.666 24 54.999
c0 45.333 -24 68 -72 68h-16zM350 0.000976562l310 670h100l-310 -670h-100zM1045 192.001v-88.001h-48v-104h-96v104h-144v28c0 20.667 5.33301 39 16 55l3 5h125v214l-142 -210c-12 -18 -18 -39.333 -18 -64v-28h-96v36c0 34.667 16.667 76.334 50 125.001l132 195
c32.667 50.667 75.667 76 129 76h41v-344h48zM231 446c50.667 0 90 -14.168 118 -42.501s42 -66.166 42 -113.499s-14 -85.166 -42 -113.499s-67.333 -42.5 -118 -42.5h-32c-50.667 0 -90 14.167 -118 42.5s-42 66.166 -42 113.499h96c0 -45.333 24 -68 72 -68h16
c48 0 72 22.667 72 68s-21.333 68 -64 68h-96v88h96z" />
    <glyph glyph-name="questiondown" unicode="&#xbf;" 
d="M360 670v-120h-120v20c0 66.667 33.333 100 100 100h20zM240 510l120 -0.000976562v-230h-110c-60 0 -90 -28.333 -90 -85s30 -85 90 -85h20c60 0 90 28.333 90 85h120c0 -58.667 -17.5 -105.834 -52.5 -141.501s-84.167 -53.5 -147.5 -53.5h-40
c-63.333 0 -112.5 17.833 -147.5 53.5s-52.5 82.834 -52.5 141.501s17.5 105.834 52.5 141.501s84.167 53.5 147.5 53.5v120z" />
    <glyph glyph-name="Agrave" unicode="&#xc0;" 
d="M230 855c0 -20.667 4.33398 -36.667 13.001 -48s26 -17 52 -17h25v-80h-39c-44.667 0 -79.334 12.5 -104.001 37.5s-37 60.833 -37 107.5h90zM40.001 0v174.999c0 58.667 17.5 105.834 52.5 141.501s84.167 53.5 147.5 53.5h40c29.333 0 56 -5.66699 80 -17v52
c0 6.66699 -1.66699 12.334 -5 17.001l-97 136l-93 -136c-3.33301 -4.66699 -5 -10.334 -5 -17.001v-26c-56.667 -17.333 -96.667 -52 -120 -104v115c0 22 1.5 38.833 4.5 50.5s8.83301 23.834 17.5 36.501l93 138c24.667 36.667 59.667 55 105 55c43.333 0 79 -20 107 -60
l91 -133c8.66699 -12.667 14.5 -24.834 17.5 -36.501s4.5 -28.5 4.5 -50.5v-390h-120v175c0 56.667 -30 85 -90 85h-20c-60 0 -90 -28.333 -90 -85v-175h-120z" />
    <glyph glyph-name="Aacute" unicode="&#xc1;" 
d="M290 855h90.001c0 -46.667 -12.333 -82.5 -37 -107.5s-59.334 -37.5 -104.001 -37.5h-39v80h25c26 0 43.333 5.66699 52 17s13 27.333 13 48zM40.001 0v174.999c0 58.667 17.5 105.834 52.5 141.501s84.167 53.5 147.5 53.5h40c29.333 0 56 -5.66699 80 -17v52
c0 6.66699 -1.66699 12.334 -5 17.001l-97 136l-93 -136c-3.33301 -4.66699 -5 -10.334 -5 -17.001v-26c-56.667 -17.333 -96.667 -52 -120 -104v115c0 22 1.5 38.833 4.5 50.5s8.83301 23.834 17.5 36.501l93 138c24.667 36.667 59.667 55 105 55c43.333 0 79 -20 107 -60
l91 -133c8.66699 -12.667 14.5 -24.834 17.5 -36.501s4.5 -28.5 4.5 -50.5v-390h-120v175c0 56.667 -30 85 -90 85h-20c-60 0 -90 -28.333 -90 -85v-175h-120z" />
    <glyph glyph-name="Acircumflex" unicode="&#xc2;" 
d="M358 811c27.333 -18 44.5 -32 51.5 -42s10.5 -24.667 10.5 -44v-15h-90v5c0 6.66699 -1.33301 11.667 -4 15s-9 8.33301 -19 15l-47 31l-47 -31c-10 -6.66699 -16.333 -11.667 -19 -15s-4 -8.33301 -4 -15v-5h-90v15c0 19.333 3.5 34 10.5 44s24.167 24 51.5 42l98 64z
M40 0v174.999c0 58.667 17.5 105.834 52.5 141.501s84.167 53.5 147.5 53.5h40c29.333 0 56 -5.66699 80 -17v52c0 6.66699 -1.66699 12.334 -5 17.001l-97 136l-93 -136c-3.33301 -4.66699 -5 -10.334 -5 -17.001v-26c-56.667 -17.333 -96.667 -52 -120 -104v115
c0 22 1.5 38.833 4.5 50.5s8.83301 23.834 17.5 36.501l93 138c24.667 36.667 59.667 55 105 55c43.333 0 79 -20 107 -60l91 -133c8.66699 -12.667 14.5 -24.834 17.5 -36.501s4.5 -28.5 4.5 -50.5v-390h-120v175c0 56.667 -30 85 -90 85h-20c-60 0 -90 -28.333 -90 -85
v-175h-120z" />
    <glyph glyph-name="Atilde" unicode="&#xc3;" 
d="M450 855h-80c0 -36.667 -12 -55 -36 -55c-10.667 0 -21.667 2.83301 -33 8.5s-21.5 12 -30.5 19s-21.5 13.333 -37.5 19s-33.333 8.5 -52 8.5c-74 0 -111 -48.333 -111 -145h80c0 36.667 12 55 36 55c12.667 0 26 -4.5 40 -13.5s30.333 -18.167 49 -27.5s40 -14 64 -14
c74 0 111 48.333 111 145zM40 0v174.999c0 58.667 17.5 105.834 52.5 141.501s84.167 53.5 147.5 53.5h40c29.333 0 56 -5.66699 80 -17v52c0 6.66699 -1.66699 12.334 -5 17.001l-97 136l-93 -136c-3.33301 -4.66699 -5 -10.334 -5 -17.001v-26
c-56.667 -17.333 -96.667 -52 -120 -104v115c0 22 1.5 38.833 4.5 50.5s8.83301 23.834 17.5 36.501l93 138c24.667 36.667 59.667 55 105 55c43.333 0 79 -20 107 -60l91 -133c8.66699 -12.667 14.5 -24.834 17.5 -36.501s4.5 -28.5 4.5 -50.5v-390h-120v175
c0 56.667 -30 85 -90 85h-20c-60 0 -90 -28.333 -90 -85v-175h-120z" />
    <glyph glyph-name="Adieresis" unicode="&#xc4;" 
d="M220 830v-120h-120v20c0 66.667 33.333 100 100 100h20zM300 710v120h120v-20c0 -66.667 -33.333 -100 -100 -100h-20zM40 0v174.999c0 58.667 17.5 105.834 52.5 141.501s84.167 53.5 147.5 53.5h40c29.333 0 56 -5.66699 80 -17v52
c0 6.66699 -1.66699 12.334 -5 17.001l-97 136l-93 -136c-3.33301 -4.66699 -5 -10.334 -5 -17.001v-26c-56.667 -17.333 -96.667 -52 -120 -104v115c0 22 1.5 38.833 4.5 50.5s8.83301 23.834 17.5 36.501l93 138c24.667 36.667 59.667 55 105 55c43.333 0 79 -20 107 -60
l91 -133c8.66699 -12.667 14.5 -24.834 17.5 -36.501s4.5 -28.5 4.5 -50.5v-390h-120v175c0 56.667 -30 85 -90 85h-20c-60 0 -90 -28.333 -90 -85v-175h-120z" />
    <glyph glyph-name="Aring" unicode="&#xc5;" 
d="M266 950c82.667 0 124 -40 124 -120s-41.333 -120 -124 -120h-12c-82.667 0 -124 40 -124 120s41.333 120 124 120h12zM263 786c28.667 0 43 14.667 43 44s-14.333 44 -43 44h-6c-28.667 0 -43 -14.667 -43 -44s14.333 -44 43 -44h6zM40 0v174.999
c0 58.667 17.5 105.834 52.5 141.501s84.167 53.5 147.5 53.5h40c29.333 0 56 -5.66699 80 -17v52c0 6.66699 -1.66699 12.334 -5 17.001l-97 136l-93 -136c-3.33301 -4.66699 -5 -10.334 -5 -17.001v-26c-56.667 -17.333 -96.667 -52 -120 -104v115
c0 22 1.5 38.833 4.5 50.5s8.83301 23.834 17.5 36.501l93 138c24.667 36.667 59.667 55 105 55c43.333 0 79 -20 107 -60l91 -133c8.66699 -12.667 14.5 -24.834 17.5 -36.501s4.5 -28.5 4.5 -50.5v-390h-120v175c0 56.667 -30 85 -90 85h-20c-60 0 -90 -28.333 -90 -85
v-175h-120z" />
    <glyph glyph-name="AE" unicode="&#xc6;" horiz-adv-x="820" 
d="M160 379c-56.667 -17.333 -96.666 -51.999 -119.999 -103.999v115c0 22 1.5 38.833 4.5 50.5s8.83301 23.834 17.5 36.501l93 138c24.667 36.667 59.667 55 105 55c43.333 0 79 -20 107 -60l19 -28c33.333 58.667 91.333 88 174 88h40
c63.333 0 112.5 -17.833 147.5 -53.5s52.5 -82.834 52.5 -141.501h-120c0 56.667 -30 85 -90 85h-20c-60 0 -90 -28.333 -90 -85v-20c0 -56.667 30 -85 90 -85h110v-110h-120c-50.667 0 -92.334 11.333 -125.001 34s-55 54.667 -67 96c-5.33301 16.667 -13 32 -23 46
l-87 122l-93 -136c-3.33301 -4.66699 -5 -10.334 -5 -17.001v-26zM480.001 195.001c0 -56.667 30 -85.001 90 -85.001h230v-110h-240c-58.667 -0 -106.667 16.833 -144 50.5s-56 75.167 -56 124.5c0 56.667 -30 85 -90 85h-20c-60 0 -90 -28.333 -90 -85v-175h-120v175
c0 58.667 17.5 105.834 52.5 141.501s84.167 53.5 147.5 53.5h40c29.333 0 56 -5.66699 80 -17c22.667 -50.667 62.667 -84.667 120 -102v-56z" />
    <glyph glyph-name="Ccedilla" unicode="&#xc7;" horiz-adv-x="500" 
d="M160 195c0 -56.667 30 -85.001 90 -85.001h230v-110h-150v-39c0 -43.333 -13.667 -76 -41 -98s-65.333 -33 -114 -33v80c20.667 0 36.667 4.33301 48 13s17 26 17 52v25c-63.333 0 -112.5 17.833 -147.5 53.5s-52.5 82.834 -52.5 141.501v280
c0 58.667 17.5 105.834 52.5 141.501s84.167 53.5 147.5 53.5h40c63.333 0 112.5 -17.833 147.5 -53.5s52.5 -82.834 52.5 -141.501h-120c0 56.667 -30 85 -90 85h-20c-60 0 -90 -28.333 -90 -85v-280z" />
    <glyph glyph-name="Egrave" unicode="&#xc8;" horiz-adv-x="500" 
d="M230 855c0 -20.667 4.33398 -36.667 13.001 -48s26 -17 52 -17h25v-80h-39c-44.667 0 -79.334 12.5 -104.001 37.5s-37 60.833 -37 107.5h90zM240.001 260c-63.333 0 -112.5 17.832 -147.5 53.499s-52.5 82.834 -52.5 141.501v20c0 58.667 17.5 105.834 52.5 141.501
s84.167 53.5 147.5 53.5h40c63.333 0 112.5 -17.833 147.5 -53.5s52.5 -82.834 52.5 -141.501h-120c0 56.667 -30 85 -90 85h-20c-60 0 -90 -28.333 -90 -85v-20c0 -56.667 30 -85 90 -85h110v-110h-120zM160.001 194.999c0 -56.667 30 -85.001 90 -85.001h230v-110h-240
c-63.333 0 -112.5 17.833 -147.5 53.5s-52.5 82.834 -52.5 141.501v160c23.333 -52 63.333 -86.667 120 -104v-56z" />
    <glyph glyph-name="Eacute" unicode="&#xc9;" horiz-adv-x="500" 
d="M290 855h90.001c0 -46.667 -12.333 -82.5 -37 -107.5s-59.334 -37.5 -104.001 -37.5h-39v80h25c26 0 43.333 5.66699 52 17s13 27.333 13 48zM240.001 260c-63.333 0 -112.5 17.832 -147.5 53.499s-52.5 82.834 -52.5 141.501v20c0 58.667 17.5 105.834 52.5 141.501
s84.167 53.5 147.5 53.5h40c63.333 0 112.5 -17.833 147.5 -53.5s52.5 -82.834 52.5 -141.501h-120c0 56.667 -30 85 -90 85h-20c-60 0 -90 -28.333 -90 -85v-20c0 -56.667 30 -85 90 -85h110v-110h-120zM160.001 194.999c0 -56.667 30 -85.001 90 -85.001h230v-110h-240
c-63.333 0 -112.5 17.833 -147.5 53.5s-52.5 82.834 -52.5 141.501v160c23.333 -52 63.333 -86.667 120 -104v-56z" />
    <glyph glyph-name="Ecircumflex" unicode="&#xca;" horiz-adv-x="500" 
d="M358 811c27.333 -18 44.5 -32 51.5 -42s10.5 -24.667 10.5 -44v-15h-90v5c0 6.66699 -1.33301 11.667 -4 15s-9 8.33301 -19 15l-47 31l-47 -31c-10 -6.66699 -16.333 -11.667 -19 -15s-4 -8.33301 -4 -15v-5h-90v15c0 19.333 3.5 34 10.5 44s24.167 24 51.5 42l98 64z
M240 260c-63.333 0 -112.5 17.832 -147.5 53.499s-52.5 82.834 -52.5 141.501v20c0 58.667 17.5 105.834 52.5 141.501s84.167 53.5 147.5 53.5h40c63.333 0 112.5 -17.833 147.5 -53.5s52.5 -82.834 52.5 -141.501h-120c0 56.667 -30 85 -90 85h-20
c-60 0 -90 -28.333 -90 -85v-20c0 -56.667 30 -85 90 -85h110v-110h-120zM160 194.999c0 -56.667 30 -85.001 90 -85.001h230v-110h-240c-63.333 0 -112.5 17.833 -147.5 53.5s-52.5 82.834 -52.5 141.501v160c23.333 -52 63.333 -86.667 120 -104v-56z" />
    <glyph glyph-name="Edieresis" unicode="&#xcb;" horiz-adv-x="500" 
d="M220 830v-120h-120v20c0 66.667 33.333 100 100 100h20zM300 710v120h120v-20c0 -66.667 -33.333 -100 -100 -100h-20zM240 260c-63.333 0 -112.5 17.832 -147.5 53.499s-52.5 82.834 -52.5 141.501v20c0 58.667 17.5 105.834 52.5 141.501s84.167 53.5 147.5 53.5h40
c63.333 0 112.5 -17.833 147.5 -53.5s52.5 -82.834 52.5 -141.501h-120c0 56.667 -30 85 -90 85h-20c-60 0 -90 -28.333 -90 -85v-20c0 -56.667 30 -85 90 -85h110v-110h-120zM160 194.999c0 -56.667 30 -85.001 90 -85.001h230v-110h-240
c-63.333 0 -112.5 17.833 -147.5 53.5s-52.5 82.834 -52.5 141.501v160c23.333 -52 63.333 -86.667 120 -104v-56z" />
    <glyph glyph-name="Igrave" unicode="&#xcc;" horiz-adv-x="380" 
d="M160 855c0 -20.667 4.33398 -36.667 13.001 -48s26 -17 52 -17h25v-80h-39c-44.667 0 -79.334 12.5 -104.001 37.5s-37 60.833 -37 107.5h90zM325.001 0c-60 0 -107.5 16 -142.5 48s-52.5 79.333 -52.5 142v280c0 33.333 -6.33301 56.666 -19 69.999
s-31.334 20 -56.001 20h-25v110h25c60 0 107.5 -16 142.5 -48s52.5 -79.333 52.5 -142v-280c0 -33.333 6.33301 -56.666 19 -69.999s31.334 -20 56.001 -20h25v-110h-25zM259.001 560c-14.667 48.667 -49.333 85.333 -104 110h195v-110h-91zM30.002 -0.000976562
l-0.000976562 110.001h91c14.667 -48.667 49.334 -85.334 104.001 -110.001h-195z" />
    <glyph glyph-name="Iacute" unicode="&#xcd;" horiz-adv-x="380" 
d="M220 855h90.001c0 -46.667 -12.333 -82.5 -37 -107.5s-59.334 -37.5 -104.001 -37.5h-39v80h25c26 0 43.333 5.66699 52 17s13 27.333 13 48zM325.001 0c-60 0 -107.5 16 -142.5 48s-52.5 79.333 -52.5 142v280c0 33.333 -6.33301 56.666 -19 69.999
s-31.334 20 -56.001 20h-25v110h25c60 0 107.5 -16 142.5 -48s52.5 -79.333 52.5 -142v-280c0 -33.333 6.33301 -56.666 19 -69.999s31.334 -20 56.001 -20h25v-110h-25zM259.001 560c-14.667 48.667 -49.333 85.333 -104 110h195v-110h-91zM30.002 -0.000976562
l-0.000976562 110.001h91c14.667 -48.667 49.334 -85.334 104.001 -110.001h-195z" />
    <glyph glyph-name="Icircumflex" unicode="&#xce;" horiz-adv-x="380" 
d="M288 811c27.333 -18 44.5 -32 51.5 -42s10.5 -24.667 10.5 -44v-15h-90v5c0 6.66699 -1.33301 11.667 -4 15s-9 8.33301 -19 15l-47 31l-47 -31c-10 -6.66699 -16.333 -11.667 -19 -15s-4 -8.33301 -4 -15v-5h-90v15c0 19.333 3.5 34 10.5 44s24.167 24 51.5 42l98 64z
M325 0c-60 0 -107.5 16 -142.5 48s-52.5 79.333 -52.5 142v280c0 33.333 -6.33301 56.666 -19 69.999s-31.334 20 -56.001 20h-25v110h25c60 0 107.5 -16 142.5 -48s52.5 -79.333 52.5 -142v-280c0 -33.333 6.33301 -56.666 19 -69.999s31.334 -20 56.001 -20h25v-110h-25z
M259 560c-14.667 48.667 -49.333 85.333 -104 110h195v-110h-91zM30.001 -0.000976562l-0.000976562 110.001h91c14.667 -48.667 49.334 -85.334 104.001 -110.001h-195z" />
    <glyph glyph-name="Idieresis" unicode="&#xcf;" horiz-adv-x="380" 
d="M150 830v-120h-120v20c0 66.667 33.333 100 100 100h20zM230 710v120h120v-20c0 -66.667 -33.333 -100 -100 -100h-20zM325 0c-60 0 -107.5 16 -142.5 48s-52.5 79.333 -52.5 142v280c0 33.333 -6.33301 56.666 -19 69.999s-31.334 20 -56.001 20h-25v110h25
c60 0 107.5 -16 142.5 -48s52.5 -79.333 52.5 -142v-280c0 -33.333 6.33301 -56.666 19 -69.999s31.334 -20 56.001 -20h25v-110h-25zM259 560c-14.667 48.667 -49.333 85.333 -104 110h195v-110h-91zM30.001 -0.000976562l-0.000976562 110.001h91
c14.667 -48.667 49.334 -85.334 104.001 -110.001h-195z" />
    <glyph glyph-name="Eth" unicode="&#xd0;" 
d="M160 260v-149.998h110c60 0 90 28.333 90 85v280c0 56.667 -30 85 -90 85h-110v-150h-120v260h240c63.333 0 112.5 -17.833 147.5 -53.5s52.5 -82.834 52.5 -141.501v-280c0 -58.667 -17.5 -105.834 -52.5 -141.501s-84.167 -53.5 -147.5 -53.5h-240v260h120zM0 280.002
v110h260v-110h-260z" />
    <glyph glyph-name="Ntilde" unicode="&#xd1;" 
d="M450 855h-80c0 -36.667 -12 -55 -36 -55c-10.667 0 -21.667 2.83301 -33 8.5s-21.5 12 -30.5 19s-21.5 13.333 -37.5 19s-33.333 8.5 -52 8.5c-74 0 -111 -48.333 -111 -145h80c0 36.667 12 55 36 55c12.667 0 26 -4.5 40 -13.5s30.333 -18.167 49 -27.5s40 -14 64 -14
c74 0 111 48.333 111 145zM360 0v35c0 30 -7.66699 56.667 -23 80l-235 354c-41.333 62.667 -62 114.667 -62 156v45h120v-35c0 -30 7.66699 -56.667 23 -80l235 -354c41.333 -62.667 62 -114.667 62 -156v-45h-120zM480 130c-10.667 24 -25.667 51.333 -45 82l-75 113v345
h120v-540zM40 0v540c12.667 -28.667 27.667 -56 45 -82l75 -113v-345h-120z" />
    <glyph glyph-name="Ograve" unicode="&#xd2;" 
d="M230 855c0 -20.667 4.33398 -36.667 13.001 -48s26 -17 52 -17h25v-80h-39c-44.667 0 -79.334 12.5 -104.001 37.5s-37 60.833 -37 107.5h90zM280.001 670c63.333 0 112.5 -17.833 147.5 -53.5s52.5 -82.834 52.5 -141.501v-280c0 -58.667 -17.5 -105.834 -52.5 -141.501
s-84.167 -53.5 -147.5 -53.5h-40c-63.333 0 -112.5 17.833 -147.5 53.5s-52.5 82.834 -52.5 141.501v280c0 58.667 17.5 105.834 52.5 141.501s84.167 53.5 147.5 53.5h40zM360.001 195v280c0 56.667 -30 85 -90 85h-20c-60 0 -90 -28.333 -90 -85v-280
c0 -56.667 30 -85 90 -85h20c60 0 90 28.333 90 85z" />
    <glyph glyph-name="Oacute" unicode="&#xd3;" 
d="M290 855h90.001c0 -46.667 -12.333 -82.5 -37 -107.5s-59.334 -37.5 -104.001 -37.5h-39v80h25c26 0 43.333 5.66699 52 17s13 27.333 13 48zM280.001 670c63.333 0 112.5 -17.833 147.5 -53.5s52.5 -82.834 52.5 -141.501v-280c0 -58.667 -17.5 -105.834 -52.5 -141.501
s-84.167 -53.5 -147.5 -53.5h-40c-63.333 0 -112.5 17.833 -147.5 53.5s-52.5 82.834 -52.5 141.501v280c0 58.667 17.5 105.834 52.5 141.501s84.167 53.5 147.5 53.5h40zM360.001 195v280c0 56.667 -30 85 -90 85h-20c-60 0 -90 -28.333 -90 -85v-280
c0 -56.667 30 -85 90 -85h20c60 0 90 28.333 90 85z" />
    <glyph glyph-name="Ocircumflex" unicode="&#xd4;" 
d="M358 811c27.333 -18 44.5 -32 51.5 -42s10.5 -24.667 10.5 -44v-15h-90v5c0 6.66699 -1.33301 11.667 -4 15s-9 8.33301 -19 15l-47 31l-47 -31c-10 -6.66699 -16.333 -11.667 -19 -15s-4 -8.33301 -4 -15v-5h-90v15c0 19.333 3.5 34 10.5 44s24.167 24 51.5 42l98 64z
M280 670c63.333 0 112.5 -17.833 147.5 -53.5s52.5 -82.834 52.5 -141.501v-280c0 -58.667 -17.5 -105.834 -52.5 -141.501s-84.167 -53.5 -147.5 -53.5h-40c-63.333 0 -112.5 17.833 -147.5 53.5s-52.5 82.834 -52.5 141.501v280c0 58.667 17.5 105.834 52.5 141.501
s84.167 53.5 147.5 53.5h40zM360 195v280c0 56.667 -30 85 -90 85h-20c-60 0 -90 -28.333 -90 -85v-280c0 -56.667 30 -85 90 -85h20c60 0 90 28.333 90 85z" />
    <glyph glyph-name="Otilde" unicode="&#xd5;" 
d="M450 855h-80c0 -36.667 -12 -55 -36 -55c-10.667 0 -21.667 2.83301 -33 8.5s-21.5 12 -30.5 19s-21.5 13.333 -37.5 19s-33.333 8.5 -52 8.5c-74 0 -111 -48.333 -111 -145h80c0 36.667 12 55 36 55c12.667 0 26 -4.5 40 -13.5s30.333 -18.167 49 -27.5s40 -14 64 -14
c74 0 111 48.333 111 145zM280 670c63.333 0 112.5 -17.833 147.5 -53.5s52.5 -82.834 52.5 -141.501v-280c0 -58.667 -17.5 -105.834 -52.5 -141.501s-84.167 -53.5 -147.5 -53.5h-40c-63.333 0 -112.5 17.833 -147.5 53.5s-52.5 82.834 -52.5 141.501v280
c0 58.667 17.5 105.834 52.5 141.501s84.167 53.5 147.5 53.5h40zM360 195v280c0 56.667 -30 85 -90 85h-20c-60 0 -90 -28.333 -90 -85v-280c0 -56.667 30 -85 90 -85h20c60 0 90 28.333 90 85z" />
    <glyph glyph-name="Odieresis" unicode="&#xd6;" 
d="M220 830v-120h-120v20c0 66.667 33.333 100 100 100h20zM300 710v120h120v-20c0 -66.667 -33.333 -100 -100 -100h-20zM280 670c63.333 0 112.5 -17.833 147.5 -53.5s52.5 -82.834 52.5 -141.501v-280c0 -58.667 -17.5 -105.834 -52.5 -141.501
s-84.167 -53.5 -147.5 -53.5h-40c-63.333 0 -112.5 17.833 -147.5 53.5s-52.5 82.834 -52.5 141.501v280c0 58.667 17.5 105.834 52.5 141.501s84.167 53.5 147.5 53.5h40zM360 195v280c0 56.667 -30 85 -90 85h-20c-60 0 -90 -28.333 -90 -85v-280c0 -56.667 30 -85 90 -85
h20c60 0 90 28.333 90 85z" />
    <glyph glyph-name="multiply" unicode="&#xd7;" horiz-adv-x="526" 
d="M486 480l-145 -145l145 -145l-78 -78l-145 145l-145 -145l-78 78l145 145l-145 145l78 78l145 -145l145 145z" />
    <glyph glyph-name="Oslash" unicode="&#xd8;" 
d="M480 670l-37 -72c24.667 -31.333 37 -72.333 37 -123v-280c0 -58.667 -17.5 -105.834 -52.5 -141.501s-84.167 -53.5 -147.5 -53.5h-40c-28 0 -52.333 3.33301 -73 10l52 103c8.66699 -2 19 -3 31 -3h20c60 0 90 28.333 90 85v239l-220 -434h-100l36 72
c-24 33.333 -36 74.333 -36 123v280c0 58.667 17.5 105.834 52.5 141.501s84.167 53.5 147.5 53.5h40c28 0 52.333 -3.33301 73 -10l-53 -103c-9.33301 2 -19.333 3 -30 3h-20c-60 0 -90 -28.333 -90 -85v-239l220 434h100z" />
    <glyph glyph-name="Ugrave" unicode="&#xd9;" 
d="M230 855c0 -20.667 4.33398 -36.667 13.001 -48s26 -17 52 -17h25v-80h-39c-44.667 0 -79.334 12.5 -104.001 37.5s-37 60.833 -37 107.5h90zM360.001 670h120v-475c0 -58.667 -17.5 -105.834 -52.5 -141.501s-84.167 -53.5 -147.5 -53.5h-40
c-63.333 0 -112.5 17.833 -147.5 53.5s-52.5 82.834 -52.5 141.501v475h120v-475c0 -56.667 30 -85 90 -85h20c60 0 90 28.333 90 85v475z" />
    <glyph glyph-name="Uacute" unicode="&#xda;" 
d="M290 855h90.001c0 -46.667 -12.333 -82.5 -37 -107.5s-59.334 -37.5 -104.001 -37.5h-39v80h25c26 0 43.333 5.66699 52 17s13 27.333 13 48zM360.001 670h120v-475c0 -58.667 -17.5 -105.834 -52.5 -141.501s-84.167 -53.5 -147.5 -53.5h-40
c-63.333 0 -112.5 17.833 -147.5 53.5s-52.5 82.834 -52.5 141.501v475h120v-475c0 -56.667 30 -85 90 -85h20c60 0 90 28.333 90 85v475z" />
    <glyph glyph-name="Ucircumflex" unicode="&#xdb;" 
d="M358 811c27.333 -18 44.5 -32 51.5 -42s10.5 -24.667 10.5 -44v-15h-90v5c0 6.66699 -1.33301 11.667 -4 15s-9 8.33301 -19 15l-47 31l-47 -31c-10 -6.66699 -16.333 -11.667 -19 -15s-4 -8.33301 -4 -15v-5h-90v15c0 19.333 3.5 34 10.5 44s24.167 24 51.5 42l98 64z
M360 670h120v-475c0 -58.667 -17.5 -105.834 -52.5 -141.501s-84.167 -53.5 -147.5 -53.5h-40c-63.333 0 -112.5 17.833 -147.5 53.5s-52.5 82.834 -52.5 141.501v475h120v-475c0 -56.667 30 -85 90 -85h20c60 0 90 28.333 90 85v475z" />
    <glyph glyph-name="Udieresis" unicode="&#xdc;" 
d="M220 830v-120h-120v20c0 66.667 33.333 100 100 100h20zM300 710v120h120v-20c0 -66.667 -33.333 -100 -100 -100h-20zM360 670h120v-475c0 -58.667 -17.5 -105.834 -52.5 -141.501s-84.167 -53.5 -147.5 -53.5h-40c-63.333 0 -112.5 17.833 -147.5 53.5
s-52.5 82.834 -52.5 141.501v475h120v-475c0 -56.667 30 -85 90 -85h20c60 0 90 28.333 90 85v475z" />
    <glyph glyph-name="Yacute" unicode="&#xdd;" horiz-adv-x="500" 
d="M280 855h90.001c0 -46.667 -12.333 -82.5 -37 -107.5s-59.334 -37.5 -104.001 -37.5h-39v80h25c26 0 43.333 5.66699 52 17s13 27.333 13 48zM174.001 235l-122 178c-8.66699 12.667 -14.5 24.834 -17.5 36.501s-4.5 28.5 -4.5 50.5v170h120v-185
c0 -6.66699 1.66699 -12.334 5 -17.001l82 -119c-32.667 -43.333 -53.667 -81.333 -63 -114zM190.001 0v205c0 28.667 15.667 65.334 47 110.001l108 153c3.33301 4.66699 5 10.334 5 17.001v185h120v-170c0 -22 -1.5 -38.833 -4.5 -50.5s-8.83301 -23.834 -17.5 -36.501
l-91 -133c-31.333 -46.667 -47 -83.334 -47 -110.001v-170h-120z" />
    <glyph glyph-name="Thorn" unicode="&#xde;" horiz-adv-x="500" 
d="M280 540c63.333 0 112.5 -17.832 147.5 -53.499s52.5 -82.834 52.5 -141.501s-17.5 -105.834 -52.5 -141.501s-84.167 -53.5 -147.5 -53.5h-30c-60 0 -90 -28.333 -90 -85v-65h-120v65c0 58.667 17.5 105.834 52.5 141.501s84.167 53.5 147.5 53.5h30
c60 0 90 28.333 90 85s-30 85 -90 85h-20c-60 0 -90 -28.333 -90 -85v-76c-56.667 -17.333 -96.667 -52 -120 -104v505h120v-142c23.333 8 50 12 80 12h40z" />
    <glyph glyph-name="germandbls" unicode="&#xdf;" 
d="M270 560h-20c-60 0 -90 -28.333 -90 -85v-475h-120v475c0 58.667 17.5 105.834 52.5 141.501s84.167 53.5 147.5 53.5h40c63.333 0 112.5 -17.833 147.5 -53.5s52.5 -82.834 52.5 -141.501c0 -50 -12.667 -91.667 -38 -125c-28 29.333 -65.333 48 -112 56
c20 14.667 30 37.667 30 69c0 56.667 -30 85 -90 85zM280 390c63.333 0 112.5 -17.8311 147.5 -53.498s52.5 -82.834 52.5 -141.501s-17.5 -105.834 -52.5 -141.501s-84.167 -53.5 -147.5 -53.5h-60v110h50c60 0 90 28.333 90 85s-26.667 85 -80 85h-60v110h60z" />
    <glyph glyph-name="agrave" unicode="&#xe0;" 
d="M230 855c0 -20.667 4.33398 -36.667 13.001 -48s26 -17 52 -17h25v-80h-39c-44.667 0 -79.334 12.5 -104.001 37.5s-37 60.833 -37 107.5h90zM40.001 0v174.999c0 58.667 17.5 105.834 52.5 141.501s84.167 53.5 147.5 53.5h40c29.333 0 56 -5.66699 80 -17v52
c0 6.66699 -1.66699 12.334 -5 17.001l-97 136l-93 -136c-3.33301 -4.66699 -5 -10.334 -5 -17.001v-26c-56.667 -17.333 -96.667 -52 -120 -104v115c0 22 1.5 38.833 4.5 50.5s8.83301 23.834 17.5 36.501l93 138c24.667 36.667 59.667 55 105 55c43.333 0 79 -20 107 -60
l91 -133c8.66699 -12.667 14.5 -24.834 17.5 -36.501s4.5 -28.5 4.5 -50.5v-390h-120v175c0 56.667 -30 85 -90 85h-20c-60 0 -90 -28.333 -90 -85v-175h-120z" />
    <glyph glyph-name="aacute" unicode="&#xe1;" 
d="M290 855h90.001c0 -46.667 -12.333 -82.5 -37 -107.5s-59.334 -37.5 -104.001 -37.5h-39v80h25c26 0 43.333 5.66699 52 17s13 27.333 13 48zM40.001 0v174.999c0 58.667 17.5 105.834 52.5 141.501s84.167 53.5 147.5 53.5h40c29.333 0 56 -5.66699 80 -17v52
c0 6.66699 -1.66699 12.334 -5 17.001l-97 136l-93 -136c-3.33301 -4.66699 -5 -10.334 -5 -17.001v-26c-56.667 -17.333 -96.667 -52 -120 -104v115c0 22 1.5 38.833 4.5 50.5s8.83301 23.834 17.5 36.501l93 138c24.667 36.667 59.667 55 105 55c43.333 0 79 -20 107 -60
l91 -133c8.66699 -12.667 14.5 -24.834 17.5 -36.501s4.5 -28.5 4.5 -50.5v-390h-120v175c0 56.667 -30 85 -90 85h-20c-60 0 -90 -28.333 -90 -85v-175h-120z" />
    <glyph glyph-name="acircumflex" unicode="&#xe2;" 
d="M358 811c27.333 -18 44.5 -32 51.5 -42s10.5 -24.667 10.5 -44v-15h-90v5c0 6.66699 -1.33301 11.667 -4 15s-9 8.33301 -19 15l-47 31l-47 -31c-10 -6.66699 -16.333 -11.667 -19 -15s-4 -8.33301 -4 -15v-5h-90v15c0 19.333 3.5 34 10.5 44s24.167 24 51.5 42l98 64z
M40 0v174.999c0 58.667 17.5 105.834 52.5 141.501s84.167 53.5 147.5 53.5h40c29.333 0 56 -5.66699 80 -17v52c0 6.66699 -1.66699 12.334 -5 17.001l-97 136l-93 -136c-3.33301 -4.66699 -5 -10.334 -5 -17.001v-26c-56.667 -17.333 -96.667 -52 -120 -104v115
c0 22 1.5 38.833 4.5 50.5s8.83301 23.834 17.5 36.501l93 138c24.667 36.667 59.667 55 105 55c43.333 0 79 -20 107 -60l91 -133c8.66699 -12.667 14.5 -24.834 17.5 -36.501s4.5 -28.5 4.5 -50.5v-390h-120v175c0 56.667 -30 85 -90 85h-20c-60 0 -90 -28.333 -90 -85
v-175h-120z" />
    <glyph glyph-name="atilde" unicode="&#xe3;" 
d="M450 855h-80c0 -36.667 -12 -55 -36 -55c-10.667 0 -21.667 2.83301 -33 8.5s-21.5 12 -30.5 19s-21.5 13.333 -37.5 19s-33.333 8.5 -52 8.5c-74 0 -111 -48.333 -111 -145h80c0 36.667 12 55 36 55c12.667 0 26 -4.5 40 -13.5s30.333 -18.167 49 -27.5s40 -14 64 -14
c74 0 111 48.333 111 145zM40 0v174.999c0 58.667 17.5 105.834 52.5 141.501s84.167 53.5 147.5 53.5h40c29.333 0 56 -5.66699 80 -17v52c0 6.66699 -1.66699 12.334 -5 17.001l-97 136l-93 -136c-3.33301 -4.66699 -5 -10.334 -5 -17.001v-26
c-56.667 -17.333 -96.667 -52 -120 -104v115c0 22 1.5 38.833 4.5 50.5s8.83301 23.834 17.5 36.501l93 138c24.667 36.667 59.667 55 105 55c43.333 0 79 -20 107 -60l91 -133c8.66699 -12.667 14.5 -24.834 17.5 -36.501s4.5 -28.5 4.5 -50.5v-390h-120v175
c0 56.667 -30 85 -90 85h-20c-60 0 -90 -28.333 -90 -85v-175h-120z" />
    <glyph glyph-name="adieresis" unicode="&#xe4;" 
d="M220 830v-120h-120v20c0 66.667 33.333 100 100 100h20zM300 710v120h120v-20c0 -66.667 -33.333 -100 -100 -100h-20zM40 0v174.999c0 58.667 17.5 105.834 52.5 141.501s84.167 53.5 147.5 53.5h40c29.333 0 56 -5.66699 80 -17v52
c0 6.66699 -1.66699 12.334 -5 17.001l-97 136l-93 -136c-3.33301 -4.66699 -5 -10.334 -5 -17.001v-26c-56.667 -17.333 -96.667 -52 -120 -104v115c0 22 1.5 38.833 4.5 50.5s8.83301 23.834 17.5 36.501l93 138c24.667 36.667 59.667 55 105 55c43.333 0 79 -20 107 -60
l91 -133c8.66699 -12.667 14.5 -24.834 17.5 -36.501s4.5 -28.5 4.5 -50.5v-390h-120v175c0 56.667 -30 85 -90 85h-20c-60 0 -90 -28.333 -90 -85v-175h-120z" />
    <glyph glyph-name="aring" unicode="&#xe5;" 
d="M266 950c82.667 0 124 -40 124 -120s-41.333 -120 -124 -120h-12c-82.667 0 -124 40 -124 120s41.333 120 124 120h12zM263 786c28.667 0 43 14.667 43 44s-14.333 44 -43 44h-6c-28.667 0 -43 -14.667 -43 -44s14.333 -44 43 -44h6zM40 0v174.999
c0 58.667 17.5 105.834 52.5 141.501s84.167 53.5 147.5 53.5h40c29.333 0 56 -5.66699 80 -17v52c0 6.66699 -1.66699 12.334 -5 17.001l-97 136l-93 -136c-3.33301 -4.66699 -5 -10.334 -5 -17.001v-26c-56.667 -17.333 -96.667 -52 -120 -104v115
c0 22 1.5 38.833 4.5 50.5s8.83301 23.834 17.5 36.501l93 138c24.667 36.667 59.667 55 105 55c43.333 0 79 -20 107 -60l91 -133c8.66699 -12.667 14.5 -24.834 17.5 -36.501s4.5 -28.5 4.5 -50.5v-390h-120v175c0 56.667 -30 85 -90 85h-20c-60 0 -90 -28.333 -90 -85
v-175h-120z" />
    <glyph glyph-name="ae" unicode="&#xe6;" horiz-adv-x="820" 
d="M160 379c-56.667 -17.333 -96.666 -51.999 -119.999 -103.999v115c0 22 1.5 38.833 4.5 50.5s8.83301 23.834 17.5 36.501l93 138c24.667 36.667 59.667 55 105 55c43.333 0 79 -20 107 -60l19 -28c33.333 58.667 91.333 88 174 88h40
c63.333 0 112.5 -17.833 147.5 -53.5s52.5 -82.834 52.5 -141.501h-120c0 56.667 -30 85 -90 85h-20c-60 0 -90 -28.333 -90 -85v-20c0 -56.667 30 -85 90 -85h110v-110h-120c-50.667 0 -92.334 11.333 -125.001 34s-55 54.667 -67 96c-5.33301 16.667 -13 32 -23 46
l-87 122l-93 -136c-3.33301 -4.66699 -5 -10.334 -5 -17.001v-26zM480.001 195.001c0 -56.667 30 -85.001 90 -85.001h230v-110h-240c-58.667 -0 -106.667 16.833 -144 50.5s-56 75.167 -56 124.5c0 56.667 -30 85 -90 85h-20c-60 0 -90 -28.333 -90 -85v-175h-120v175
c0 58.667 17.5 105.834 52.5 141.501s84.167 53.5 147.5 53.5h40c29.333 0 56 -5.66699 80 -17c22.667 -50.667 62.667 -84.667 120 -102v-56z" />
    <glyph glyph-name="ccedilla" unicode="&#xe7;" horiz-adv-x="500" 
d="M160 195c0 -56.667 30 -85.001 90 -85.001h230v-110h-150v-39c0 -43.333 -13.667 -76 -41 -98s-65.333 -33 -114 -33v80c20.667 0 36.667 4.33301 48 13s17 26 17 52v25c-63.333 0 -112.5 17.833 -147.5 53.5s-52.5 82.834 -52.5 141.501v280
c0 58.667 17.5 105.834 52.5 141.501s84.167 53.5 147.5 53.5h40c63.333 0 112.5 -17.833 147.5 -53.5s52.5 -82.834 52.5 -141.501h-120c0 56.667 -30 85 -90 85h-20c-60 0 -90 -28.333 -90 -85v-280z" />
    <glyph glyph-name="egrave" unicode="&#xe8;" horiz-adv-x="500" 
d="M230 855c0 -20.667 4.33398 -36.667 13.001 -48s26 -17 52 -17h25v-80h-39c-44.667 0 -79.334 12.5 -104.001 37.5s-37 60.833 -37 107.5h90zM240.001 260c-63.333 0 -112.5 17.832 -147.5 53.499s-52.5 82.834 -52.5 141.501v20c0 58.667 17.5 105.834 52.5 141.501
s84.167 53.5 147.5 53.5h40c63.333 0 112.5 -17.833 147.5 -53.5s52.5 -82.834 52.5 -141.501h-120c0 56.667 -30 85 -90 85h-20c-60 0 -90 -28.333 -90 -85v-20c0 -56.667 30 -85 90 -85h110v-110h-120zM160.001 194.999c0 -56.667 30 -85.001 90 -85.001h230v-110h-240
c-63.333 0 -112.5 17.833 -147.5 53.5s-52.5 82.834 -52.5 141.501v160c23.333 -52 63.333 -86.667 120 -104v-56z" />
    <glyph glyph-name="eacute" unicode="&#xe9;" horiz-adv-x="500" 
d="M290 855h90.001c0 -46.667 -12.333 -82.5 -37 -107.5s-59.334 -37.5 -104.001 -37.5h-39v80h25c26 0 43.333 5.66699 52 17s13 27.333 13 48zM240.001 260c-63.333 0 -112.5 17.832 -147.5 53.499s-52.5 82.834 -52.5 141.501v20c0 58.667 17.5 105.834 52.5 141.501
s84.167 53.5 147.5 53.5h40c63.333 0 112.5 -17.833 147.5 -53.5s52.5 -82.834 52.5 -141.501h-120c0 56.667 -30 85 -90 85h-20c-60 0 -90 -28.333 -90 -85v-20c0 -56.667 30 -85 90 -85h110v-110h-120zM160.001 194.999c0 -56.667 30 -85.001 90 -85.001h230v-110h-240
c-63.333 0 -112.5 17.833 -147.5 53.5s-52.5 82.834 -52.5 141.501v160c23.333 -52 63.333 -86.667 120 -104v-56z" />
    <glyph glyph-name="ecircumflex" unicode="&#xea;" horiz-adv-x="500" 
d="M358 811c27.333 -18 44.5 -32 51.5 -42s10.5 -24.667 10.5 -44v-15h-90v5c0 6.66699 -1.33301 11.667 -4 15s-9 8.33301 -19 15l-47 31l-47 -31c-10 -6.66699 -16.333 -11.667 -19 -15s-4 -8.33301 -4 -15v-5h-90v15c0 19.333 3.5 34 10.5 44s24.167 24 51.5 42l98 64z
M240 260c-63.333 0 -112.5 17.832 -147.5 53.499s-52.5 82.834 -52.5 141.501v20c0 58.667 17.5 105.834 52.5 141.501s84.167 53.5 147.5 53.5h40c63.333 0 112.5 -17.833 147.5 -53.5s52.5 -82.834 52.5 -141.501h-120c0 56.667 -30 85 -90 85h-20
c-60 0 -90 -28.333 -90 -85v-20c0 -56.667 30 -85 90 -85h110v-110h-120zM160 194.999c0 -56.667 30 -85.001 90 -85.001h230v-110h-240c-63.333 0 -112.5 17.833 -147.5 53.5s-52.5 82.834 -52.5 141.501v160c23.333 -52 63.333 -86.667 120 -104v-56z" />
    <glyph glyph-name="edieresis" unicode="&#xeb;" horiz-adv-x="500" 
d="M220 830v-120h-120v20c0 66.667 33.333 100 100 100h20zM300 710v120h120v-20c0 -66.667 -33.333 -100 -100 -100h-20zM240 260c-63.333 0 -112.5 17.832 -147.5 53.499s-52.5 82.834 -52.5 141.501v20c0 58.667 17.5 105.834 52.5 141.501s84.167 53.5 147.5 53.5h40
c63.333 0 112.5 -17.833 147.5 -53.5s52.5 -82.834 52.5 -141.501h-120c0 56.667 -30 85 -90 85h-20c-60 0 -90 -28.333 -90 -85v-20c0 -56.667 30 -85 90 -85h110v-110h-120zM160 194.999c0 -56.667 30 -85.001 90 -85.001h230v-110h-240
c-63.333 0 -112.5 17.833 -147.5 53.5s-52.5 82.834 -52.5 141.501v160c23.333 -52 63.333 -86.667 120 -104v-56z" />
    <glyph glyph-name="igrave" unicode="&#xec;" horiz-adv-x="380" 
d="M160 855c0 -20.667 4.33398 -36.667 13.001 -48s26 -17 52 -17h25v-80h-39c-44.667 0 -79.334 12.5 -104.001 37.5s-37 60.833 -37 107.5h90zM325.001 0c-60 0 -107.5 16 -142.5 48s-52.5 79.333 -52.5 142v280c0 33.333 -6.33301 56.666 -19 69.999
s-31.334 20 -56.001 20h-25v110h25c60 0 107.5 -16 142.5 -48s52.5 -79.333 52.5 -142v-280c0 -33.333 6.33301 -56.666 19 -69.999s31.334 -20 56.001 -20h25v-110h-25zM259.001 560c-14.667 48.667 -49.333 85.333 -104 110h195v-110h-91zM30.002 -0.000976562
l-0.000976562 110.001h91c14.667 -48.667 49.334 -85.334 104.001 -110.001h-195z" />
    <glyph glyph-name="iacute" unicode="&#xed;" horiz-adv-x="380" 
d="M220 855h90.001c0 -46.667 -12.333 -82.5 -37 -107.5s-59.334 -37.5 -104.001 -37.5h-39v80h25c26 0 43.333 5.66699 52 17s13 27.333 13 48zM325.001 0c-60 0 -107.5 16 -142.5 48s-52.5 79.333 -52.5 142v280c0 33.333 -6.33301 56.666 -19 69.999
s-31.334 20 -56.001 20h-25v110h25c60 0 107.5 -16 142.5 -48s52.5 -79.333 52.5 -142v-280c0 -33.333 6.33301 -56.666 19 -69.999s31.334 -20 56.001 -20h25v-110h-25zM259.001 560c-14.667 48.667 -49.333 85.333 -104 110h195v-110h-91zM30.002 -0.000976562
l-0.000976562 110.001h91c14.667 -48.667 49.334 -85.334 104.001 -110.001h-195z" />
    <glyph glyph-name="icircumflex" unicode="&#xee;" horiz-adv-x="380" 
d="M288 811c27.333 -18 44.5 -32 51.5 -42s10.5 -24.667 10.5 -44v-15h-90v5c0 6.66699 -1.33301 11.667 -4 15s-9 8.33301 -19 15l-47 31l-47 -31c-10 -6.66699 -16.333 -11.667 -19 -15s-4 -8.33301 -4 -15v-5h-90v15c0 19.333 3.5 34 10.5 44s24.167 24 51.5 42l98 64z
M325 0c-60 0 -107.5 16 -142.5 48s-52.5 79.333 -52.5 142v280c0 33.333 -6.33301 56.666 -19 69.999s-31.334 20 -56.001 20h-25v110h25c60 0 107.5 -16 142.5 -48s52.5 -79.333 52.5 -142v-280c0 -33.333 6.33301 -56.666 19 -69.999s31.334 -20 56.001 -20h25v-110h-25z
M259 560c-14.667 48.667 -49.333 85.333 -104 110h195v-110h-91zM30.001 -0.000976562l-0.000976562 110.001h91c14.667 -48.667 49.334 -85.334 104.001 -110.001h-195z" />
    <glyph glyph-name="idieresis" unicode="&#xef;" horiz-adv-x="380" 
d="M150 830v-120h-120v20c0 66.667 33.333 100 100 100h20zM230 710v120h120v-20c0 -66.667 -33.333 -100 -100 -100h-20zM325 0c-60 0 -107.5 16 -142.5 48s-52.5 79.333 -52.5 142v280c0 33.333 -6.33301 56.666 -19 69.999s-31.334 20 -56.001 20h-25v110h25
c60 0 107.5 -16 142.5 -48s52.5 -79.333 52.5 -142v-280c0 -33.333 6.33301 -56.666 19 -69.999s31.334 -20 56.001 -20h25v-110h-25zM259 560c-14.667 48.667 -49.333 85.333 -104 110h195v-110h-91zM30.001 -0.000976562l-0.000976562 110.001h91
c14.667 -48.667 49.334 -85.334 104.001 -110.001h-195z" />
    <glyph glyph-name="eth" unicode="&#xf0;" 
d="M160 260v-149.998h110c60 0 90 28.333 90 85v280c0 56.667 -30 85 -90 85h-110v-150h-120v260h240c63.333 0 112.5 -17.833 147.5 -53.5s52.5 -82.834 52.5 -141.501v-280c0 -58.667 -17.5 -105.834 -52.5 -141.501s-84.167 -53.5 -147.5 -53.5h-240v260h120zM0 280.002
v110h260v-110h-260z" />
    <glyph glyph-name="ntilde" unicode="&#xf1;" 
d="M450 855h-80c0 -36.667 -12 -55 -36 -55c-10.667 0 -21.667 2.83301 -33 8.5s-21.5 12 -30.5 19s-21.5 13.333 -37.5 19s-33.333 8.5 -52 8.5c-74 0 -111 -48.333 -111 -145h80c0 36.667 12 55 36 55c12.667 0 26 -4.5 40 -13.5s30.333 -18.167 49 -27.5s40 -14 64 -14
c74 0 111 48.333 111 145zM360 0v35c0 30 -7.66699 56.667 -23 80l-235 354c-41.333 62.667 -62 114.667 -62 156v45h120v-35c0 -30 7.66699 -56.667 23 -80l235 -354c41.333 -62.667 62 -114.667 62 -156v-45h-120zM480 130c-10.667 24 -25.667 51.333 -45 82l-75 113v345
h120v-540zM40 0v540c12.667 -28.667 27.667 -56 45 -82l75 -113v-345h-120z" />
    <glyph glyph-name="ograve" unicode="&#xf2;" 
d="M230 855c0 -20.667 4.33398 -36.667 13.001 -48s26 -17 52 -17h25v-80h-39c-44.667 0 -79.334 12.5 -104.001 37.5s-37 60.833 -37 107.5h90zM280.001 670c63.333 0 112.5 -17.833 147.5 -53.5s52.5 -82.834 52.5 -141.501v-280c0 -58.667 -17.5 -105.834 -52.5 -141.501
s-84.167 -53.5 -147.5 -53.5h-40c-63.333 0 -112.5 17.833 -147.5 53.5s-52.5 82.834 -52.5 141.501v280c0 58.667 17.5 105.834 52.5 141.501s84.167 53.5 147.5 53.5h40zM360.001 195v280c0 56.667 -30 85 -90 85h-20c-60 0 -90 -28.333 -90 -85v-280
c0 -56.667 30 -85 90 -85h20c60 0 90 28.333 90 85z" />
    <glyph glyph-name="oacute" unicode="&#xf3;" 
d="M290 855h90.001c0 -46.667 -12.333 -82.5 -37 -107.5s-59.334 -37.5 -104.001 -37.5h-39v80h25c26 0 43.333 5.66699 52 17s13 27.333 13 48zM280.001 670c63.333 0 112.5 -17.833 147.5 -53.5s52.5 -82.834 52.5 -141.501v-280c0 -58.667 -17.5 -105.834 -52.5 -141.501
s-84.167 -53.5 -147.5 -53.5h-40c-63.333 0 -112.5 17.833 -147.5 53.5s-52.5 82.834 -52.5 141.501v280c0 58.667 17.5 105.834 52.5 141.501s84.167 53.5 147.5 53.5h40zM360.001 195v280c0 56.667 -30 85 -90 85h-20c-60 0 -90 -28.333 -90 -85v-280
c0 -56.667 30 -85 90 -85h20c60 0 90 28.333 90 85z" />
    <glyph glyph-name="ocircumflex" unicode="&#xf4;" 
d="M358 811c27.333 -18 44.5 -32 51.5 -42s10.5 -24.667 10.5 -44v-15h-90v5c0 6.66699 -1.33301 11.667 -4 15s-9 8.33301 -19 15l-47 31l-47 -31c-10 -6.66699 -16.333 -11.667 -19 -15s-4 -8.33301 -4 -15v-5h-90v15c0 19.333 3.5 34 10.5 44s24.167 24 51.5 42l98 64z
M280 670c63.333 0 112.5 -17.833 147.5 -53.5s52.5 -82.834 52.5 -141.501v-280c0 -58.667 -17.5 -105.834 -52.5 -141.501s-84.167 -53.5 -147.5 -53.5h-40c-63.333 0 -112.5 17.833 -147.5 53.5s-52.5 82.834 -52.5 141.501v280c0 58.667 17.5 105.834 52.5 141.501
s84.167 53.5 147.5 53.5h40zM360 195v280c0 56.667 -30 85 -90 85h-20c-60 0 -90 -28.333 -90 -85v-280c0 -56.667 30 -85 90 -85h20c60 0 90 28.333 90 85z" />
    <glyph glyph-name="otilde" unicode="&#xf5;" 
d="M450 855h-80c0 -36.667 -12 -55 -36 -55c-10.667 0 -21.667 2.83301 -33 8.5s-21.5 12 -30.5 19s-21.5 13.333 -37.5 19s-33.333 8.5 -52 8.5c-74 0 -111 -48.333 -111 -145h80c0 36.667 12 55 36 55c12.667 0 26 -4.5 40 -13.5s30.333 -18.167 49 -27.5s40 -14 64 -14
c74 0 111 48.333 111 145zM280 670c63.333 0 112.5 -17.833 147.5 -53.5s52.5 -82.834 52.5 -141.501v-280c0 -58.667 -17.5 -105.834 -52.5 -141.501s-84.167 -53.5 -147.5 -53.5h-40c-63.333 0 -112.5 17.833 -147.5 53.5s-52.5 82.834 -52.5 141.501v280
c0 58.667 17.5 105.834 52.5 141.501s84.167 53.5 147.5 53.5h40zM360 195v280c0 56.667 -30 85 -90 85h-20c-60 0 -90 -28.333 -90 -85v-280c0 -56.667 30 -85 90 -85h20c60 0 90 28.333 90 85z" />
    <glyph glyph-name="odieresis" unicode="&#xf6;" 
d="M220 830v-120h-120v20c0 66.667 33.333 100 100 100h20zM300 710v120h120v-20c0 -66.667 -33.333 -100 -100 -100h-20zM280 670c63.333 0 112.5 -17.833 147.5 -53.5s52.5 -82.834 52.5 -141.501v-280c0 -58.667 -17.5 -105.834 -52.5 -141.501
s-84.167 -53.5 -147.5 -53.5h-40c-63.333 0 -112.5 17.833 -147.5 53.5s-52.5 82.834 -52.5 141.501v280c0 58.667 17.5 105.834 52.5 141.501s84.167 53.5 147.5 53.5h40zM360 195v280c0 56.667 -30 85 -90 85h-20c-60 0 -90 -28.333 -90 -85v-280c0 -56.667 30 -85 90 -85
h20c60 0 90 28.333 90 85z" />
    <glyph glyph-name="divide" unicode="&#xf7;" 
d="M200 465v120h120v-20c0 -66.667 -33.333 -100 -100 -100h-20zM40 280v110h440v-110h-440zM200 85v120h120v-20c0 -66.667 -33.333 -100 -100 -100h-20z" />
    <glyph glyph-name="oslash" unicode="&#xf8;" 
d="M480 670l-37 -72c24.667 -31.333 37 -72.333 37 -123v-280c0 -58.667 -17.5 -105.834 -52.5 -141.501s-84.167 -53.5 -147.5 -53.5h-40c-28 0 -52.333 3.33301 -73 10l52 103c8.66699 -2 19 -3 31 -3h20c60 0 90 28.333 90 85v239l-220 -434h-100l36 72
c-24 33.333 -36 74.333 -36 123v280c0 58.667 17.5 105.834 52.5 141.501s84.167 53.5 147.5 53.5h40c28 0 52.333 -3.33301 73 -10l-53 -103c-9.33301 2 -19.333 3 -30 3h-20c-60 0 -90 -28.333 -90 -85v-239l220 434h100z" />
    <glyph glyph-name="ugrave" unicode="&#xf9;" 
d="M230 855c0 -20.667 4.33398 -36.667 13.001 -48s26 -17 52 -17h25v-80h-39c-44.667 0 -79.334 12.5 -104.001 37.5s-37 60.833 -37 107.5h90zM360.001 670h120v-475c0 -58.667 -17.5 -105.834 -52.5 -141.501s-84.167 -53.5 -147.5 -53.5h-40
c-63.333 0 -112.5 17.833 -147.5 53.5s-52.5 82.834 -52.5 141.501v475h120v-475c0 -56.667 30 -85 90 -85h20c60 0 90 28.333 90 85v475z" />
    <glyph glyph-name="uacute" unicode="&#xfa;" 
d="M290 855h90.001c0 -46.667 -12.333 -82.5 -37 -107.5s-59.334 -37.5 -104.001 -37.5h-39v80h25c26 0 43.333 5.66699 52 17s13 27.333 13 48zM360.001 670h120v-475c0 -58.667 -17.5 -105.834 -52.5 -141.501s-84.167 -53.5 -147.5 -53.5h-40
c-63.333 0 -112.5 17.833 -147.5 53.5s-52.5 82.834 -52.5 141.501v475h120v-475c0 -56.667 30 -85 90 -85h20c60 0 90 28.333 90 85v475z" />
    <glyph glyph-name="ucircumflex" unicode="&#xfb;" 
d="M358 811c27.333 -18 44.5 -32 51.5 -42s10.5 -24.667 10.5 -44v-15h-90v5c0 6.66699 -1.33301 11.667 -4 15s-9 8.33301 -19 15l-47 31l-47 -31c-10 -6.66699 -16.333 -11.667 -19 -15s-4 -8.33301 -4 -15v-5h-90v15c0 19.333 3.5 34 10.5 44s24.167 24 51.5 42l98 64z
M360 670h120v-475c0 -58.667 -17.5 -105.834 -52.5 -141.501s-84.167 -53.5 -147.5 -53.5h-40c-63.333 0 -112.5 17.833 -147.5 53.5s-52.5 82.834 -52.5 141.501v475h120v-475c0 -56.667 30 -85 90 -85h20c60 0 90 28.333 90 85v475z" />
    <glyph glyph-name="udieresis" unicode="&#xfc;" 
d="M220 830v-120h-120v20c0 66.667 33.333 100 100 100h20zM300 710v120h120v-20c0 -66.667 -33.333 -100 -100 -100h-20zM360 670h120v-475c0 -58.667 -17.5 -105.834 -52.5 -141.501s-84.167 -53.5 -147.5 -53.5h-40c-63.333 0 -112.5 17.833 -147.5 53.5
s-52.5 82.834 -52.5 141.501v475h120v-475c0 -56.667 30 -85 90 -85h20c60 0 90 28.333 90 85v475z" />
    <glyph glyph-name="yacute" unicode="&#xfd;" horiz-adv-x="500" 
d="M280 855h90.001c0 -46.667 -12.333 -82.5 -37 -107.5s-59.334 -37.5 -104.001 -37.5h-39v80h25c26 0 43.333 5.66699 52 17s13 27.333 13 48zM174.001 235l-122 178c-8.66699 12.667 -14.5 24.834 -17.5 36.501s-4.5 28.5 -4.5 50.5v170h120v-185
c0 -6.66699 1.66699 -12.334 5 -17.001l82 -119c-32.667 -43.333 -53.667 -81.333 -63 -114zM190.001 0v205c0 28.667 15.667 65.334 47 110.001l108 153c3.33301 4.66699 5 10.334 5 17.001v185h120v-170c0 -22 -1.5 -38.833 -4.5 -50.5s-8.83301 -23.834 -17.5 -36.501
l-91 -133c-31.333 -46.667 -47 -83.334 -47 -110.001v-170h-120z" />
    <glyph glyph-name="thorn" unicode="&#xfe;" horiz-adv-x="500" 
d="M280 540c63.333 0 112.5 -17.832 147.5 -53.499s52.5 -82.834 52.5 -141.501s-17.5 -105.834 -52.5 -141.501s-84.167 -53.5 -147.5 -53.5h-30c-60 0 -90 -28.333 -90 -85v-65h-120v65c0 58.667 17.5 105.834 52.5 141.501s84.167 53.5 147.5 53.5h30
c60 0 90 28.333 90 85s-30 85 -90 85h-20c-60 0 -90 -28.333 -90 -85v-76c-56.667 -17.333 -96.667 -52 -120 -104v505h120v-142c23.333 8 50 12 80 12h40z" />
    <glyph glyph-name="ydieresis" unicode="&#xff;" horiz-adv-x="500" 
d="M210 830v-120h-120v20c0 66.667 33.333 100 100 100h20zM290 710v120h120v-20c0 -66.667 -33.333 -100 -100 -100h-20zM174 235l-122 178c-8.66699 12.667 -14.5 24.834 -17.5 36.501s-4.5 28.5 -4.5 50.5v170h120v-185c0 -6.66699 1.66699 -12.334 5 -17.001l82 -119
c-32.667 -43.333 -53.667 -81.333 -63 -114zM190 0v205c0 28.667 15.667 65.334 47 110.001l108 153c3.33301 4.66699 5 10.334 5 17.001v185h120v-170c0 -22 -1.5 -38.833 -4.5 -50.5s-8.83301 -23.834 -17.5 -36.501l-91 -133c-31.333 -46.667 -47 -83.334 -47 -110.001
v-170h-120z" />
    <glyph glyph-name="Amacron" unicode="&#x100;" 
d="M110 710v90h300v-90h-300zM40 0v174.999c0 58.667 17.5 105.834 52.5 141.501s84.167 53.5 147.5 53.5h40c29.333 0 56 -5.66699 80 -17v52c0 6.66699 -1.66699 12.334 -5 17.001l-97 136l-93 -136c-3.33301 -4.66699 -5 -10.334 -5 -17.001v-26
c-56.667 -17.333 -96.667 -52 -120 -104v115c0 22 1.5 38.833 4.5 50.5s8.83301 23.834 17.5 36.501l93 138c24.667 36.667 59.667 55 105 55c43.333 0 79 -20 107 -60l91 -133c8.66699 -12.667 14.5 -24.834 17.5 -36.501s4.5 -28.5 4.5 -50.5v-390h-120v175
c0 56.667 -30 85 -90 85h-20c-60 0 -90 -28.333 -90 -85v-175h-120z" />
    <glyph glyph-name="amacron" unicode="&#x101;" 
d="M110 710v90h300v-90h-300zM40 0v174.999c0 58.667 17.5 105.834 52.5 141.501s84.167 53.5 147.5 53.5h40c29.333 0 56 -5.66699 80 -17v52c0 6.66699 -1.66699 12.334 -5 17.001l-97 136l-93 -136c-3.33301 -4.66699 -5 -10.334 -5 -17.001v-26
c-56.667 -17.333 -96.667 -52 -120 -104v115c0 22 1.5 38.833 4.5 50.5s8.83301 23.834 17.5 36.501l93 138c24.667 36.667 59.667 55 105 55c43.333 0 79 -20 107 -60l91 -133c8.66699 -12.667 14.5 -24.834 17.5 -36.501s4.5 -28.5 4.5 -50.5v-390h-120v175
c0 56.667 -30 85 -90 85h-20c-60 0 -90 -28.333 -90 -85v-175h-120z" />
    <glyph glyph-name="Abreve" unicode="&#x102;" 
d="M330 855h90.002c0 -46.667 -12.333 -82.5 -37 -107.5s-59.334 -37.5 -104.001 -37.5h-38c-44.667 0 -79.334 12.5 -104.001 37.5s-37 60.833 -37 107.5h90c0 -20.667 4.33301 -36.667 13 -48s26 -17 52 -17h10c26 0 43.333 5.66699 52 17s13 27.333 13 48zM40.002 0
v174.999c0 58.667 17.5 105.834 52.5 141.501s84.167 53.5 147.5 53.5h40c29.333 0 56 -5.66699 80 -17v52c0 6.66699 -1.66699 12.334 -5 17.001l-97 136l-93 -136c-3.33301 -4.66699 -5 -10.334 -5 -17.001v-26c-56.667 -17.333 -96.667 -52 -120 -104v115
c0 22 1.5 38.833 4.5 50.5s8.83301 23.834 17.5 36.501l93 138c24.667 36.667 59.667 55 105 55c43.333 0 79 -20 107 -60l91 -133c8.66699 -12.667 14.5 -24.834 17.5 -36.501s4.5 -28.5 4.5 -50.5v-390h-120v175c0 56.667 -30 85 -90 85h-20c-60 0 -90 -28.333 -90 -85
v-175h-120z" />
    <glyph glyph-name="abreve" unicode="&#x103;" 
d="M330 855h90.002c0 -46.667 -12.333 -82.5 -37 -107.5s-59.334 -37.5 -104.001 -37.5h-38c-44.667 0 -79.334 12.5 -104.001 37.5s-37 60.833 -37 107.5h90c0 -20.667 4.33301 -36.667 13 -48s26 -17 52 -17h10c26 0 43.333 5.66699 52 17s13 27.333 13 48zM40.002 0
v174.999c0 58.667 17.5 105.834 52.5 141.501s84.167 53.5 147.5 53.5h40c29.333 0 56 -5.66699 80 -17v52c0 6.66699 -1.66699 12.334 -5 17.001l-97 136l-93 -136c-3.33301 -4.66699 -5 -10.334 -5 -17.001v-26c-56.667 -17.333 -96.667 -52 -120 -104v115
c0 22 1.5 38.833 4.5 50.5s8.83301 23.834 17.5 36.501l93 138c24.667 36.667 59.667 55 105 55c43.333 0 79 -20 107 -60l91 -133c8.66699 -12.667 14.5 -24.834 17.5 -36.501s4.5 -28.5 4.5 -50.5v-390h-120v175c0 56.667 -30 85 -90 85h-20c-60 0 -90 -28.333 -90 -85
v-175h-120z" />
    <glyph glyph-name="Aogonek" unicode="&#x104;" 
d="M458 477c8.66699 -12.667 14.5 -24.8359 17.5 -36.5029s4.5 -28.5 4.5 -50.5v-390c-21.333 0 -37.5 -2.5 -48.5 -7.5s-16.5 -15.833 -16.5 -32.5v-10c0 -16.667 5.5 -27.5 16.5 -32.5s27.167 -7.5 48.5 -7.5v-80c-48.667 0 -86.667 8.5 -114 25.5s-41 42.167 -41 75.5v18
c0 30.667 11.667 54.334 35 71.001v155c0 56.667 -30 85 -90 85h-20c-60 0 -90 -28.333 -90 -85v-175h-120v175c0 58.667 17.5 105.834 52.5 141.501s84.167 53.5 147.5 53.5h40c29.333 0 56 -5.66699 80 -17v52c0 6.66699 -1.66699 12.334 -5 17.001l-97 136l-93 -136
c-3.33301 -4.66699 -5 -10.334 -5 -17.001v-26c-56.667 -17.333 -96.667 -52 -120 -104v115c0 22 1.5 38.833 4.5 50.5s8.83301 23.834 17.5 36.501l93 138c24.667 36.667 59.667 55 105 55c43.333 0 79 -20 107 -60z" />
    <glyph glyph-name="aogonek" unicode="&#x105;" 
d="M458 477c8.66699 -12.667 14.5 -24.8359 17.5 -36.5029s4.5 -28.5 4.5 -50.5v-390c-21.333 0 -37.5 -2.5 -48.5 -7.5s-16.5 -15.833 -16.5 -32.5v-10c0 -16.667 5.5 -27.5 16.5 -32.5s27.167 -7.5 48.5 -7.5v-80c-48.667 0 -86.667 8.5 -114 25.5s-41 42.167 -41 75.5v18
c0 30.667 11.667 54.334 35 71.001v155c0 56.667 -30 85 -90 85h-20c-60 0 -90 -28.333 -90 -85v-175h-120v175c0 58.667 17.5 105.834 52.5 141.501s84.167 53.5 147.5 53.5h40c29.333 0 56 -5.66699 80 -17v52c0 6.66699 -1.66699 12.334 -5 17.001l-97 136l-93 -136
c-3.33301 -4.66699 -5 -10.334 -5 -17.001v-26c-56.667 -17.333 -96.667 -52 -120 -104v115c0 22 1.5 38.833 4.5 50.5s8.83301 23.834 17.5 36.501l93 138c24.667 36.667 59.667 55 105 55c43.333 0 79 -20 107 -60z" />
    <glyph glyph-name="Cacute" unicode="&#x106;" horiz-adv-x="500" 
d="M290 855h90.001c0 -46.667 -12.333 -82.5 -37 -107.5s-59.334 -37.5 -104.001 -37.5h-39v80h25c26 0 43.333 5.66699 52 17s13 27.333 13 48zM160.001 195c0 -56.667 30 -85.001 90 -85.001h230v-110h-240c-63.333 0 -112.5 17.833 -147.5 53.5
s-52.5 82.834 -52.5 141.501v280c0 58.667 17.5 105.834 52.5 141.501s84.167 53.5 147.5 53.5h40c63.333 0 112.5 -17.833 147.5 -53.5s52.5 -82.834 52.5 -141.501h-120c0 56.667 -30 85 -90 85h-20c-60 0 -90 -28.333 -90 -85v-280z" />
    <glyph glyph-name="cacute" unicode="&#x107;" horiz-adv-x="500" 
d="M290 855h90.001c0 -46.667 -12.333 -82.5 -37 -107.5s-59.334 -37.5 -104.001 -37.5h-39v80h25c26 0 43.333 5.66699 52 17s13 27.333 13 48zM160.001 195c0 -56.667 30 -85.001 90 -85.001h230v-110h-240c-63.333 0 -112.5 17.833 -147.5 53.5
s-52.5 82.834 -52.5 141.501v280c0 58.667 17.5 105.834 52.5 141.501s84.167 53.5 147.5 53.5h40c63.333 0 112.5 -17.833 147.5 -53.5s52.5 -82.834 52.5 -141.501h-120c0 56.667 -30 85 -90 85h-20c-60 0 -90 -28.333 -90 -85v-280z" />
    <glyph glyph-name="Cdotaccent" unicode="&#x10a;" horiz-adv-x="500" 
d="M200 710v120h120v-20c0 -66.667 -33.333 -100 -100 -100h-20zM160 195c0 -56.667 30 -85.001 90 -85.001h230v-110h-240c-63.333 0 -112.5 17.833 -147.5 53.5s-52.5 82.834 -52.5 141.501v280c0 58.667 17.5 105.834 52.5 141.501s84.167 53.5 147.5 53.5h40
c63.333 0 112.5 -17.833 147.5 -53.5s52.5 -82.834 52.5 -141.501h-120c0 56.667 -30 85 -90 85h-20c-60 0 -90 -28.333 -90 -85v-280z" />
    <glyph glyph-name="cdotaccent" unicode="&#x10b;" horiz-adv-x="500" 
d="M200 710v120h120v-20c0 -66.667 -33.333 -100 -100 -100h-20zM160 195c0 -56.667 30 -85.001 90 -85.001h230v-110h-240c-63.333 0 -112.5 17.833 -147.5 53.5s-52.5 82.834 -52.5 141.501v280c0 58.667 17.5 105.834 52.5 141.501s84.167 53.5 147.5 53.5h40
c63.333 0 112.5 -17.833 147.5 -53.5s52.5 -82.834 52.5 -141.501h-120c0 56.667 -30 85 -90 85h-20c-60 0 -90 -28.333 -90 -85v-280z" />
    <glyph glyph-name="Ccaron" unicode="&#x10c;" horiz-adv-x="500" 
d="M358 754l-98 -64l-98 64c-27.333 18 -44.5 32 -51.5 42s-10.5 24.667 -10.5 44v15h90v-5c0 -6.66699 1.33301 -11.667 4 -15s9 -8.33301 19 -15l47 -31l47 31c10 6.66699 16.333 11.667 19 15s4 8.33301 4 15v5h90v-15c0 -19.333 -3.5 -34 -10.5 -44
s-24.167 -24 -51.5 -42zM160 195c0 -56.667 30 -85.001 90 -85.001h230v-110h-240c-63.333 0 -112.5 17.833 -147.5 53.5s-52.5 82.834 -52.5 141.501v280c0 58.667 17.5 105.834 52.5 141.501s84.167 53.5 147.5 53.5h40c63.333 0 112.5 -17.833 147.5 -53.5
s52.5 -82.834 52.5 -141.501h-120c0 56.667 -30 85 -90 85h-20c-60 0 -90 -28.333 -90 -85v-280z" />
    <glyph glyph-name="ccaron" unicode="&#x10d;" horiz-adv-x="500" 
d="M358 754l-98 -64l-98 64c-27.333 18 -44.5 32 -51.5 42s-10.5 24.667 -10.5 44v15h90v-5c0 -6.66699 1.33301 -11.667 4 -15s9 -8.33301 19 -15l47 -31l47 31c10 6.66699 16.333 11.667 19 15s4 8.33301 4 15v5h90v-15c0 -19.333 -3.5 -34 -10.5 -44
s-24.167 -24 -51.5 -42zM160 195c0 -56.667 30 -85.001 90 -85.001h230v-110h-240c-63.333 0 -112.5 17.833 -147.5 53.5s-52.5 82.834 -52.5 141.501v280c0 58.667 17.5 105.834 52.5 141.501s84.167 53.5 147.5 53.5h40c63.333 0 112.5 -17.833 147.5 -53.5
s52.5 -82.834 52.5 -141.501h-120c0 56.667 -30 85 -90 85h-20c-60 0 -90 -28.333 -90 -85v-280z" />
    <glyph glyph-name="Dcaron" unicode="&#x10e;" 
d="M348 754l-98 -64l-98 64c-27.333 18 -44.5 32 -51.5 42s-10.5 24.667 -10.5 44v15h90v-5c0 -6.66699 1.33301 -11.667 4 -15s9 -8.33301 19 -15l47 -31l47 31c10 6.66699 16.333 11.667 19 15s4 8.33301 4 15v5h90v-15c0 -19.333 -3.5 -34 -10.5 -44
s-24.167 -24 -51.5 -42zM280 670c63.333 0 112.5 -17.8311 147.5 -53.498s52.5 -82.834 52.5 -141.501v-280c0 -58.667 -17.5 -105.834 -52.5 -141.501s-84.167 -53.5 -147.5 -53.5h-240v670h240zM360 475.002c0 56.667 -30 85 -90 85h-110v-450h110c60 0 90 28.333 90 85
v280z" />
    <glyph glyph-name="dcaron" unicode="&#x10f;" 
d="M348 754l-98 -64l-98 64c-27.333 18 -44.5 32 -51.5 42s-10.5 24.667 -10.5 44v15h90v-5c0 -6.66699 1.33301 -11.667 4 -15s9 -8.33301 19 -15l47 -31l47 31c10 6.66699 16.333 11.667 19 15s4 8.33301 4 15v5h90v-15c0 -19.333 -3.5 -34 -10.5 -44
s-24.167 -24 -51.5 -42zM280 670c63.333 0 112.5 -17.8311 147.5 -53.498s52.5 -82.834 52.5 -141.501v-280c0 -58.667 -17.5 -105.834 -52.5 -141.501s-84.167 -53.5 -147.5 -53.5h-240v670h240zM360 475.002c0 56.667 -30 85 -90 85h-110v-450h110c60 0 90 28.333 90 85
v280z" />
    <glyph glyph-name="Dcroat" unicode="&#x110;" 
d="M160 260v-149.998h110c60 0 90 28.333 90 85v280c0 56.667 -30 85 -90 85h-110v-150h-120v260h240c63.333 0 112.5 -17.833 147.5 -53.5s52.5 -82.834 52.5 -141.501v-280c0 -58.667 -17.5 -105.834 -52.5 -141.501s-84.167 -53.5 -147.5 -53.5h-240v260h120zM0 280.002
v110h260v-110h-260z" />
    <glyph glyph-name="dcroat" unicode="&#x111;" 
d="M160 260v-149.998h110c60 0 90 28.333 90 85v280c0 56.667 -30 85 -90 85h-110v-150h-120v260h240c63.333 0 112.5 -17.833 147.5 -53.5s52.5 -82.834 52.5 -141.501v-280c0 -58.667 -17.5 -105.834 -52.5 -141.501s-84.167 -53.5 -147.5 -53.5h-240v260h120zM0 280.002
v110h260v-110h-260z" />
    <glyph glyph-name="Emacron" unicode="&#x112;" horiz-adv-x="500" 
d="M110 710v90h300v-90h-300zM240 260c-63.333 0 -112.5 17.832 -147.5 53.499s-52.5 82.834 -52.5 141.501v20c0 58.667 17.5 105.834 52.5 141.501s84.167 53.5 147.5 53.5h40c63.333 0 112.5 -17.833 147.5 -53.5s52.5 -82.834 52.5 -141.501h-120
c0 56.667 -30 85 -90 85h-20c-60 0 -90 -28.333 -90 -85v-20c0 -56.667 30 -85 90 -85h110v-110h-120zM160 194.999c0 -56.667 30 -85.001 90 -85.001h230v-110h-240c-63.333 0 -112.5 17.833 -147.5 53.5s-52.5 82.834 -52.5 141.501v160
c23.333 -52 63.333 -86.667 120 -104v-56z" />
    <glyph glyph-name="emacron" unicode="&#x113;" horiz-adv-x="500" 
d="M110 710v90h300v-90h-300zM240 260c-63.333 0 -112.5 17.832 -147.5 53.499s-52.5 82.834 -52.5 141.501v20c0 58.667 17.5 105.834 52.5 141.501s84.167 53.5 147.5 53.5h40c63.333 0 112.5 -17.833 147.5 -53.5s52.5 -82.834 52.5 -141.501h-120
c0 56.667 -30 85 -90 85h-20c-60 0 -90 -28.333 -90 -85v-20c0 -56.667 30 -85 90 -85h110v-110h-120zM160 194.999c0 -56.667 30 -85.001 90 -85.001h230v-110h-240c-63.333 0 -112.5 17.833 -147.5 53.5s-52.5 82.834 -52.5 141.501v160
c23.333 -52 63.333 -86.667 120 -104v-56z" />
    <glyph glyph-name="Edotaccent" unicode="&#x116;" horiz-adv-x="500" 
d="M200 710v120h120v-20c0 -66.667 -33.333 -100 -100 -100h-20zM240 260c-63.333 0 -112.5 17.832 -147.5 53.499s-52.5 82.834 -52.5 141.501v20c0 58.667 17.5 105.834 52.5 141.501s84.167 53.5 147.5 53.5h40c63.333 0 112.5 -17.833 147.5 -53.5
s52.5 -82.834 52.5 -141.501h-120c0 56.667 -30 85 -90 85h-20c-60 0 -90 -28.333 -90 -85v-20c0 -56.667 30 -85 90 -85h110v-110h-120zM160 194.999c0 -56.667 30 -85.001 90 -85.001h230v-110h-240c-63.333 0 -112.5 17.833 -147.5 53.5s-52.5 82.834 -52.5 141.501v160
c23.333 -52 63.333 -86.667 120 -104v-56z" />
    <glyph glyph-name="edotaccent" unicode="&#x117;" horiz-adv-x="500" 
d="M200 710v120h120v-20c0 -66.667 -33.333 -100 -100 -100h-20zM240 260c-63.333 0 -112.5 17.832 -147.5 53.499s-52.5 82.834 -52.5 141.501v20c0 58.667 17.5 105.834 52.5 141.501s84.167 53.5 147.5 53.5h40c63.333 0 112.5 -17.833 147.5 -53.5
s52.5 -82.834 52.5 -141.501h-120c0 56.667 -30 85 -90 85h-20c-60 0 -90 -28.333 -90 -85v-20c0 -56.667 30 -85 90 -85h110v-110h-120zM160 194.999c0 -56.667 30 -85.001 90 -85.001h230v-110h-240c-63.333 0 -112.5 17.833 -147.5 53.5s-52.5 82.834 -52.5 141.501v160
c23.333 -52 63.333 -86.667 120 -104v-56z" />
    <glyph glyph-name="Eogonek" unicode="&#x118;" horiz-adv-x="500" 
d="M240 260c-63.333 0 -112.5 17.832 -147.5 53.499s-52.5 82.834 -52.5 141.501v20c0 58.667 17.5 105.834 52.5 141.501s84.167 53.5 147.5 53.5h40c63.333 0 112.5 -17.833 147.5 -53.5s52.5 -82.834 52.5 -141.501h-120c0 56.667 -30 85 -90 85h-20
c-60 0 -90 -28.333 -90 -85v-20c0 -56.667 30 -85 90 -85h110v-110h-120zM160 194.999c0 -56.667 30 -85.001 90 -85.001h230v-110c-21.333 0 -37.5 -2.5 -48.5 -7.5s-16.5 -15.833 -16.5 -32.5v-10c0 -16.667 5.5 -27.5 16.5 -32.5s27.167 -7.5 48.5 -7.5v-80
c-48.667 0 -86.667 8.5 -114 25.5s-41 42.167 -41 75.5v18c0 20 5 37 15 51h-100c-63.333 0 -112.5 17.833 -147.5 53.5s-52.5 82.834 -52.5 141.501v160c23.333 -52 63.333 -86.667 120 -104v-56z" />
    <glyph glyph-name="eogonek" unicode="&#x119;" horiz-adv-x="500" 
d="M240 260c-63.333 0 -112.5 17.832 -147.5 53.499s-52.5 82.834 -52.5 141.501v20c0 58.667 17.5 105.834 52.5 141.501s84.167 53.5 147.5 53.5h40c63.333 0 112.5 -17.833 147.5 -53.5s52.5 -82.834 52.5 -141.501h-120c0 56.667 -30 85 -90 85h-20
c-60 0 -90 -28.333 -90 -85v-20c0 -56.667 30 -85 90 -85h110v-110h-120zM160 194.999c0 -56.667 30 -85.001 90 -85.001h230v-110c-21.333 0 -37.5 -2.5 -48.5 -7.5s-16.5 -15.833 -16.5 -32.5v-10c0 -16.667 5.5 -27.5 16.5 -32.5s27.167 -7.5 48.5 -7.5v-80
c-48.667 0 -86.667 8.5 -114 25.5s-41 42.167 -41 75.5v18c0 20 5 37 15 51h-100c-63.333 0 -112.5 17.833 -147.5 53.5s-52.5 82.834 -52.5 141.501v160c23.333 -52 63.333 -86.667 120 -104v-56z" />
    <glyph glyph-name="Ecaron" unicode="&#x11a;" horiz-adv-x="500" 
d="M358 754l-98 -64l-98 64c-27.333 18 -44.5 32 -51.5 42s-10.5 24.667 -10.5 44v15h90v-5c0 -6.66699 1.33301 -11.667 4 -15s9 -8.33301 19 -15l47 -31l47 31c10 6.66699 16.333 11.667 19 15s4 8.33301 4 15v5h90v-15c0 -19.333 -3.5 -34 -10.5 -44
s-24.167 -24 -51.5 -42zM240 260c-63.333 0 -112.5 17.832 -147.5 53.499s-52.5 82.834 -52.5 141.501v20c0 58.667 17.5 105.834 52.5 141.501s84.167 53.5 147.5 53.5h40c63.333 0 112.5 -17.833 147.5 -53.5s52.5 -82.834 52.5 -141.501h-120c0 56.667 -30 85 -90 85h-20
c-60 0 -90 -28.333 -90 -85v-20c0 -56.667 30 -85 90 -85h110v-110h-120zM160 194.999c0 -56.667 30 -85.001 90 -85.001h230v-110h-240c-63.333 0 -112.5 17.833 -147.5 53.5s-52.5 82.834 -52.5 141.501v160c23.333 -52 63.333 -86.667 120 -104v-56z" />
    <glyph glyph-name="ecaron" unicode="&#x11b;" horiz-adv-x="500" 
d="M358 754l-98 -64l-98 64c-27.333 18 -44.5 32 -51.5 42s-10.5 24.667 -10.5 44v15h90v-5c0 -6.66699 1.33301 -11.667 4 -15s9 -8.33301 19 -15l47 -31l47 31c10 6.66699 16.333 11.667 19 15s4 8.33301 4 15v5h90v-15c0 -19.333 -3.5 -34 -10.5 -44
s-24.167 -24 -51.5 -42zM240 260c-63.333 0 -112.5 17.832 -147.5 53.499s-52.5 82.834 -52.5 141.501v20c0 58.667 17.5 105.834 52.5 141.501s84.167 53.5 147.5 53.5h40c63.333 0 112.5 -17.833 147.5 -53.5s52.5 -82.834 52.5 -141.501h-120c0 56.667 -30 85 -90 85h-20
c-60 0 -90 -28.333 -90 -85v-20c0 -56.667 30 -85 90 -85h110v-110h-120zM160 194.999c0 -56.667 30 -85.001 90 -85.001h230v-110h-240c-63.333 0 -112.5 17.833 -147.5 53.5s-52.5 82.834 -52.5 141.501v160c23.333 -52 63.333 -86.667 120 -104v-56z" />
    <glyph glyph-name="Gbreve" unicode="&#x11e;" horiz-adv-x="550" 
d="M330 855h90.002c0 -46.667 -12.333 -82.5 -37 -107.5s-59.334 -37.5 -104.001 -37.5h-38c-44.667 0 -79.334 12.5 -104.001 37.5s-37 60.833 -37 107.5h90c0 -20.667 4.33301 -36.667 13 -48s26 -17 52 -17h10c26 0 43.333 5.66699 52 17s13 27.333 13 48zM280.002 390
c63.333 0 112.5 -17.832 147.5 -53.499s52.5 -82.834 52.5 -141.501s-17.5 -105.834 -52.5 -141.501s-84.167 -53.5 -147.5 -53.5h-40c-63.333 0 -112.5 17.833 -147.5 53.5s-52.5 82.834 -52.5 141.501v280c0 58.667 17.5 105.834 52.5 141.501s84.167 53.5 147.5 53.5h40
c63.333 0 112.5 -17.833 147.5 -53.5s52.5 -82.834 52.5 -141.501h-120c0 56.667 -30 85 -90 85h-20c-60 0 -90 -28.333 -90 -85v-280c0 -56.667 30 -85 90 -85h20c60 0 90 28.333 90 85s-30 85 -90 85v110h10zM383.002 390.001h157v-110h-54
c-18.667 52 -53 88.667 -103 110z" />
    <glyph glyph-name="gbreve" unicode="&#x11f;" horiz-adv-x="550" 
d="M330 855h90.002c0 -46.667 -12.333 -82.5 -37 -107.5s-59.334 -37.5 -104.001 -37.5h-38c-44.667 0 -79.334 12.5 -104.001 37.5s-37 60.833 -37 107.5h90c0 -20.667 4.33301 -36.667 13 -48s26 -17 52 -17h10c26 0 43.333 5.66699 52 17s13 27.333 13 48zM280.002 390
c63.333 0 112.5 -17.832 147.5 -53.499s52.5 -82.834 52.5 -141.501s-17.5 -105.834 -52.5 -141.501s-84.167 -53.5 -147.5 -53.5h-40c-63.333 0 -112.5 17.833 -147.5 53.5s-52.5 82.834 -52.5 141.501v280c0 58.667 17.5 105.834 52.5 141.501s84.167 53.5 147.5 53.5h40
c63.333 0 112.5 -17.833 147.5 -53.5s52.5 -82.834 52.5 -141.501h-120c0 56.667 -30 85 -90 85h-20c-60 0 -90 -28.333 -90 -85v-280c0 -56.667 30 -85 90 -85h20c60 0 90 28.333 90 85s-30 85 -90 85v110h10zM383.002 390.001h157v-110h-54
c-18.667 52 -53 88.667 -103 110z" />
    <glyph glyph-name="Gdotaccent" unicode="&#x120;" horiz-adv-x="550" 
d="M200 710v120h120v-20c0 -66.667 -33.333 -100 -100 -100h-20zM280 390c63.333 0 112.5 -17.832 147.5 -53.499s52.5 -82.834 52.5 -141.501s-17.5 -105.834 -52.5 -141.501s-84.167 -53.5 -147.5 -53.5h-40c-63.333 0 -112.5 17.833 -147.5 53.5
s-52.5 82.834 -52.5 141.501v280c0 58.667 17.5 105.834 52.5 141.501s84.167 53.5 147.5 53.5h40c63.333 0 112.5 -17.833 147.5 -53.5s52.5 -82.834 52.5 -141.501h-120c0 56.667 -30 85 -90 85h-20c-60 0 -90 -28.333 -90 -85v-280c0 -56.667 30 -85 90 -85h20
c60 0 90 28.333 90 85s-30 85 -90 85v110h10zM383 390.001h157v-110h-54c-18.667 52 -53 88.667 -103 110z" />
    <glyph glyph-name="gdotaccent" unicode="&#x121;" horiz-adv-x="550" 
d="M200 710v120h120v-20c0 -66.667 -33.333 -100 -100 -100h-20zM280 390c63.333 0 112.5 -17.832 147.5 -53.499s52.5 -82.834 52.5 -141.501s-17.5 -105.834 -52.5 -141.501s-84.167 -53.5 -147.5 -53.5h-40c-63.333 0 -112.5 17.833 -147.5 53.5
s-52.5 82.834 -52.5 141.501v280c0 58.667 17.5 105.834 52.5 141.501s84.167 53.5 147.5 53.5h40c63.333 0 112.5 -17.833 147.5 -53.5s52.5 -82.834 52.5 -141.501h-120c0 56.667 -30 85 -90 85h-20c-60 0 -90 -28.333 -90 -85v-280c0 -56.667 30 -85 90 -85h20
c60 0 90 28.333 90 85s-30 85 -90 85v110h10zM383 390.001h157v-110h-54c-18.667 52 -53 88.667 -103 110z" />
    <glyph glyph-name="Gcommaaccent" unicode="&#x122;" horiz-adv-x="550" 
d="M280 390c63.333 0 112.5 -17.832 147.5 -53.499s52.5 -82.834 52.5 -141.501s-17.5 -105.834 -52.5 -141.501s-84.167 -53.5 -147.5 -53.5h-40c-63.333 0 -112.5 17.833 -147.5 53.5s-52.5 82.834 -52.5 141.501v280c0 58.667 17.5 105.834 52.5 141.501
s84.167 53.5 147.5 53.5h40c63.333 0 112.5 -17.833 147.5 -53.5s52.5 -82.834 52.5 -141.501h-120c0 56.667 -30 85 -90 85h-20c-60 0 -90 -28.333 -90 -85v-280c0 -56.667 30 -85 90 -85h20c60 0 90 28.333 90 85s-30 85 -90 85v110h10zM383 390.001h157v-110h-54
c-18.667 52 -53 88.667 -103 110zM150 -109.999c20.667 0 36.667 4.33301 48 13s17 26 17 52v25h90v-39c0 -43.333 -13.667 -76 -41 -98s-65.333 -33 -114 -33v80z" />
    <glyph glyph-name="gcommaaccent" unicode="&#x123;" horiz-adv-x="550" 
d="M280 390c63.333 0 112.5 -17.832 147.5 -53.499s52.5 -82.834 52.5 -141.501s-17.5 -105.834 -52.5 -141.501s-84.167 -53.5 -147.5 -53.5h-40c-63.333 0 -112.5 17.833 -147.5 53.5s-52.5 82.834 -52.5 141.501v280c0 58.667 17.5 105.834 52.5 141.501
s84.167 53.5 147.5 53.5h40c63.333 0 112.5 -17.833 147.5 -53.5s52.5 -82.834 52.5 -141.501h-120c0 56.667 -30 85 -90 85h-20c-60 0 -90 -28.333 -90 -85v-280c0 -56.667 30 -85 90 -85h20c60 0 90 28.333 90 85s-30 85 -90 85v110h10zM383 390.001h157v-110h-54
c-18.667 52 -53 88.667 -103 110zM150 -109.999c20.667 0 36.667 4.33301 48 13s17 26 17 52v25h90v-39c0 -43.333 -13.667 -76 -41 -98s-65.333 -33 -114 -33v80z" />
    <glyph glyph-name="Hbar" unicode="&#x126;" 
d="M520 610v-110h-40v-205c-23.333 52 -63.333 86.667 -120 104v101h-360v110h40v60h120v-60h200v60h120v-60h40zM280 390c63.333 0 112.5 -17.833 147.5 -53.5s52.5 -82.834 52.5 -141.501v-195h-120v195c0 56.667 -30 85 -90 85h-30c-63.333 0 -112.5 17.833 -147.5 53.5
s-52.5 82.834 -52.5 141.501v5h120v-5c0 -56.667 30 -85 90 -85h30zM40 375c23.333 -52 63.333 -86.667 120 -104v-271h-120v375z" />
    <glyph glyph-name="hbar" unicode="&#x127;" 
d="M520 610v-110h-40v-205c-23.333 52 -63.333 86.667 -120 104v101h-360v110h40v60h120v-60h200v60h120v-60h40zM280 390c63.333 0 112.5 -17.833 147.5 -53.5s52.5 -82.834 52.5 -141.501v-195h-120v195c0 56.667 -30 85 -90 85h-30c-63.333 0 -112.5 17.833 -147.5 53.5
s-52.5 82.834 -52.5 141.501v5h120v-5c0 -56.667 30 -85 90 -85h30zM40 375c23.333 -52 63.333 -86.667 120 -104v-271h-120v375z" />
    <glyph glyph-name="Imacron" unicode="&#x12a;" horiz-adv-x="380" 
d="M40 710v90h300v-90h-300zM325 0c-60 0 -107.5 16 -142.5 48s-52.5 79.333 -52.5 142v280c0 33.333 -6.33301 56.666 -19 69.999s-31.334 20 -56.001 20h-25v110h25c60 0 107.5 -16 142.5 -48s52.5 -79.333 52.5 -142v-280c0 -33.333 6.33301 -56.666 19 -69.999
s31.334 -20 56.001 -20h25v-110h-25zM259 560c-14.667 48.667 -49.333 85.333 -104 110h195v-110h-91zM30.001 -0.000976562l-0.000976562 110.001h91c14.667 -48.667 49.334 -85.334 104.001 -110.001h-195z" />
    <glyph glyph-name="imacron" unicode="&#x12b;" horiz-adv-x="380" 
d="M40 710v90h300v-90h-300zM325 0c-60 0 -107.5 16 -142.5 48s-52.5 79.333 -52.5 142v280c0 33.333 -6.33301 56.666 -19 69.999s-31.334 20 -56.001 20h-25v110h25c60 0 107.5 -16 142.5 -48s52.5 -79.333 52.5 -142v-280c0 -33.333 6.33301 -56.666 19 -69.999
s31.334 -20 56.001 -20h25v-110h-25zM259 560c-14.667 48.667 -49.333 85.333 -104 110h195v-110h-91zM30.001 -0.000976562l-0.000976562 110.001h91c14.667 -48.667 49.334 -85.334 104.001 -110.001h-195z" />
    <glyph glyph-name="Iogonek" unicode="&#x12e;" horiz-adv-x="380" 
d="M250 200c0 -33.333 6.33301 -56.666 19 -69.999s31.334 -20 56.001 -20h25v-110c-21.333 0 -37.5 -2.5 -48.5 -7.5s-16.5 -15.833 -16.5 -32.5v-10c0 -16.667 5.5 -27.5 16.5 -32.5s27.167 -7.5 48.5 -7.5v-80c-48.667 0 -86.667 8.5 -114 25.5s-41 42.167 -41 75.5v18
c0 20 5 37 15 51h-180v110h91c14 -45.333 45 -80.333 93 -105c2.66699 3.33301 7 8 13 14c-64.667 28 -97 85 -97 171v280c0 33.333 -6.33301 56.666 -19 69.999s-31.334 20 -56.001 20h-25v110h25c60 0 107.5 -16 142.5 -48s52.5 -79.333 52.5 -142v-280zM155 670
l195.001 -0.000976562v-110h-91c-14.667 48.667 -49.334 85.334 -104.001 110.001z" />
    <glyph glyph-name="iogonek" unicode="&#x12f;" horiz-adv-x="380" 
d="M250 200c0 -33.333 6.33301 -56.666 19 -69.999s31.334 -20 56.001 -20h25v-110c-21.333 0 -37.5 -2.5 -48.5 -7.5s-16.5 -15.833 -16.5 -32.5v-10c0 -16.667 5.5 -27.5 16.5 -32.5s27.167 -7.5 48.5 -7.5v-80c-48.667 0 -86.667 8.5 -114 25.5s-41 42.167 -41 75.5v18
c0 20 5 37 15 51h-180v110h91c14 -45.333 45 -80.333 93 -105c2.66699 3.33301 7 8 13 14c-64.667 28 -97 85 -97 171v280c0 33.333 -6.33301 56.666 -19 69.999s-31.334 20 -56.001 20h-25v110h25c60 0 107.5 -16 142.5 -48s52.5 -79.333 52.5 -142v-280zM155 670
l195.001 -0.000976562v-110h-91c-14.667 48.667 -49.334 85.334 -104.001 110.001z" />
    <glyph glyph-name="Idotaccent" unicode="&#x130;" horiz-adv-x="380" 
d="M130 710v120h120v-20c0 -66.667 -33.333 -100 -100 -100h-20zM325 0c-60 0 -107.5 16 -142.5 48s-52.5 79.333 -52.5 142v280c0 33.333 -6.33301 56.666 -19 69.999s-31.334 20 -56.001 20h-25v110h25c60 0 107.5 -16 142.5 -48s52.5 -79.333 52.5 -142v-280
c0 -33.333 6.33301 -56.666 19 -69.999s31.334 -20 56.001 -20h25v-110h-25zM259 560c-14.667 48.667 -49.333 85.333 -104 110h195v-110h-91zM30.001 -0.000976562l-0.000976562 110.001h91c14.667 -48.667 49.334 -85.334 104.001 -110.001h-195z" />
    <glyph glyph-name="dotlessi" unicode="&#x131;" horiz-adv-x="380" 
d="M325 0c-60 0 -107.5 16 -142.5 48s-52.5 79.333 -52.5 142v280c0 33.333 -6.33301 56.666 -19 69.999s-31.334 20 -56.001 20h-25v110h25c60 0 107.5 -16 142.5 -48s52.5 -79.333 52.5 -142v-280c0 -33.333 6.33301 -56.666 19 -69.999s31.334 -20 56.001 -20h25v-110
h-25zM259 560c-14.667 48.667 -49.333 85.333 -104 110h195v-110h-91zM30.001 -0.000976562l-0.000976562 110.001h91c14.667 -48.667 49.334 -85.334 104.001 -110.001h-195z" />
    <glyph glyph-name="Kcommaaccent" unicode="&#x136;" 
d="M440 450c-10 -52.667 -31 -91.001 -63 -115.001c32 -24 53 -62.333 63 -115l16 -90c2.66699 -13.333 10.667 -20 24 -20h20v-110h-10c-46 0 -81.5 10.333 -106.5 31s-41.5 57 -49.5 109l-10 66c-8 49.333 -36 74 -84 74c-53.333 0 -80 -28.333 -80 -85v-195h-120v195
c0 58.667 17.5 105.834 52.5 141.501s84.167 53.5 147.5 53.5c48 0 76 24.667 84 74l10 66c8 52 24.5 88.333 49.5 109s60.5 31 106.5 31h10v-110h-20c-13.333 0 -21.333 -6.66699 -24 -20zM160 398.999c-56.667 -17.333 -96.667 -52 -120 -104v375h120v-271zM160 -110.001
c20.667 0 36.667 4.33301 48 13s17 26 17 52v25h90v-39c0 -43.333 -13.667 -76 -41 -98s-65.333 -33 -114 -33v80z" />
    <glyph glyph-name="kcommaaccent" unicode="&#x137;" 
d="M440 450c-10 -52.667 -31 -91.001 -63 -115.001c32 -24 53 -62.333 63 -115l16 -90c2.66699 -13.333 10.667 -20 24 -20h20v-110h-10c-46 0 -81.5 10.333 -106.5 31s-41.5 57 -49.5 109l-10 66c-8 49.333 -36 74 -84 74c-53.333 0 -80 -28.333 -80 -85v-195h-120v195
c0 58.667 17.5 105.834 52.5 141.501s84.167 53.5 147.5 53.5c48 0 76 24.667 84 74l10 66c8 52 24.5 88.333 49.5 109s60.5 31 106.5 31h10v-110h-20c-13.333 0 -21.333 -6.66699 -24 -20zM160 398.999c-56.667 -17.333 -96.667 -52 -120 -104v375h120v-271zM160 -110.001
c20.667 0 36.667 4.33301 48 13s17 26 17 52v25h90v-39c0 -43.333 -13.667 -76 -41 -98s-65.333 -33 -114 -33v80z" />
    <glyph glyph-name="Lacute" unicode="&#x139;" horiz-adv-x="450" 
d="M130 855h90.001c0 -46.667 -12.333 -82.5 -37 -107.5s-59.334 -37.5 -104.001 -37.5h-39v80h25c26 0 43.333 5.66699 52 17s13 27.333 13 48zM250.001 110l190 -0.000976562v-110h-200c-63.333 0 -112.5 17.833 -147.5 53.5s-52.5 82.834 -52.5 141.501v475h120v-475
c0 -56.667 30 -85 90 -85z" />
    <glyph glyph-name="lacute" unicode="&#x13a;" horiz-adv-x="450" 
d="M130 855h90.001c0 -46.667 -12.333 -82.5 -37 -107.5s-59.334 -37.5 -104.001 -37.5h-39v80h25c26 0 43.333 5.66699 52 17s13 27.333 13 48zM250.001 110l190 -0.000976562v-110h-200c-63.333 0 -112.5 17.833 -147.5 53.5s-52.5 82.834 -52.5 141.501v475h120v-475
c0 -56.667 30 -85 90 -85z" />
    <glyph glyph-name="Lcommaaccent" unicode="&#x13b;" horiz-adv-x="450" 
d="M250 110l190 -0.000976562v-110h-200c-63.333 0 -112.5 17.833 -147.5 53.5s-52.5 82.834 -52.5 141.501v475h120v-475c0 -56.667 30 -85 90 -85zM170 -110.001c20.667 0 36.667 4.33301 48 13s17 26 17 52v25h90v-39c0 -43.333 -13.667 -76 -41 -98
s-65.333 -33 -114 -33v80z" />
    <glyph glyph-name="lcommaaccent" unicode="&#x13c;" horiz-adv-x="450" 
d="M250 110l190 -0.000976562v-110h-200c-63.333 0 -112.5 17.833 -147.5 53.5s-52.5 82.834 -52.5 141.501v475h120v-475c0 -56.667 30 -85 90 -85zM170 -110.001c20.667 0 36.667 4.33301 48 13s17 26 17 52v25h90v-39c0 -43.333 -13.667 -76 -41 -98
s-65.333 -33 -114 -33v80z" />
    <glyph glyph-name="Lcaron" unicode="&#x13d;" horiz-adv-x="450" 
d="M250 110l190 -0.000976562v-110h-200c-63.333 0 -112.5 17.833 -147.5 53.5s-52.5 82.834 -52.5 141.501v475h120v-475c0 -56.667 30 -85 90 -85zM200 449.999l20 220h100l-13 -130c-6.66699 -60 -39 -90 -97 -90h-10z" />
    <glyph glyph-name="lcaron" unicode="&#x13e;" horiz-adv-x="450" 
d="M250 110l190 -0.000976562v-110h-200c-63.333 0 -112.5 17.833 -147.5 53.5s-52.5 82.834 -52.5 141.501v475h120v-475c0 -56.667 30 -85 90 -85zM200 449.999l20 220h100l-13 -130c-6.66699 -60 -39 -90 -97 -90h-10z" />
    <glyph glyph-name="Lslash" unicode="&#x141;" horiz-adv-x="450" 
d="M40 421v249h120v-217zM0 280v110l260 70v-110zM160 303v-108.001c0 -56.667 30 -85 90 -85h190v-110h-200c-63.333 0 -112.5 17.833 -147.5 53.5s-52.5 82.834 -52.5 141.501v76z" />
    <glyph glyph-name="lslash" unicode="&#x142;" horiz-adv-x="450" 
d="M40 421v249h120v-217zM0 280v110l260 70v-110zM160 303v-108.001c0 -56.667 30 -85 90 -85h190v-110h-200c-63.333 0 -112.5 17.833 -147.5 53.5s-52.5 82.834 -52.5 141.501v76z" />
    <glyph glyph-name="Nacute" unicode="&#x143;" 
d="M290 855h90.001c0 -46.667 -12.333 -82.5 -37 -107.5s-59.334 -37.5 -104.001 -37.5h-39v80h25c26 0 43.333 5.66699 52 17s13 27.333 13 48zM360.001 0v35c0 30 -7.66699 56.667 -23 80l-235 354c-41.333 62.667 -62 114.667 -62 156v45h120v-35
c0 -30 7.66699 -56.667 23 -80l235 -354c41.333 -62.667 62 -114.667 62 -156v-45h-120zM480.001 130c-10.667 24 -25.667 51.333 -45 82l-75 113v345h120v-540zM40.001 0v540c12.667 -28.667 27.667 -56 45 -82l75 -113v-345h-120z" />
    <glyph glyph-name="nacute" unicode="&#x144;" 
d="M290 855h90.001c0 -46.667 -12.333 -82.5 -37 -107.5s-59.334 -37.5 -104.001 -37.5h-39v80h25c26 0 43.333 5.66699 52 17s13 27.333 13 48zM360.001 0v35c0 30 -7.66699 56.667 -23 80l-235 354c-41.333 62.667 -62 114.667 -62 156v45h120v-35
c0 -30 7.66699 -56.667 23 -80l235 -354c41.333 -62.667 62 -114.667 62 -156v-45h-120zM480.001 130c-10.667 24 -25.667 51.333 -45 82l-75 113v345h120v-540zM40.001 0v540c12.667 -28.667 27.667 -56 45 -82l75 -113v-345h-120z" />
    <glyph glyph-name="Ncommaaccent" unicode="&#x145;" 
d="M360 0v35c0 30 -7.66699 56.667 -23 80l-235 354c-41.333 62.667 -62 114.667 -62 156v45h120v-35c0 -30 7.66699 -56.667 23 -80l235 -354c41.333 -62.667 62 -114.667 62 -156v-45h-120zM480 130c-10.667 24 -25.667 51.333 -45 82l-75 113v345h120v-540zM40 0v540
c12.667 -28.667 27.667 -56 45 -82l75 -113v-345h-120zM150 -110c20.667 0 36.667 4.33301 48 13s17 26 17 52v25h90v-39c0 -43.333 -13.667 -76 -41 -98s-65.333 -33 -114 -33v80z" />
    <glyph glyph-name="ncommaaccent" unicode="&#x146;" 
d="M360 0v35c0 30 -7.66699 56.667 -23 80l-235 354c-41.333 62.667 -62 114.667 -62 156v45h120v-35c0 -30 7.66699 -56.667 23 -80l235 -354c41.333 -62.667 62 -114.667 62 -156v-45h-120zM480 130c-10.667 24 -25.667 51.333 -45 82l-75 113v345h120v-540zM40 0v540
c12.667 -28.667 27.667 -56 45 -82l75 -113v-345h-120zM150 -110c20.667 0 36.667 4.33301 48 13s17 26 17 52v25h90v-39c0 -43.333 -13.667 -76 -41 -98s-65.333 -33 -114 -33v80z" />
    <glyph glyph-name="Ncaron" unicode="&#x147;" 
d="M358 754l-98 -64l-98 64c-27.333 18 -44.5 32 -51.5 42s-10.5 24.667 -10.5 44v15h90v-5c0 -6.66699 1.33301 -11.667 4 -15s9 -8.33301 19 -15l47 -31l47 31c10 6.66699 16.333 11.667 19 15s4 8.33301 4 15v5h90v-15c0 -19.333 -3.5 -34 -10.5 -44
s-24.167 -24 -51.5 -42zM360 0v35c0 30 -7.66699 56.667 -23 80l-235 354c-41.333 62.667 -62 114.667 -62 156v45h120v-35c0 -30 7.66699 -56.667 23 -80l235 -354c41.333 -62.667 62 -114.667 62 -156v-45h-120zM480 130c-10.667 24 -25.667 51.333 -45 82l-75 113v345
h120v-540zM40 0v540c12.667 -28.667 27.667 -56 45 -82l75 -113v-345h-120z" />
    <glyph glyph-name="ncaron" unicode="&#x148;" 
d="M358 754l-98 -64l-98 64c-27.333 18 -44.5 32 -51.5 42s-10.5 24.667 -10.5 44v15h90v-5c0 -6.66699 1.33301 -11.667 4 -15s9 -8.33301 19 -15l47 -31l47 31c10 6.66699 16.333 11.667 19 15s4 8.33301 4 15v5h90v-15c0 -19.333 -3.5 -34 -10.5 -44
s-24.167 -24 -51.5 -42zM360 0v35c0 30 -7.66699 56.667 -23 80l-235 354c-41.333 62.667 -62 114.667 -62 156v45h120v-35c0 -30 7.66699 -56.667 23 -80l235 -354c41.333 -62.667 62 -114.667 62 -156v-45h-120zM480 130c-10.667 24 -25.667 51.333 -45 82l-75 113v345
h120v-540zM40 0v540c12.667 -28.667 27.667 -56 45 -82l75 -113v-345h-120z" />
    <glyph glyph-name="Eng" unicode="&#x14a;" 
d="M183 555l235 -353.999c41.333 -62.667 62 -114.667 62 -156v-50c0 -58.667 -17.5 -105.834 -52.5 -141.501s-84.167 -53.5 -147.5 -53.5h-10v110c60 0 90 28.333 90 85v40c0 30 -7.66699 56.667 -23 80l-235 354c-41.333 62.667 -62 114.667 -62 156v45h120v-35
c0 -30 7.66699 -56.667 23 -80zM360 670.001h120v-540c-10.667 24 -25.667 51.333 -45 82l-75 113v345zM40 540.001c12.667 -28.667 27.667 -56 45 -82l75 -113v-345h-120v540z" />
    <glyph glyph-name="eng" unicode="&#x14b;" 
d="M183 555l235 -353.999c41.333 -62.667 62 -114.667 62 -156v-50c0 -58.667 -17.5 -105.834 -52.5 -141.501s-84.167 -53.5 -147.5 -53.5h-10v110c60 0 90 28.333 90 85v40c0 30 -7.66699 56.667 -23 80l-235 354c-41.333 62.667 -62 114.667 -62 156v45h120v-35
c0 -30 7.66699 -56.667 23 -80zM360 670.001h120v-540c-10.667 24 -25.667 51.333 -45 82l-75 113v345zM40 540.001c12.667 -28.667 27.667 -56 45 -82l75 -113v-345h-120v540z" />
    <glyph glyph-name="Omacron" unicode="&#x14c;" 
d="M110 710v90h300v-90h-300zM280 670c63.333 0 112.5 -17.833 147.5 -53.5s52.5 -82.834 52.5 -141.501v-280c0 -58.667 -17.5 -105.834 -52.5 -141.501s-84.167 -53.5 -147.5 -53.5h-40c-63.333 0 -112.5 17.833 -147.5 53.5s-52.5 82.834 -52.5 141.501v280
c0 58.667 17.5 105.834 52.5 141.501s84.167 53.5 147.5 53.5h40zM360 195v280c0 56.667 -30 85 -90 85h-20c-60 0 -90 -28.333 -90 -85v-280c0 -56.667 30 -85 90 -85h20c60 0 90 28.333 90 85z" />
    <glyph glyph-name="omacron" unicode="&#x14d;" 
d="M110 710v90h300v-90h-300zM280 670c63.333 0 112.5 -17.833 147.5 -53.5s52.5 -82.834 52.5 -141.501v-280c0 -58.667 -17.5 -105.834 -52.5 -141.501s-84.167 -53.5 -147.5 -53.5h-40c-63.333 0 -112.5 17.833 -147.5 53.5s-52.5 82.834 -52.5 141.501v280
c0 58.667 17.5 105.834 52.5 141.501s84.167 53.5 147.5 53.5h40zM360 195v280c0 56.667 -30 85 -90 85h-20c-60 0 -90 -28.333 -90 -85v-280c0 -56.667 30 -85 90 -85h20c60 0 90 28.333 90 85z" />
    <glyph glyph-name="Ohungarumlaut" unicode="&#x150;" 
d="M160 855h90.001c0 -46.667 -12.333 -82.5 -37 -107.5s-59.334 -37.5 -104.001 -37.5h-39v80h25c26 0 43.333 5.66699 52 17s13 27.333 13 48zM360.001 855h90.001c0 -46.667 -12.333 -82.5 -37 -107.5s-59.334 -37.5 -104.001 -37.5h-39v80h25c26 0 43.333 5.66699 52 17
s13 27.333 13 48zM280.002 670c63.333 0 112.5 -17.833 147.5 -53.5s52.5 -82.834 52.5 -141.501v-280c0 -58.667 -17.5 -105.834 -52.5 -141.501s-84.167 -53.5 -147.5 -53.5h-40c-63.333 0 -112.5 17.833 -147.5 53.5s-52.5 82.834 -52.5 141.501v280
c0 58.667 17.5 105.834 52.5 141.501s84.167 53.5 147.5 53.5h40zM360.002 195v280c0 56.667 -30 85 -90 85h-20c-60 0 -90 -28.333 -90 -85v-280c0 -56.667 30 -85 90 -85h20c60 0 90 28.333 90 85z" />
    <glyph glyph-name="ohungarumlaut" unicode="&#x151;" 
d="M160 855h90.001c0 -46.667 -12.333 -82.5 -37 -107.5s-59.334 -37.5 -104.001 -37.5h-39v80h25c26 0 43.333 5.66699 52 17s13 27.333 13 48zM360.001 855h90.001c0 -46.667 -12.333 -82.5 -37 -107.5s-59.334 -37.5 -104.001 -37.5h-39v80h25c26 0 43.333 5.66699 52 17
s13 27.333 13 48zM280.002 670c63.333 0 112.5 -17.833 147.5 -53.5s52.5 -82.834 52.5 -141.501v-280c0 -58.667 -17.5 -105.834 -52.5 -141.501s-84.167 -53.5 -147.5 -53.5h-40c-63.333 0 -112.5 17.833 -147.5 53.5s-52.5 82.834 -52.5 141.501v280
c0 58.667 17.5 105.834 52.5 141.501s84.167 53.5 147.5 53.5h40zM360.002 195v280c0 56.667 -30 85 -90 85h-20c-60 0 -90 -28.333 -90 -85v-280c0 -56.667 30 -85 90 -85h20c60 0 90 28.333 90 85z" />
    <glyph glyph-name="OE" unicode="&#x152;" horiz-adv-x="820" 
d="M480 195c0 -56.667 30 -85.002 90 -85.002h230v-110h-240c-58.667 0 -105.334 15.333 -140.001 46c-34.667 -30.667 -81.334 -46 -140.001 -46h-40c-63.333 0 -112.5 17.833 -147.5 53.5s-52.5 82.834 -52.5 141.501v280c0 58.667 17.5 105.834 52.5 141.501
s84.167 53.5 147.5 53.5h40c58.667 0 105.334 -15.333 140.001 -46c34.667 30.667 81.334 46 140.001 46h40c63.333 0 112.5 -17.833 147.5 -53.5s52.5 -82.834 52.5 -141.501h-120c0 56.667 -30 85 -90 85h-20c-60 0 -90 -28.333 -90 -85v-20c0 -56.667 30 -85 90 -85h110
v-110h-120c-63.333 0 -112.5 17.833 -147.5 53.5s-52.5 82.834 -52.5 141.501v20c0 56.667 -30 85 -90 85h-20c-60 0 -90 -28.333 -90 -85v-280c0 -56.667 30 -85 90 -85h20c60 0 90 28.333 90 85v160c23.333 -52 63.333 -86.667 120 -104v-56z" />
    <glyph glyph-name="oe" unicode="&#x153;" horiz-adv-x="820" 
d="M480 195c0 -56.667 30 -85.002 90 -85.002h230v-110h-240c-58.667 0 -105.334 15.333 -140.001 46c-34.667 -30.667 -81.334 -46 -140.001 -46h-40c-63.333 0 -112.5 17.833 -147.5 53.5s-52.5 82.834 -52.5 141.501v280c0 58.667 17.5 105.834 52.5 141.501
s84.167 53.5 147.5 53.5h40c58.667 0 105.334 -15.333 140.001 -46c34.667 30.667 81.334 46 140.001 46h40c63.333 0 112.5 -17.833 147.5 -53.5s52.5 -82.834 52.5 -141.501h-120c0 56.667 -30 85 -90 85h-20c-60 0 -90 -28.333 -90 -85v-20c0 -56.667 30 -85 90 -85h110
v-110h-120c-63.333 0 -112.5 17.833 -147.5 53.5s-52.5 82.834 -52.5 141.501v20c0 56.667 -30 85 -90 85h-20c-60 0 -90 -28.333 -90 -85v-280c0 -56.667 30 -85 90 -85h20c60 0 90 28.333 90 85v160c23.333 -52 63.333 -86.667 120 -104v-56z" />
    <glyph glyph-name="Racute" unicode="&#x154;" 
d="M290 855h90.001c0 -46.667 -12.333 -82.5 -37 -107.5s-59.334 -37.5 -104.001 -37.5h-39v80h25c26 0 43.333 5.66699 52 17s13 27.333 13 48zM480.001 110l20 -0.000976562v-110h-10c-46 0 -81.5 10.333 -106.5 31s-41.5 57 -49.5 109l-10 66c-8 49.333 -36 74 -84 74
c-53.333 0 -80 -28.333 -80 -85v-195h-120v195c0 58.667 17.5 105.834 52.5 141.501s84.167 53.5 147.5 53.5h30c60 0 90 28.333 90 85s-30 85 -90 85h-20c-60 0 -90 -28.333 -90 -85v-76c-56.667 -17.333 -96.667 -52 -120 -104v180c0 58.667 17.5 105.834 52.5 141.501
s84.167 53.5 147.5 53.5h40c63.333 0 112.5 -17.833 147.5 -53.5s52.5 -82.834 52.5 -141.501c0 -74.667 -27.667 -127.667 -83 -159c20.667 -22.667 35 -54.667 43 -96l16 -90c2.66699 -13.333 10.667 -20 24 -20z" />
    <glyph glyph-name="racute" unicode="&#x155;" 
d="M290 855h90.001c0 -46.667 -12.333 -82.5 -37 -107.5s-59.334 -37.5 -104.001 -37.5h-39v80h25c26 0 43.333 5.66699 52 17s13 27.333 13 48zM480.001 110l20 -0.000976562v-110h-10c-46 0 -81.5 10.333 -106.5 31s-41.5 57 -49.5 109l-10 66c-8 49.333 -36 74 -84 74
c-53.333 0 -80 -28.333 -80 -85v-195h-120v195c0 58.667 17.5 105.834 52.5 141.501s84.167 53.5 147.5 53.5h30c60 0 90 28.333 90 85s-30 85 -90 85h-20c-60 0 -90 -28.333 -90 -85v-76c-56.667 -17.333 -96.667 -52 -120 -104v180c0 58.667 17.5 105.834 52.5 141.501
s84.167 53.5 147.5 53.5h40c63.333 0 112.5 -17.833 147.5 -53.5s52.5 -82.834 52.5 -141.501c0 -74.667 -27.667 -127.667 -83 -159c20.667 -22.667 35 -54.667 43 -96l16 -90c2.66699 -13.333 10.667 -20 24 -20z" />
    <glyph glyph-name="Rcommaaccent" unicode="&#x156;" 
d="M480 110l20 -0.000976562v-110h-10c-46 0 -81.5 10.333 -106.5 31s-41.5 57 -49.5 109l-10 66c-8 49.333 -36 74 -84 74c-53.333 0 -80 -28.333 -80 -85v-195h-120v195c0 58.667 17.5 105.834 52.5 141.501s84.167 53.5 147.5 53.5h30c60 0 90 28.333 90 85
s-30 85 -90 85h-20c-60 0 -90 -28.333 -90 -85v-76c-56.667 -17.333 -96.667 -52 -120 -104v180c0 58.667 17.5 105.834 52.5 141.501s84.167 53.5 147.5 53.5h40c63.333 0 112.5 -17.833 147.5 -53.5s52.5 -82.834 52.5 -141.501c0 -74.667 -27.667 -127.667 -83 -159
c20.667 -22.667 35 -54.667 43 -96l16 -90c2.66699 -13.333 10.667 -20 24 -20zM150 -110.001c20.667 0 36.667 4.33301 48 13s17 26 17 52v25h90v-39c0 -43.333 -13.667 -76 -41 -98s-65.333 -33 -114 -33v80z" />
    <glyph glyph-name="rcommaaccent" unicode="&#x157;" 
d="M480 110l20 -0.000976562v-110h-10c-46 0 -81.5 10.333 -106.5 31s-41.5 57 -49.5 109l-10 66c-8 49.333 -36 74 -84 74c-53.333 0 -80 -28.333 -80 -85v-195h-120v195c0 58.667 17.5 105.834 52.5 141.501s84.167 53.5 147.5 53.5h30c60 0 90 28.333 90 85
s-30 85 -90 85h-20c-60 0 -90 -28.333 -90 -85v-76c-56.667 -17.333 -96.667 -52 -120 -104v180c0 58.667 17.5 105.834 52.5 141.501s84.167 53.5 147.5 53.5h40c63.333 0 112.5 -17.833 147.5 -53.5s52.5 -82.834 52.5 -141.501c0 -74.667 -27.667 -127.667 -83 -159
c20.667 -22.667 35 -54.667 43 -96l16 -90c2.66699 -13.333 10.667 -20 24 -20zM150 -110.001c20.667 0 36.667 4.33301 48 13s17 26 17 52v25h90v-39c0 -43.333 -13.667 -76 -41 -98s-65.333 -33 -114 -33v80z" />
    <glyph glyph-name="Rcaron" unicode="&#x158;" 
d="M358 754l-98 -64l-98 64c-27.333 18 -44.5 32 -51.5 42s-10.5 24.667 -10.5 44v15h90v-5c0 -6.66699 1.33301 -11.667 4 -15s9 -8.33301 19 -15l47 -31l47 31c10 6.66699 16.333 11.667 19 15s4 8.33301 4 15v5h90v-15c0 -19.333 -3.5 -34 -10.5 -44
s-24.167 -24 -51.5 -42zM480 110l20 -0.000976562v-110h-10c-46 0 -81.5 10.333 -106.5 31s-41.5 57 -49.5 109l-10 66c-8 49.333 -36 74 -84 74c-53.333 0 -80 -28.333 -80 -85v-195h-120v195c0 58.667 17.5 105.834 52.5 141.501s84.167 53.5 147.5 53.5h30
c60 0 90 28.333 90 85s-30 85 -90 85h-20c-60 0 -90 -28.333 -90 -85v-76c-56.667 -17.333 -96.667 -52 -120 -104v180c0 58.667 17.5 105.834 52.5 141.501s84.167 53.5 147.5 53.5h40c63.333 0 112.5 -17.833 147.5 -53.5s52.5 -82.834 52.5 -141.501
c0 -74.667 -27.667 -127.667 -83 -159c20.667 -22.667 35 -54.667 43 -96l16 -90c2.66699 -13.333 10.667 -20 24 -20z" />
    <glyph glyph-name="rcaron" unicode="&#x159;" 
d="M358 754l-98 -64l-98 64c-27.333 18 -44.5 32 -51.5 42s-10.5 24.667 -10.5 44v15h90v-5c0 -6.66699 1.33301 -11.667 4 -15s9 -8.33301 19 -15l47 -31l47 31c10 6.66699 16.333 11.667 19 15s4 8.33301 4 15v5h90v-15c0 -19.333 -3.5 -34 -10.5 -44
s-24.167 -24 -51.5 -42zM480 110l20 -0.000976562v-110h-10c-46 0 -81.5 10.333 -106.5 31s-41.5 57 -49.5 109l-10 66c-8 49.333 -36 74 -84 74c-53.333 0 -80 -28.333 -80 -85v-195h-120v195c0 58.667 17.5 105.834 52.5 141.501s84.167 53.5 147.5 53.5h30
c60 0 90 28.333 90 85s-30 85 -90 85h-20c-60 0 -90 -28.333 -90 -85v-76c-56.667 -17.333 -96.667 -52 -120 -104v180c0 58.667 17.5 105.834 52.5 141.501s84.167 53.5 147.5 53.5h40c63.333 0 112.5 -17.833 147.5 -53.5s52.5 -82.834 52.5 -141.501
c0 -74.667 -27.667 -127.667 -83 -159c20.667 -22.667 35 -54.667 43 -96l16 -90c2.66699 -13.333 10.667 -20 24 -20z" />
    <glyph glyph-name="Sacute" unicode="&#x15a;" horiz-adv-x="510" 
d="M290 855h90.001c0 -46.667 -12.333 -82.5 -37 -107.5s-59.334 -37.5 -104.001 -37.5h-39v80h25c26 0 43.333 5.66699 52 17s13 27.333 13 48zM280.001 390c63.333 0 112.5 -17.833 147.5 -53.5s52.5 -82.834 52.5 -141.501s-17.5 -105.834 -52.5 -141.501
s-84.167 -53.5 -147.5 -53.5h-40c-63.333 0 -112.5 17.833 -147.5 53.5s-52.5 82.834 -52.5 141.501h120c0 -56.667 30 -85 90 -85h20c60 0 90 28.333 90 85s-30 85 -90 85h-30c-63.333 0 -112.5 17.833 -147.5 53.5s-52.5 82.834 -52.5 141.501s17.5 105.834 52.5 141.501
s84.167 53.5 147.5 53.5h40c63.333 0 112.5 -17.833 147.5 -53.5s52.5 -82.834 52.5 -141.501h-120c0 56.667 -30 85 -90 85h-20c-60 0 -90 -28.333 -90 -85s30 -85 90 -85h30z" />
    <glyph glyph-name="sacute" unicode="&#x15b;" horiz-adv-x="510" 
d="M290 855h90.001c0 -46.667 -12.333 -82.5 -37 -107.5s-59.334 -37.5 -104.001 -37.5h-39v80h25c26 0 43.333 5.66699 52 17s13 27.333 13 48zM280.001 390c63.333 0 112.5 -17.833 147.5 -53.5s52.5 -82.834 52.5 -141.501s-17.5 -105.834 -52.5 -141.501
s-84.167 -53.5 -147.5 -53.5h-40c-63.333 0 -112.5 17.833 -147.5 53.5s-52.5 82.834 -52.5 141.501h120c0 -56.667 30 -85 90 -85h20c60 0 90 28.333 90 85s-30 85 -90 85h-30c-63.333 0 -112.5 17.833 -147.5 53.5s-52.5 82.834 -52.5 141.501s17.5 105.834 52.5 141.501
s84.167 53.5 147.5 53.5h40c63.333 0 112.5 -17.833 147.5 -53.5s52.5 -82.834 52.5 -141.501h-120c0 56.667 -30 85 -90 85h-20c-60 0 -90 -28.333 -90 -85s30 -85 90 -85h30z" />
    <glyph glyph-name="Scedilla" unicode="&#x15e;" horiz-adv-x="510" 
d="M280 390c63.333 0 112.5 -17.833 147.5 -53.5s52.5 -82.834 52.5 -141.501c0 -54.667 -15.167 -99.5 -45.5 -134.5s-73.5 -54.833 -129.5 -59.5v-41c0 -43.333 -13.667 -76 -41 -98s-65.333 -33 -114 -33v80c20.667 0 36.667 4.33301 48 13s17 26 17 52v27
c-56 4.66699 -99.167 24.5 -129.5 59.5s-45.5 79.833 -45.5 134.5h120c0 -56.667 30 -85 90 -85h20c60 0 90 28.333 90 85s-30 85 -90 85h-30c-63.333 0 -112.5 17.833 -147.5 53.5s-52.5 82.834 -52.5 141.501s17.5 105.834 52.5 141.501s84.167 53.5 147.5 53.5h40
c63.333 0 112.5 -17.833 147.5 -53.5s52.5 -82.834 52.5 -141.501h-120c0 56.667 -30 85 -90 85h-20c-60 0 -90 -28.333 -90 -85s30 -85 90 -85h30z" />
    <glyph glyph-name="scedilla" unicode="&#x15f;" horiz-adv-x="510" 
d="M280 390c63.333 0 112.5 -17.833 147.5 -53.5s52.5 -82.834 52.5 -141.501c0 -54.667 -15.167 -99.5 -45.5 -134.5s-73.5 -54.833 -129.5 -59.5v-41c0 -43.333 -13.667 -76 -41 -98s-65.333 -33 -114 -33v80c20.667 0 36.667 4.33301 48 13s17 26 17 52v27
c-56 4.66699 -99.167 24.5 -129.5 59.5s-45.5 79.833 -45.5 134.5h120c0 -56.667 30 -85 90 -85h20c60 0 90 28.333 90 85s-30 85 -90 85h-30c-63.333 0 -112.5 17.833 -147.5 53.5s-52.5 82.834 -52.5 141.501s17.5 105.834 52.5 141.501s84.167 53.5 147.5 53.5h40
c63.333 0 112.5 -17.833 147.5 -53.5s52.5 -82.834 52.5 -141.501h-120c0 56.667 -30 85 -90 85h-20c-60 0 -90 -28.333 -90 -85s30 -85 90 -85h30z" />
    <glyph glyph-name="Scaron" unicode="&#x160;" horiz-adv-x="510" 
d="M358 754l-98 -64l-98 64c-27.333 18 -44.5 32 -51.5 42s-10.5 24.667 -10.5 44v15h90v-5c0 -6.66699 1.33301 -11.667 4 -15s9 -8.33301 19 -15l47 -31l47 31c10 6.66699 16.333 11.667 19 15s4 8.33301 4 15v5h90v-15c0 -19.333 -3.5 -34 -10.5 -44
s-24.167 -24 -51.5 -42zM280 390c63.333 0 112.5 -17.833 147.5 -53.5s52.5 -82.834 52.5 -141.501s-17.5 -105.834 -52.5 -141.501s-84.167 -53.5 -147.5 -53.5h-40c-63.333 0 -112.5 17.833 -147.5 53.5s-52.5 82.834 -52.5 141.501h120c0 -56.667 30 -85 90 -85h20
c60 0 90 28.333 90 85s-30 85 -90 85h-30c-63.333 0 -112.5 17.833 -147.5 53.5s-52.5 82.834 -52.5 141.501s17.5 105.834 52.5 141.501s84.167 53.5 147.5 53.5h40c63.333 0 112.5 -17.833 147.5 -53.5s52.5 -82.834 52.5 -141.501h-120c0 56.667 -30 85 -90 85h-20
c-60 0 -90 -28.333 -90 -85s30 -85 90 -85h30z" />
    <glyph glyph-name="scaron" unicode="&#x161;" horiz-adv-x="510" 
d="M358 754l-98 -64l-98 64c-27.333 18 -44.5 32 -51.5 42s-10.5 24.667 -10.5 44v15h90v-5c0 -6.66699 1.33301 -11.667 4 -15s9 -8.33301 19 -15l47 -31l47 31c10 6.66699 16.333 11.667 19 15s4 8.33301 4 15v5h90v-15c0 -19.333 -3.5 -34 -10.5 -44
s-24.167 -24 -51.5 -42zM280 390c63.333 0 112.5 -17.833 147.5 -53.5s52.5 -82.834 52.5 -141.501s-17.5 -105.834 -52.5 -141.501s-84.167 -53.5 -147.5 -53.5h-40c-63.333 0 -112.5 17.833 -147.5 53.5s-52.5 82.834 -52.5 141.501h120c0 -56.667 30 -85 90 -85h20
c60 0 90 28.333 90 85s-30 85 -90 85h-30c-63.333 0 -112.5 17.833 -147.5 53.5s-52.5 82.834 -52.5 141.501s17.5 105.834 52.5 141.501s84.167 53.5 147.5 53.5h40c63.333 0 112.5 -17.833 147.5 -53.5s52.5 -82.834 52.5 -141.501h-120c0 56.667 -30 85 -90 85h-20
c-60 0 -90 -28.333 -90 -85s30 -85 90 -85h30z" />
    <glyph glyph-name="uni0162" unicode="&#x162;" horiz-adv-x="460" 
d="M265 670c-54.667 -24.667 -89.333 -61.333 -104 -110h-151v110h255zM365.001 670.001l85.001 -0.000976562v-110h-85c-24.667 0 -43.334 -6.66699 -56.001 -20s-19 -36.666 -19 -69.999v-470h-15v-39c0 -43.333 -13.667 -76 -41 -98s-65.333 -33 -114 -33v80
c20.667 0 36.667 4.33301 48 13s17 26 17 52v25h-15v480c0 62.667 17.5 110 52.5 142s82.5 48 142.5 48z" />
    <glyph glyph-name="uni0163" unicode="&#x163;" horiz-adv-x="460" 
d="M265 670c-54.667 -24.667 -89.333 -61.333 -104 -110h-151v110h255zM365.001 670.001l85.001 -0.000976562v-110h-85c-24.667 0 -43.334 -6.66699 -56.001 -20s-19 -36.666 -19 -69.999v-470h-15v-39c0 -43.333 -13.667 -76 -41 -98s-65.333 -33 -114 -33v80
c20.667 0 36.667 4.33301 48 13s17 26 17 52v25h-15v480c0 62.667 17.5 110 52.5 142s82.5 48 142.5 48z" />
    <glyph glyph-name="Tcaron" unicode="&#x164;" horiz-adv-x="460" 
d="M328 754l-98 -64l-98 64c-27.333 18 -44.5 32 -51.5 42s-10.5 24.667 -10.5 44v15h90v-5c0 -6.66699 1.33301 -11.667 4 -15s9 -8.33301 19 -15l47 -31l47 31c10 6.66699 16.333 11.667 19 15s4 8.33301 4 15v5h90v-15c0 -19.333 -3.5 -34 -10.5 -44
s-24.167 -24 -51.5 -42zM10 560l0.000976562 110.001h255c-54.667 -24.667 -89.334 -61.334 -104.001 -110.001h-151zM170.001 0.000976562l0.000976562 479.999c0 62.667 17.5 110 52.5 142s82.5 48 142.5 48h85v-110h-85c-24.667 0 -43.334 -6.66699 -56.001 -20
s-19 -36.666 -19 -69.999v-470h-120z" />
    <glyph glyph-name="tcaron" unicode="&#x165;" horiz-adv-x="460" 
d="M328 754l-98 -64l-98 64c-27.333 18 -44.5 32 -51.5 42s-10.5 24.667 -10.5 44v15h90v-5c0 -6.66699 1.33301 -11.667 4 -15s9 -8.33301 19 -15l47 -31l47 31c10 6.66699 16.333 11.667 19 15s4 8.33301 4 15v5h90v-15c0 -19.333 -3.5 -34 -10.5 -44
s-24.167 -24 -51.5 -42zM10 560l0.000976562 110.001h255c-54.667 -24.667 -89.334 -61.334 -104.001 -110.001h-151zM170.001 0.000976562l0.000976562 479.999c0 62.667 17.5 110 52.5 142s82.5 48 142.5 48h85v-110h-85c-24.667 0 -43.334 -6.66699 -56.001 -20
s-19 -36.666 -19 -69.999v-470h-120z" />
    <glyph glyph-name="Tbar" unicode="&#x166;" horiz-adv-x="460" 
d="M10 560l0.000976562 110.001h255c-54.667 -24.667 -89.334 -61.334 -104.001 -110.001h-151zM170.001 410.001l0.000976562 69.999c0 62.667 17.5 110 52.5 142s82.5 48 142.5 48h85v-110h-85c-24.667 0 -43.334 -6.66699 -56.001 -20s-19 -36.666 -19 -69.999v-60h-120z
M90.002 280v110h280v-110h-280zM290.002 260v-260h-120v260h120z" />
    <glyph glyph-name="tbar" unicode="&#x167;" horiz-adv-x="460" 
d="M10 560l0.000976562 110.001h255c-54.667 -24.667 -89.334 -61.334 -104.001 -110.001h-151zM170.001 410.001l0.000976562 69.999c0 62.667 17.5 110 52.5 142s82.5 48 142.5 48h85v-110h-85c-24.667 0 -43.334 -6.66699 -56.001 -20s-19 -36.666 -19 -69.999v-60h-120z
M90.002 280v110h280v-110h-280zM290.002 260v-260h-120v260h120z" />
    <glyph glyph-name="Umacron" unicode="&#x16a;" 
d="M110 710v90h300v-90h-300zM360 670h120v-475c0 -58.667 -17.5 -105.834 -52.5 -141.501s-84.167 -53.5 -147.5 -53.5h-40c-63.333 0 -112.5 17.833 -147.5 53.5s-52.5 82.834 -52.5 141.501v475h120v-475c0 -56.667 30 -85 90 -85h20c60 0 90 28.333 90 85v475z" />
    <glyph glyph-name="umacron" unicode="&#x16b;" 
d="M110 710v90h300v-90h-300zM360 670h120v-475c0 -58.667 -17.5 -105.834 -52.5 -141.501s-84.167 -53.5 -147.5 -53.5h-40c-63.333 0 -112.5 17.833 -147.5 53.5s-52.5 82.834 -52.5 141.501v475h120v-475c0 -56.667 30 -85 90 -85h20c60 0 90 28.333 90 85v475z" />
    <glyph glyph-name="Uring" unicode="&#x16e;" 
d="M266 950c82.667 0 124 -40 124 -120s-41.333 -120 -124 -120h-12c-82.667 0 -124 40 -124 120s41.333 120 124 120h12zM263 786c28.667 0 43 14.667 43 44s-14.333 44 -43 44h-6c-28.667 0 -43 -14.667 -43 -44s14.333 -44 43 -44h6zM360 670h120v-475
c0 -58.667 -17.5 -105.834 -52.5 -141.501s-84.167 -53.5 -147.5 -53.5h-40c-63.333 0 -112.5 17.833 -147.5 53.5s-52.5 82.834 -52.5 141.501v475h120v-475c0 -56.667 30 -85 90 -85h20c60 0 90 28.333 90 85v475z" />
    <glyph glyph-name="uring" unicode="&#x16f;" 
d="M266 950c82.667 0 124 -40 124 -120s-41.333 -120 -124 -120h-12c-82.667 0 -124 40 -124 120s41.333 120 124 120h12zM263 786c28.667 0 43 14.667 43 44s-14.333 44 -43 44h-6c-28.667 0 -43 -14.667 -43 -44s14.333 -44 43 -44h6zM360 670h120v-475
c0 -58.667 -17.5 -105.834 -52.5 -141.501s-84.167 -53.5 -147.5 -53.5h-40c-63.333 0 -112.5 17.833 -147.5 53.5s-52.5 82.834 -52.5 141.501v475h120v-475c0 -56.667 30 -85 90 -85h20c60 0 90 28.333 90 85v475z" />
    <glyph glyph-name="Uhungarumlaut" unicode="&#x170;" 
d="M160 855h90.001c0 -46.667 -12.333 -82.5 -37 -107.5s-59.334 -37.5 -104.001 -37.5h-39v80h25c26 0 43.333 5.66699 52 17s13 27.333 13 48zM360.001 855h90.001c0 -46.667 -12.333 -82.5 -37 -107.5s-59.334 -37.5 -104.001 -37.5h-39v80h25c26 0 43.333 5.66699 52 17
s13 27.333 13 48zM360.002 670h120v-475c0 -58.667 -17.5 -105.834 -52.5 -141.501s-84.167 -53.5 -147.5 -53.5h-40c-63.333 0 -112.5 17.833 -147.5 53.5s-52.5 82.834 -52.5 141.501v475h120v-475c0 -56.667 30 -85 90 -85h20c60 0 90 28.333 90 85v475z" />
    <glyph glyph-name="uhungarumlaut" unicode="&#x171;" 
d="M160 855h90.001c0 -46.667 -12.333 -82.5 -37 -107.5s-59.334 -37.5 -104.001 -37.5h-39v80h25c26 0 43.333 5.66699 52 17s13 27.333 13 48zM360.001 855h90.001c0 -46.667 -12.333 -82.5 -37 -107.5s-59.334 -37.5 -104.001 -37.5h-39v80h25c26 0 43.333 5.66699 52 17
s13 27.333 13 48zM360.002 670h120v-475c0 -58.667 -17.5 -105.834 -52.5 -141.501s-84.167 -53.5 -147.5 -53.5h-40c-63.333 0 -112.5 17.833 -147.5 53.5s-52.5 82.834 -52.5 141.501v475h120v-475c0 -56.667 30 -85 90 -85h20c60 0 90 28.333 90 85v475z" />
    <glyph glyph-name="Uogonek" unicode="&#x172;" 
d="M360 670h119.998v-475c0 -50.667 -13.333 -93.167 -40 -127.5s-64 -55.5 -112 -63.5c-21.333 -3.33301 -37.166 -8 -47.499 -14s-15.5 -16 -15.5 -30v-10c0 -16.667 5.5 -27.5 16.5 -32.5s27.167 -7.5 48.5 -7.5v-80c-48.667 0 -86.667 8.5 -114 25.5
s-41 42.167 -41 75.5v18c0 22 6 40.333 18 55c-49.333 8.66699 -87.166 30 -113.499 64s-39.5 76.333 -39.5 127v475h120v-475c0 -56.667 30 -85 90 -85h20c60 0 90 28.333 90 85v475z" />
    <glyph glyph-name="uogonek" unicode="&#x173;" 
d="M360 670h119.998v-475c0 -50.667 -13.333 -93.167 -40 -127.5s-64 -55.5 -112 -63.5c-21.333 -3.33301 -37.166 -8 -47.499 -14s-15.5 -16 -15.5 -30v-10c0 -16.667 5.5 -27.5 16.5 -32.5s27.167 -7.5 48.5 -7.5v-80c-48.667 0 -86.667 8.5 -114 25.5
s-41 42.167 -41 75.5v18c0 22 6 40.333 18 55c-49.333 8.66699 -87.166 30 -113.499 64s-39.5 76.333 -39.5 127v475h120v-475c0 -56.667 30 -85 90 -85h20c60 0 90 28.333 90 85v475z" />
    <glyph glyph-name="Wcircumflex" unicode="&#x174;" horiz-adv-x="840" 
d="M518 811c27.333 -18 44.5 -32 51.5 -42s10.5 -24.667 10.5 -44v-15h-90v5c0 6.66699 -1.33301 11.667 -4 15s-9 8.33301 -19 15l-47 31l-47 -31c-10 -6.66699 -16.333 -11.667 -19 -15s-4 -8.33301 -4 -15v-5h-90v15c0 19.333 3.5 34 10.5 44s24.167 24 51.5 42l98 64z
M260 0c-45.333 0 -80.333 18.333 -105 55l-93 138c-8.66699 12.667 -14.5 24.834 -17.5 36.501s-4.5 28.5 -4.5 50.5v390h120v-405c0 -6.66699 1.66699 -12.334 5 -17.001l161 -229c-20 -12.667 -42 -19 -66 -19zM580 0c-45.333 0 -80.333 18.333 -105 55l-55 82l-53 -77
c-6 -8.66699 -13 -17 -21 -25l-70 100l79 113c3.33301 4.66699 5 10.334 5 17.001v405h120v-405c0 -6.66699 1.66699 -12.334 5 -17.001l161 -229c-20 -12.667 -42 -19 -66 -19zM666 35l-70 100l79 113c3.33301 4.66699 5 10.334 5 17.001v405h120v-390
c0 -22 -1.5 -38.833 -4.5 -50.5s-8.83301 -23.834 -17.5 -36.501l-91 -133c-6 -8.66699 -13 -17 -21 -25z" />
    <glyph glyph-name="wcircumflex" unicode="&#x175;" horiz-adv-x="840" 
d="M518 811c27.333 -18 44.5 -32 51.5 -42s10.5 -24.667 10.5 -44v-15h-90v5c0 6.66699 -1.33301 11.667 -4 15s-9 8.33301 -19 15l-47 31l-47 -31c-10 -6.66699 -16.333 -11.667 -19 -15s-4 -8.33301 -4 -15v-5h-90v15c0 19.333 3.5 34 10.5 44s24.167 24 51.5 42l98 64z
M260 0c-45.333 0 -80.333 18.333 -105 55l-93 138c-8.66699 12.667 -14.5 24.834 -17.5 36.501s-4.5 28.5 -4.5 50.5v390h120v-405c0 -6.66699 1.66699 -12.334 5 -17.001l161 -229c-20 -12.667 -42 -19 -66 -19zM580 0c-45.333 0 -80.333 18.333 -105 55l-55 82l-53 -77
c-6 -8.66699 -13 -17 -21 -25l-70 100l79 113c3.33301 4.66699 5 10.334 5 17.001v405h120v-405c0 -6.66699 1.66699 -12.334 5 -17.001l161 -229c-20 -12.667 -42 -19 -66 -19zM666 35l-70 100l79 113c3.33301 4.66699 5 10.334 5 17.001v405h120v-390
c0 -22 -1.5 -38.833 -4.5 -50.5s-8.83301 -23.834 -17.5 -36.501l-91 -133c-6 -8.66699 -13 -17 -21 -25z" />
    <glyph glyph-name="Ycircumflex" unicode="&#x176;" horiz-adv-x="500" 
d="M348 811c27.333 -18 44.5 -32 51.5 -42s10.5 -24.667 10.5 -44v-15h-90v5c0 6.66699 -1.33301 11.667 -4 15s-9 8.33301 -19 15l-47 31l-47 -31c-10 -6.66699 -16.333 -11.667 -19 -15s-4 -8.33301 -4 -15v-5h-90v15c0 19.333 3.5 34 10.5 44s24.167 24 51.5 42l98 64z
M174 235l-122 178c-8.66699 12.667 -14.5 24.834 -17.5 36.501s-4.5 28.5 -4.5 50.5v170h120v-185c0 -6.66699 1.66699 -12.334 5 -17.001l82 -119c-32.667 -43.333 -53.667 -81.333 -63 -114zM190 0v205c0 28.667 15.667 65.334 47 110.001l108 153
c3.33301 4.66699 5 10.334 5 17.001v185h120v-170c0 -22 -1.5 -38.833 -4.5 -50.5s-8.83301 -23.834 -17.5 -36.501l-91 -133c-31.333 -46.667 -47 -83.334 -47 -110.001v-170h-120z" />
    <glyph glyph-name="ycircumflex" unicode="&#x177;" horiz-adv-x="500" 
d="M348 811c27.333 -18 44.5 -32 51.5 -42s10.5 -24.667 10.5 -44v-15h-90v5c0 6.66699 -1.33301 11.667 -4 15s-9 8.33301 -19 15l-47 31l-47 -31c-10 -6.66699 -16.333 -11.667 -19 -15s-4 -8.33301 -4 -15v-5h-90v15c0 19.333 3.5 34 10.5 44s24.167 24 51.5 42l98 64z
M174 235l-122 178c-8.66699 12.667 -14.5 24.834 -17.5 36.501s-4.5 28.5 -4.5 50.5v170h120v-185c0 -6.66699 1.66699 -12.334 5 -17.001l82 -119c-32.667 -43.333 -53.667 -81.333 -63 -114zM190 0v205c0 28.667 15.667 65.334 47 110.001l108 153
c3.33301 4.66699 5 10.334 5 17.001v185h120v-170c0 -22 -1.5 -38.833 -4.5 -50.5s-8.83301 -23.834 -17.5 -36.501l-91 -133c-31.333 -46.667 -47 -83.334 -47 -110.001v-170h-120z" />
    <glyph glyph-name="Ydieresis" unicode="&#x178;" horiz-adv-x="500" 
d="M210 830v-120h-120v20c0 66.667 33.333 100 100 100h20zM290 710v120h120v-20c0 -66.667 -33.333 -100 -100 -100h-20zM174 235l-122 178c-8.66699 12.667 -14.5 24.834 -17.5 36.501s-4.5 28.5 -4.5 50.5v170h120v-185c0 -6.66699 1.66699 -12.334 5 -17.001l82 -119
c-32.667 -43.333 -53.667 -81.333 -63 -114zM190 0v205c0 28.667 15.667 65.334 47 110.001l108 153c3.33301 4.66699 5 10.334 5 17.001v185h120v-170c0 -22 -1.5 -38.833 -4.5 -50.5s-8.83301 -23.834 -17.5 -36.501l-91 -133c-31.333 -46.667 -47 -83.334 -47 -110.001
v-170h-120z" />
    <glyph glyph-name="Zacute" unicode="&#x179;" horiz-adv-x="500" 
d="M280 855h90.001c0 -46.667 -12.333 -82.5 -37 -107.5s-59.334 -37.5 -104.001 -37.5h-39v80h25c26 0 43.333 5.66699 52 17s13 27.333 13 48zM30.001 0v45c0 41.333 20.667 93.333 62 156l235 354c15.333 23.333 23 50 23 80v35h120v-45
c0 -41.333 -20.667 -93.333 -62 -156l-235 -354c-15.333 -23.333 -23 -50 -23 -80v-35h-120zM30.001 560v110h300v-35c0 -26 -6.66699 -49 -20 -69l-4 -6h-276zM170.001 0v35c0 26 6.66699 49 20 69l4 6h276v-110h-300z" />
    <glyph glyph-name="zacute" unicode="&#x17a;" horiz-adv-x="500" 
d="M280 855h90.001c0 -46.667 -12.333 -82.5 -37 -107.5s-59.334 -37.5 -104.001 -37.5h-39v80h25c26 0 43.333 5.66699 52 17s13 27.333 13 48zM30.001 0v45c0 41.333 20.667 93.333 62 156l235 354c15.333 23.333 23 50 23 80v35h120v-45
c0 -41.333 -20.667 -93.333 -62 -156l-235 -354c-15.333 -23.333 -23 -50 -23 -80v-35h-120zM30.001 560v110h300v-35c0 -26 -6.66699 -49 -20 -69l-4 -6h-276zM170.001 0v35c0 26 6.66699 49 20 69l4 6h276v-110h-300z" />
    <glyph glyph-name="Zdotaccent" unicode="&#x17b;" horiz-adv-x="500" 
d="M190 710v120h120v-20c0 -66.667 -33.333 -100 -100 -100h-20zM30 0v45c0 41.333 20.667 93.333 62 156l235 354c15.333 23.333 23 50 23 80v35h120v-45c0 -41.333 -20.667 -93.333 -62 -156l-235 -354c-15.333 -23.333 -23 -50 -23 -80v-35h-120zM30 560v110h300v-35
c0 -26 -6.66699 -49 -20 -69l-4 -6h-276zM170 0v35c0 26 6.66699 49 20 69l4 6h276v-110h-300z" />
    <glyph glyph-name="zdotaccent" unicode="&#x17c;" horiz-adv-x="500" 
d="M190 710v120h120v-20c0 -66.667 -33.333 -100 -100 -100h-20zM30 0v45c0 41.333 20.667 93.333 62 156l235 354c15.333 23.333 23 50 23 80v35h120v-45c0 -41.333 -20.667 -93.333 -62 -156l-235 -354c-15.333 -23.333 -23 -50 -23 -80v-35h-120zM30 560v110h300v-35
c0 -26 -6.66699 -49 -20 -69l-4 -6h-276zM170 0v35c0 26 6.66699 49 20 69l4 6h276v-110h-300z" />
    <glyph glyph-name="Zcaron" unicode="&#x17d;" horiz-adv-x="500" 
d="M348 754l-98 -64l-98 64c-27.333 18 -44.5 32 -51.5 42s-10.5 24.667 -10.5 44v15h90v-5c0 -6.66699 1.33301 -11.667 4 -15s9 -8.33301 19 -15l47 -31l47 31c10 6.66699 16.333 11.667 19 15s4 8.33301 4 15v5h90v-15c0 -19.333 -3.5 -34 -10.5 -44
s-24.167 -24 -51.5 -42zM30 0v45c0 41.333 20.667 93.333 62 156l235 354c15.333 23.333 23 50 23 80v35h120v-45c0 -41.333 -20.667 -93.333 -62 -156l-235 -354c-15.333 -23.333 -23 -50 -23 -80v-35h-120zM30 560v110h300v-35c0 -26 -6.66699 -49 -20 -69l-4 -6h-276z
M170 0v35c0 26 6.66699 49 20 69l4 6h276v-110h-300z" />
    <glyph glyph-name="zcaron" unicode="&#x17e;" horiz-adv-x="500" 
d="M348 754l-98 -64l-98 64c-27.333 18 -44.5 32 -51.5 42s-10.5 24.667 -10.5 44v15h90v-5c0 -6.66699 1.33301 -11.667 4 -15s9 -8.33301 19 -15l47 -31l47 31c10 6.66699 16.333 11.667 19 15s4 8.33301 4 15v5h90v-15c0 -19.333 -3.5 -34 -10.5 -44
s-24.167 -24 -51.5 -42zM30 0v45c0 41.333 20.667 93.333 62 156l235 354c15.333 23.333 23 50 23 80v35h120v-45c0 -41.333 -20.667 -93.333 -62 -156l-235 -354c-15.333 -23.333 -23 -50 -23 -80v-35h-120zM30 560v110h300v-35c0 -26 -6.66699 -49 -20 -69l-4 -6h-276z
M170 0v35c0 26 6.66699 49 20 69l4 6h276v-110h-300z" />
    <glyph glyph-name="florin" unicode="&#x192;" horiz-adv-x="590" 
d="M482 670l68 -0.000976562v-110h-73c-60.667 0 -94.667 -28.333 -102 -85l-12 -85h112v-110h-370v110h138l12 85c8 58.667 32 105.834 72 141.501s91.667 53.5 155 53.5zM215 194.999l9.99805 64.999h120l-10 -65c-9.33301 -59.333 -33.666 -106.666 -72.999 -141.999
s-90.666 -53 -153.999 -53h-68v110h73c59.333 0 93.333 28.333 102 85z" />
    <glyph glyph-name="Scommaaccent" unicode="&#x218;" horiz-adv-x="510" 
d="M280 390c63.333 0 112.5 -17.833 147.5 -53.5s52.5 -82.834 52.5 -141.501s-17.5 -105.834 -52.5 -141.501s-84.167 -53.5 -147.5 -53.5h-40c-63.333 0 -112.5 17.833 -147.5 53.5s-52.5 82.834 -52.5 141.501h120c0 -56.667 30 -85 90 -85h20c60 0 90 28.333 90 85
s-30 85 -90 85h-30c-63.333 0 -112.5 17.833 -147.5 53.5s-52.5 82.834 -52.5 141.501s17.5 105.834 52.5 141.501s84.167 53.5 147.5 53.5h40c63.333 0 112.5 -17.833 147.5 -53.5s52.5 -82.834 52.5 -141.501h-120c0 56.667 -30 85 -90 85h-20c-60 0 -90 -28.333 -90 -85
s30 -85 90 -85h30zM150 -111c20.667 0 36.667 4.33301 48 13s17 26 17 52v25h90v-39c0 -43.333 -13.667 -76 -41 -98s-65.333 -33 -114 -33v80z" />
    <glyph glyph-name="scommaaccent" unicode="&#x219;" horiz-adv-x="510" 
d="M280 390c63.333 0 112.5 -17.833 147.5 -53.5s52.5 -82.834 52.5 -141.501s-17.5 -105.834 -52.5 -141.501s-84.167 -53.5 -147.5 -53.5h-40c-63.333 0 -112.5 17.833 -147.5 53.5s-52.5 82.834 -52.5 141.501h120c0 -56.667 30 -85 90 -85h20c60 0 90 28.333 90 85
s-30 85 -90 85h-30c-63.333 0 -112.5 17.833 -147.5 53.5s-52.5 82.834 -52.5 141.501s17.5 105.834 52.5 141.501s84.167 53.5 147.5 53.5h40c63.333 0 112.5 -17.833 147.5 -53.5s52.5 -82.834 52.5 -141.501h-120c0 56.667 -30 85 -90 85h-20c-60 0 -90 -28.333 -90 -85
s30 -85 90 -85h30zM150 -111c20.667 0 36.667 4.33301 48 13s17 26 17 52v25h90v-39c0 -43.333 -13.667 -76 -41 -98s-65.333 -33 -114 -33v80z" />
    <glyph glyph-name="uni021A" unicode="&#x21a;" horiz-adv-x="460" 
d="M10 560l0.000976562 110.001h255c-54.667 -24.667 -89.334 -61.334 -104.001 -110.001h-151zM170.001 0.000976562l0.000976562 479.999c0 62.667 17.5 110 52.5 142s82.5 48 142.5 48h85v-110h-85c-24.667 0 -43.334 -6.66699 -56.001 -20s-19 -36.666 -19 -69.999v-470
h-120zM120.002 -110c20.667 0 36.667 4.33301 48 13s17 26 17 52v25h90v-39c0 -43.333 -13.667 -76 -41 -98s-65.333 -33 -114 -33v80z" />
    <glyph glyph-name="uni021B" unicode="&#x21b;" horiz-adv-x="460" 
d="M10 560l0.000976562 110.001h255c-54.667 -24.667 -89.334 -61.334 -104.001 -110.001h-151zM170.001 0.000976562l0.000976562 479.999c0 62.667 17.5 110 52.5 142s82.5 48 142.5 48h85v-110h-85c-24.667 0 -43.334 -6.66699 -56.001 -20s-19 -36.666 -19 -69.999v-470
h-120zM120.002 -110c20.667 0 36.667 4.33301 48 13s17 26 17 52v25h90v-39c0 -43.333 -13.667 -76 -41 -98s-65.333 -33 -114 -33v80z" />
    <glyph glyph-name="circumflex" unicode="&#x2c6;" horiz-adv-x="400" 
d="M298 811c27.333 -18 44.5 -32 51.5 -42s10.5 -24.667 10.5 -44v-15h-90v5c0 6.66699 -1.33301 11.667 -4 15s-9 8.33301 -19 15l-47 31l-47 -31c-10 -6.66699 -16.333 -11.667 -19 -15s-4 -8.33301 -4 -15v-5h-90v15c0 19.333 3.5 34 10.5 44s24.167 24 51.5 42l98 64z
" />
    <glyph glyph-name="caron" unicode="&#x2c7;" horiz-adv-x="400" 
d="M298 754l-98 -64l-98 64c-27.333 18 -44.5 32 -51.5 42s-10.5 24.667 -10.5 44v15h90v-5c0 -6.66699 1.33301 -11.667 4 -15s9 -8.33301 19 -15l47 -31l47 31c10 6.66699 16.333 11.667 19 15s4 8.33301 4 15v5h90v-15c0 -19.333 -3.5 -34 -10.5 -44
s-24.167 -24 -51.5 -42z" />
    <glyph glyph-name="breve" unicode="&#x2d8;" horiz-adv-x="400" 
d="M270 855h90.002c0 -46.667 -12.333 -82.5 -37 -107.5s-59.334 -37.5 -104.001 -37.5h-38c-44.667 0 -79.334 12.5 -104.001 37.5s-37 60.833 -37 107.5h90c0 -20.667 4.33301 -36.667 13 -48s26 -17 52 -17h10c26 0 43.333 5.66699 52 17s13 27.333 13 48z" />
    <glyph glyph-name="dotaccent" unicode="&#x2d9;" horiz-adv-x="200" 
d="M40 710v120h120v-20c0 -66.667 -33.333 -100 -100 -100h-20z" />
    <glyph glyph-name="ring" unicode="&#x2da;" horiz-adv-x="340" 
d="M176 950c82.667 0 124 -40 124 -120s-41.333 -120 -124 -120h-12c-82.667 0 -124 40 -124 120s41.333 120 124 120h12zM173 786c28.667 0 43 14.667 43 44s-14.333 44 -43 44h-6c-28.667 0 -43 -14.667 -43 -44s14.333 -44 43 -44h6z" />
    <glyph glyph-name="ogonek" unicode="&#x2db;" horiz-adv-x="235" 
d="M195 -90v-80c-48.667 0 -86.667 8.5 -114 25.5s-41 42.167 -41 75.5v18c0 33.333 13.667 58.5 41 75.5s65.333 25.5 114 25.5v-50c-21.333 0 -37.5 -2.5 -48.5 -7.5s-16.5 -15.833 -16.5 -32.5v-10c0 -16.667 5.5 -27.5 16.5 -32.5s27.167 -7.5 48.5 -7.5z" />
    <glyph glyph-name="tilde" unicode="&#x2dc;" horiz-adv-x="460" 
d="M420 855h-80c0 -36.667 -12 -55 -36 -55c-10.667 0 -21.667 2.83301 -33 8.5s-21.5 12 -30.5 19s-21.5 13.333 -37.5 19s-33.333 8.5 -52 8.5c-74 0 -111 -48.333 -111 -145h80c0 36.667 12 55 36 55c12.667 0 26 -4.5 40 -13.5s30.333 -18.167 49 -27.5s40 -14 64 -14
c74 0 111 48.333 111 145z" />
    <glyph glyph-name="hungarumlaut" unicode="&#x2dd;" horiz-adv-x="460" 
d="M130 855h90.001c0 -46.667 -12.333 -82.5 -37 -107.5s-59.334 -37.5 -104.001 -37.5h-39v80h25c26 0 43.333 5.66699 52 17s13 27.333 13 48zM330.001 855h90.001c0 -46.667 -12.333 -82.5 -37 -107.5s-59.334 -37.5 -104.001 -37.5h-39v80h25c26 0 43.333 5.66699 52 17
s13 27.333 13 48z" />
    <glyph glyph-name="gravecomb" unicode="&#x300;" horiz-adv-x="0" 
d="M-130 855c0 -20.667 4.33398 -36.667 13.001 -48s26 -17 52 -17h25v-80h-39c-44.667 0 -79.334 12.5 -104.001 37.5s-37 60.833 -37 107.5h90z" />
    <glyph glyph-name="acutecomb" unicode="&#x301;" horiz-adv-x="0" 
d="M-130 855h90.001c0 -46.667 -12.333 -82.5 -37 -107.5s-59.334 -37.5 -104.001 -37.5h-39v80h25c26 0 43.333 5.66699 52 17s13 27.333 13 48z" />
    <glyph glyph-name="uni0302" unicode="&#x302;" horiz-adv-x="0" 
d="M-102 811c27.333 -18 44.5 -32 51.5 -42s10.5 -24.667 10.5 -44v-15h-90v5c0 6.66699 -1.33301 11.667 -4 15s-9 8.33301 -19 15l-47 31l-47 -31c-10 -6.66699 -16.333 -11.667 -19 -15s-4 -8.33301 -4 -15v-5h-90v15c0 19.333 3.5 34 10.5 44s24.167 24 51.5 42l98 64z
" />
    <glyph glyph-name="tildecomb" unicode="&#x303;" horiz-adv-x="0" 
d="M-40 855h-80c0 -36.667 -12 -55 -36 -55c-10.667 0 -21.667 2.83301 -33 8.5s-21.5 12 -30.5 19s-21.5 13.333 -37.5 19s-33.333 8.5 -52 8.5c-74 0 -111 -48.333 -111 -145h80c0 36.667 12 55 36 55c12.667 0 26 -4.5 40 -13.5s30.333 -18.167 49 -27.5s40 -14 64 -14
c74 0 111 48.333 111 145z" />
    <glyph glyph-name="uni0304" unicode="&#x304;" horiz-adv-x="0" 
d="M-340 710v90h300v-90h-300z" />
    <glyph glyph-name="uni0306" unicode="&#x306;" horiz-adv-x="0" 
d="M-130 855h90.002c0 -46.667 -12.333 -82.5 -37 -107.5s-59.334 -37.5 -104.001 -37.5h-38c-44.667 0 -79.334 12.5 -104.001 37.5s-37 60.833 -37 107.5h90c0 -20.667 4.33301 -36.667 13 -48s26 -17 52 -17h10c26 0 43.333 5.66699 52 17s13 27.333 13 48z" />
    <glyph glyph-name="uni0307" unicode="&#x307;" horiz-adv-x="0" 
d="M-160 710v120h120v-20c0 -66.667 -33.333 -100 -100 -100h-20z" />
    <glyph glyph-name="uni0308" unicode="&#x308;" horiz-adv-x="0" 
d="M-240 830v-120h-120v20c0 66.667 33.333 100 100 100h20zM-160 710v120h120v-20c0 -66.667 -33.333 -100 -100 -100h-20z" />
    <glyph glyph-name="uni030A" unicode="&#x30a;" horiz-adv-x="0" 
d="M-164 950c82.667 0 124 -40 124 -120s-41.333 -120 -124 -120h-12c-82.667 0 -124 40 -124 120s41.333 120 124 120h12zM-167 786c28.667 0 43 14.667 43 44s-14.333 44 -43 44h-6c-28.667 0 -43 -14.667 -43 -44s14.333 -44 43 -44h6z" />
    <glyph glyph-name="uni030B" unicode="&#x30b;" horiz-adv-x="0" 
d="M-330 855h90.001c0 -46.667 -12.333 -82.5 -37 -107.5s-59.334 -37.5 -104.001 -37.5h-39v80h25c26 0 43.333 5.66699 52 17s13 27.333 13 48zM-129.999 855h90.001c0 -46.667 -12.333 -82.5 -37 -107.5s-59.334 -37.5 -104.001 -37.5h-39v80h25
c26 0 43.333 5.66699 52 17s13 27.333 13 48z" />
    <glyph glyph-name="uni030C" unicode="&#x30c;" horiz-adv-x="0" 
d="M-102 754l-98 -64l-98 64c-27.333 18 -44.5 32 -51.5 42s-10.5 24.667 -10.5 44v15h90v-5c0 -6.66699 1.33301 -11.667 4 -15s9 -8.33301 19 -15l47 -31l47 31c10 6.66699 16.333 11.667 19 15s4 8.33301 4 15v5h90v-15c0 -19.333 -3.5 -34 -10.5 -44
s-24.167 -24 -51.5 -42z" />
    <glyph glyph-name="uni0312" unicode="&#x312;" horiz-adv-x="0" 
d="M-40 780c-20.667 0 -36.667 -4.33301 -48 -13s-17 -26 -17 -52v-15h-90v29c0 43.333 13.667 76 41 98s65.333 33 114 33v-80z" />
    <glyph glyph-name="uni0326" unicode="&#x326;" horiz-adv-x="0" 
d="M-195 -110c20.667 0 36.667 4.33301 48 13s17 26 17 52v25h90v-39c0 -43.333 -13.667 -76 -41 -98s-65.333 -33 -114 -33v80z" />
    <glyph glyph-name="uni0327" unicode="&#x327;" horiz-adv-x="0" 
d="M-195 -90c20.667 0 36.667 4.33301 48 13s17 26 17 52v35h90v-49c0 -43.333 -13.667 -76 -41 -98s-65.333 -33 -114 -33v80z" />
    <glyph glyph-name="uni0328" unicode="&#x328;" horiz-adv-x="0" 
d="M-40 -90v-80c-48.667 0 -86.667 8.5 -114 25.5s-41 42.167 -41 75.5v18c0 33.333 13.667 58.5 41 75.5s65.333 25.5 114 25.5v-50c-21.333 0 -37.5 -2.5 -48.5 -7.5s-16.5 -15.833 -16.5 -32.5v-10c0 -16.667 5.5 -27.5 16.5 -32.5s27.167 -7.5 48.5 -7.5z" />
    <glyph glyph-name="uni0394" unicode="&#x394;" horiz-adv-x="532" 
d="M436 519l65.998 -519h-472l66 519c7.33301 55.333 25.333 94.333 54 117s67.334 34 116.001 34s87.334 -11.333 116.001 -34s46.667 -61.667 54 -117zM163.998 110h204l-48 395c-2.66699 22.667 -8.16699 37.5 -16.5 44.5s-20.833 10.5 -37.5 10.5
s-29.167 -3.5 -37.5 -10.5s-13.833 -21.833 -16.5 -44.5z" />
    <glyph glyph-name="uni03A9" unicode="&#x3a9;" horiz-adv-x="590" 
d="M550 335c0 -42.667 -9.33301 -79.5 -28 -110.5s-46 -53.833 -82 -68.5v-46h110v-110h-230v250h20c60 0 90 28.333 90 85v140c0 56.667 -30 85 -90 85h-90c-60 0 -90 -28.333 -90 -85v-140c0 -56.667 30 -85 90 -85h20v-250h-230v110h110v46
c-36 14.667 -63.333 37.5 -82 68.5s-28 67.833 -28 110.5v140c0 58.667 17.5 105.834 52.5 141.501s84.167 53.5 147.5 53.5h110c63.333 0 112.5 -17.833 147.5 -53.5s52.5 -82.834 52.5 -141.501v-140z" />
    <glyph glyph-name="uni03BC" unicode="&#x3bc;" 
d="M160 -200h-120v870h120v-870zM360 670l120 0.000976562v-475c0 -58.667 -17.5 -105.834 -52.5 -141.501s-84.167 -53.5 -147.5 -53.5h-40c-22 0 -42 2 -60 6v128c14.667 -16 38 -24 70 -24h20c60 0 90 28.333 90 85v475z" />
    <glyph glyph-name="pi" unicode="&#x3c0;" 
d="M480 670v-670h-120v560h-200v-560h-120v670h440z" />
    <glyph glyph-name="uni0401" unicode="&#x401;" horiz-adv-x="500" 
d="M220 830v-120h-120v20c0 66.667 33.333 100 100 100h20zM300 710v120h120v-20c0 -66.667 -33.333 -100 -100 -100h-20zM250 560c-60 0 -90 -28.335 -90 -85.002v-20c0 -56.667 30 -85 90 -85h110v-110h-120c-63.333 0 -112.5 17.833 -147.5 53.5
s-52.5 82.834 -52.5 141.501v20c0 58.667 17.5 105.834 52.5 141.501s84.167 53.5 147.5 53.5h240v-110h-230zM160 194.998c0 -56.667 30 -85.001 90 -85.001h230v-110h-240c-63.333 0 -112.5 17.833 -147.5 53.5s-52.5 82.834 -52.5 141.501v160
c23.333 -52 63.333 -86.667 120 -104v-56z" />
    <glyph glyph-name="uni0402" unicode="&#x402;" horiz-adv-x="640" 
d="M265 670c-54.667 -24.667 -89.333 -61.333 -104 -110h-151v110h255zM410.001 390.001c63.333 0 112.501 -17.832 147.501 -53.499s52.5 -82.834 52.5 -141.501s-17.5 -105.834 -52.5 -141.501s-84.167 -53.5 -147.5 -53.5h-240v480c0 62.667 17.5 110 52.5 142
s82.5 48 142.5 48h125v-110h-125c-24.667 0 -43.334 -6.66699 -56.001 -20s-19 -36.666 -19 -69.999v-360h120c53.333 0 80 28.333 80 85s-26.667 85 -80 85h-100v110h100z" />
    <glyph glyph-name="uni0403" unicode="&#x403;" horiz-adv-x="470" 
d="M310 855h90.001c0 -46.667 -12.333 -82.5 -37 -107.5s-59.334 -37.5 -104.001 -37.5h-39v80h25c26 0 43.333 5.66699 52 17s13 27.333 13 48zM240.001 670l220 -0.000976562v-110h-210c-60 0 -90 -28.333 -90 -85v-475h-120v475c0 58.667 17.5 105.834 52.5 141.501
s84.167 53.5 147.5 53.5z" />
    <glyph glyph-name="uni0404" unicode="&#x404;" horiz-adv-x="500" 
d="M160 195c0 -56.667 30 -85.001 90 -85.001h230v-110h-240c-63.333 0 -112.5 17.833 -147.5 53.5s-52.5 82.834 -52.5 141.501v280c0 58.667 17.5 105.834 52.5 141.501s84.167 53.5 147.5 53.5h40c63.333 0 112.5 -17.833 147.5 -53.5s52.5 -82.834 52.5 -141.501h-120
c0 56.667 -30 85 -90 85h-20c-60 0 -90 -28.333 -90 -85v-105h200v-110h-200v-65z" />
    <glyph glyph-name="uni0405" unicode="&#x405;" horiz-adv-x="510" 
d="M280 390c63.333 0 112.5 -17.833 147.5 -53.5s52.5 -82.834 52.5 -141.501s-17.5 -105.834 -52.5 -141.501s-84.167 -53.5 -147.5 -53.5h-40c-63.333 0 -112.5 17.833 -147.5 53.5s-52.5 82.834 -52.5 141.501h120c0 -56.667 30 -85 90 -85h20c60 0 90 28.333 90 85
s-30 85 -90 85h-30c-63.333 0 -112.5 17.833 -147.5 53.5s-52.5 82.834 -52.5 141.501s17.5 105.834 52.5 141.501s84.167 53.5 147.5 53.5h40c63.333 0 112.5 -17.833 147.5 -53.5s52.5 -82.834 52.5 -141.501h-120c0 56.667 -30 85 -90 85h-20c-60 0 -90 -28.333 -90 -85
s30 -85 90 -85h30z" />
    <glyph glyph-name="uni0406" unicode="&#x406;" horiz-adv-x="380" 
d="M325 0c-60 0 -107.5 16 -142.5 48s-52.5 79.333 -52.5 142v280c0 33.333 -6.33301 56.666 -19 69.999s-31.334 20 -56.001 20h-25v110h25c60 0 107.5 -16 142.5 -48s52.5 -79.333 52.5 -142v-280c0 -33.333 6.33301 -56.666 19 -69.999s31.334 -20 56.001 -20h25v-110
h-25zM259 560c-14.667 48.667 -49.333 85.333 -104 110h195v-110h-91zM30.001 -0.000976562l-0.000976562 110.001h91c14.667 -48.667 49.334 -85.334 104.001 -110.001h-195z" />
    <glyph glyph-name="uni0407" unicode="&#x407;" horiz-adv-x="380" 
d="M150 830v-120h-120v20c0 66.667 33.333 100 100 100h20zM230 710v120h120v-20c0 -66.667 -33.333 -100 -100 -100h-20zM325 0c-60 0 -107.5 16 -142.5 48s-52.5 79.333 -52.5 142v280c0 33.333 -6.33301 56.666 -19 69.999s-31.334 20 -56.001 20h-25v110h25
c60 0 107.5 -16 142.5 -48s52.5 -79.333 52.5 -142v-280c0 -33.333 6.33301 -56.666 19 -69.999s31.334 -20 56.001 -20h25v-110h-25zM259 560c-14.667 48.667 -49.333 85.333 -104 110h195v-110h-91zM30.001 -0.000976562l-0.000976562 110.001h91
c14.667 -48.667 49.334 -85.334 104.001 -110.001h-195z" />
    <glyph glyph-name="uni0408" unicode="&#x408;" 
d="M360 670h120v-475c0 -58.667 -17.5 -105.834 -52.5 -141.501s-84.167 -53.5 -147.5 -53.5h-60c-63.333 0 -112.5 17.833 -147.5 53.5s-52.5 82.834 -52.5 141.501h120c0 -56.667 30 -85 90 -85h40c60 0 90 28.333 90 85v475z" />
    <glyph glyph-name="uni0409" unicode="&#x409;" horiz-adv-x="850" 
d="M620 390c63.333 0 112.503 -17.8311 147.503 -53.498s52.5 -82.834 52.5 -141.501s-17.5 -105.834 -52.5 -141.501s-84.167 -53.5 -147.5 -53.5h-240v560h-110c-16.667 0 -29.334 -3.66699 -38.001 -11s-14 -22 -16 -44l-30 -365c-4 -51.333 -19.333 -87.5 -46 -108.5
s-63.334 -31.5 -110.001 -31.5h-10v110h20c15.333 0 23.333 6.66699 24 20l36 389c5.33301 56 23.666 95.167 54.999 117.5s76.333 33.5 135 33.5h210v-560h110c60 0 90 28.333 90 85s-26.667 85 -80 85h-100v110h100z" />
    <glyph glyph-name="uni040A" unicode="&#x40a;" horiz-adv-x="830" 
d="M600 390c63.333 0 112.5 -17.8311 147.5 -53.498s52.5 -82.834 52.5 -141.501s-17.5 -105.834 -52.5 -141.501s-84.167 -53.5 -147.5 -53.5h-240v195c0 56.667 -30 85 -90 85h-30c-63.333 0 -112.5 17.833 -147.5 53.5s-52.5 82.834 -52.5 141.501v195h120v-195
c0 -56.667 30 -85 90 -85h30c63.333 0 112.5 -17.833 147.5 -53.5s52.5 -82.834 52.5 -141.501v-85h110c60 0 90 28.333 90 85s-26.667 85 -80 85h-100v110h100zM480 295.002c-23.333 52 -63.333 86.667 -120 104v271h120v-375zM40 375.002
c23.333 -52 63.333 -86.667 120 -104v-271h-120v375z" />
    <glyph glyph-name="uni040B" unicode="&#x40b;" horiz-adv-x="650" 
d="M265 670c-54.667 -24.667 -89.333 -61.333 -104 -110h-151v110h255zM410.001 390.001c63.333 0 112.501 -17.833 147.501 -53.5s52.5 -82.834 52.5 -141.501v-195h-120v195c0 56.667 -26.667 85 -80 85h-120v-280h-120v480c0 62.667 17.5 110 52.5 142s82.5 48 142.5 48
h125v-110h-125c-24.667 0 -43.334 -6.66699 -56.001 -20s-19 -36.666 -19 -69.999v-80h120z" />
    <glyph glyph-name="uni040C" unicode="&#x40c;" 
d="M310 855h90.001c0 -46.667 -12.333 -82.5 -37 -107.5s-59.334 -37.5 -104.001 -37.5h-39v80h25c26 0 43.333 5.66699 52 17s13 27.333 13 48zM440.001 450c-10 -52.667 -31 -91.001 -63 -115.001c32 -24 53 -62.333 63 -115l16 -90c2.66699 -13.333 10.667 -20 24 -20h20
v-110h-10c-46 0 -81.5 10.333 -106.5 31s-41.5 57 -49.5 109l-10 66c-8 49.333 -36 74 -84 74c-53.333 0 -80 -28.333 -80 -85v-195h-120v195c0 58.667 17.5 105.834 52.5 141.501s84.167 53.5 147.5 53.5c48 0 76 24.667 84 74l10 66c8 52 24.5 88.333 49.5 109
s60.5 31 106.5 31h10v-110h-20c-13.333 0 -21.333 -6.66699 -24 -20zM160.001 398.999c-56.667 -17.333 -96.667 -52 -120 -104v375h120v-271z" />
    <glyph glyph-name="uni040E" unicode="&#x40e;" horiz-adv-x="510" 
d="M330 855h90.002c0 -46.667 -12.333 -82.5 -37 -107.5s-59.334 -37.5 -104.001 -37.5h-38c-44.667 0 -79.334 12.5 -104.001 37.5s-37 60.833 -37 107.5h90c0 -20.667 4.33301 -36.667 13 -48s26 -17 52 -17h10c26 0 43.333 5.66699 52 17s13 27.333 13 48zM177.002 245
l-115 168.001c-14.667 21.333 -22 50.333 -22 87v170h120v-185c0 -6.66699 1.66699 -12.334 5 -17.001l82 -119zM360.002 670.001l119.999 -0.000976562v-170c0 -22 -1.5 -38.833 -4.5 -50.5s-8.83301 -23.834 -17.5 -36.501l-221 -323
c-21.333 -31.333 -45.166 -54.166 -71.499 -68.499s-59.833 -21.5 -100.5 -21.5h-25v110h30c27.333 0 49 12 65 36l218 319c4.66699 6.66699 7 13.334 7 20.001v185z" />
    <glyph glyph-name="uni040F" unicode="&#x40f;" 
d="M184 110c43.333 0 76.833 -12.167 100.5 -36.5s35.5 -56.5 35.5 -96.5v-77h-120v42c0 38.667 -18 58 -54 58h-106v670h120v-560h24zM268 110c41.333 -22.667 65 -59.333 71 -110h141v670h-120v-560h-92z" />
    <glyph glyph-name="uni0410" unicode="&#x410;" 
d="M40 0v174.999c0 58.667 17.5 105.834 52.5 141.501s84.167 53.5 147.5 53.5h40c29.333 0 56 -5.66699 80 -17v52c0 6.66699 -1.66699 12.334 -5 17.001l-97 136l-93 -136c-3.33301 -4.66699 -5 -10.334 -5 -17.001v-26c-56.667 -17.333 -96.667 -52 -120 -104v115
c0 22 1.5 38.833 4.5 50.5s8.83301 23.834 17.5 36.501l93 138c24.667 36.667 59.667 55 105 55c43.333 0 79 -20 107 -60l91 -133c8.66699 -12.667 14.5 -24.834 17.5 -36.501s4.5 -28.5 4.5 -50.5v-390h-120v175c0 56.667 -30 85 -90 85h-20c-60 0 -90 -28.333 -90 -85
v-175h-120z" />
    <glyph glyph-name="uni0411" unicode="&#x411;" 
d="M280 390c63.333 0 112.5 -17.8311 147.5 -53.498s52.5 -82.834 52.5 -141.501s-17.5 -105.834 -52.5 -141.501s-84.167 -53.5 -147.5 -53.5h-240v670h410v-110h-290v-450h110c60 0 90 28.333 90 85s-26.667 85 -80 85h-100v110h100z" />
    <glyph glyph-name="uni0412" unicode="&#x412;" 
d="M280 390c63.333 0 112.5 -17.8301 147.5 -53.4971s52.5 -82.834 52.5 -141.501s-17.5 -105.834 -52.5 -141.501s-84.167 -53.5 -147.5 -53.5h-240v670h240c63.333 0 112.5 -17.833 147.5 -53.5s52.5 -82.834 52.5 -141.501c0 -50 -12.667 -91.667 -38 -125
c-28 29.333 -65.333 48 -112 56c20 14.667 30 37.667 30 69c0 56.667 -30 85 -90 85h-110v-170h120zM270 110.003c60 0 90 28.333 90 85s-26.667 85 -80 85h-120v-170h110z" />
    <glyph glyph-name="uni0413" unicode="&#x413;" horiz-adv-x="470" 
d="M240 670l220 -0.000976562v-110h-210c-60 0 -90 -28.333 -90 -85v-475h-120v475c0 58.667 17.5 105.834 52.5 141.501s84.167 53.5 147.5 53.5z" />
    <glyph glyph-name="uni0414" unicode="&#x414;" horiz-adv-x="680" 
d="M534 110c43.333 0 76.835 -12.167 100.502 -36.5s35.5 -56.5 35.5 -96.5v-77h-120v42c0 38.667 -18 58 -54 58h-312c-36 0 -54 -19.333 -54 -58v-42h-120v77c0 40 10.333 72.167 31 96.5s50 36.5 88 36.5h4l37 409c5.33301 56 23.666 95.167 54.999 117.5
s76.333 33.5 135 33.5h210v-540h-120v430h-110c-16.667 0 -29.334 -3.66699 -38.001 -11s-14 -22 -16 -44l-33 -395h281z" />
    <glyph glyph-name="uni0415" unicode="&#x415;" horiz-adv-x="500" 
d="M250 560c-60 0 -90 -28.335 -90 -85.002v-20c0 -56.667 30 -85 90 -85h110v-110h-120c-63.333 0 -112.5 17.833 -147.5 53.5s-52.5 82.834 -52.5 141.501v20c0 58.667 17.5 105.834 52.5 141.501s84.167 53.5 147.5 53.5h240v-110h-230zM160 194.998
c0 -56.667 30 -85.001 90 -85.001h230v-110h-240c-63.333 0 -112.5 17.833 -147.5 53.5s-52.5 82.834 -52.5 141.501v160c23.333 -52 63.333 -86.667 120 -104v-56z" />
    <glyph glyph-name="uni0416" unicode="&#x416;" horiz-adv-x="840" 
d="M196 464c7.33301 -49.333 35.333 -74 84 -74h60v-110h-60c-48.667 0 -76.667 -24.667 -84 -74l-10 -66c-8 -52 -24.5 -88.333 -49.5 -109s-60.5 -31 -106.5 -31h-10v110h20c13.333 0 21.333 6.66699 24 20l16 90c8.66699 52.667 29.667 91 63 115
c-33.333 24 -54.333 62.333 -63 115l-16 90c-2.66699 13.333 -10.667 20 -24 20h-20v110h10c46 0 81.5 -10.333 106.5 -31s41.5 -57 49.5 -109zM360 0v670h120v-670h-120zM760 450c-10 -52.667 -31 -91 -63 -115c32 -24 53 -62.333 63 -115l16 -90
c2.66699 -13.333 10.667 -20 24 -20h20v-110h-10c-46 -0 -81.5 10.333 -106.5 31s-41.5 57 -49.5 109l-10 66c-8 49.333 -36 74 -84 74h-60v110h60c48 0 76 24.667 84 74l10 66c8 52 24.5 88.333 49.5 109s60.5 31 106.5 31h10v-110h-20c-13.333 0 -21.333 -6.66699 -24 -20
z" />
    <glyph glyph-name="uni0417" unicode="&#x417;" horiz-adv-x="500" 
d="M230 560c-60 0 -90 -28.333 -90 -85h-120c0 58.667 17.5 105.834 52.5 141.501s84.167 53.5 147.5 53.5h40c63.333 0 112.5 -17.833 147.5 -53.5s52.5 -82.834 52.5 -141.501c0 -50 -12.667 -91.667 -38 -125c-28 29.333 -65.333 48 -112 56c20 14.667 30 37.667 30 69
c0 56.667 -30 85 -90 85h-20zM260 390c63.333 0 112.5 -17.832 147.5 -53.499s52.5 -82.834 52.5 -141.501s-17.5 -105.834 -52.5 -141.501s-84.167 -53.5 -147.5 -53.5h-40c-63.333 0 -112.5 17.833 -147.5 53.5s-52.5 82.834 -52.5 141.501h120c0 -56.667 30 -85 90 -85
h20c60 0 90 28.333 90 85s-26.667 85 -80 85h-120v110h120z" />
    <glyph glyph-name="uni0418" unicode="&#x418;" 
d="M160 0h-120v45c0 41.333 20.667 93.333 62 156l235 354c15.333 23.333 23 50 23 80v35h120v-45c0 -41.333 -20.667 -93.333 -62 -156l-235 -354c-15.333 -23.333 -23 -50 -23 -80v-35zM40 130v540h120v-345l-75 -113c-19.333 -30.667 -34.333 -58 -45 -82zM480 0h-120
v345l75 113c17.333 26 32.333 53.333 45 82v-540z" />
    <glyph glyph-name="uni0419" unicode="&#x419;" 
d="M330 855h90.002c0 -46.667 -12.333 -82.5 -37 -107.5s-59.334 -37.5 -104.001 -37.5h-38c-44.667 0 -79.334 12.5 -104.001 37.5s-37 60.833 -37 107.5h90c0 -20.667 4.33301 -36.667 13 -48s26 -17 52 -17h10c26 0 43.333 5.66699 52 17s13 27.333 13 48zM160.002 0
h-120v45c0 41.333 20.667 93.333 62 156l235 354c15.333 23.333 23 50 23 80v35h120v-45c0 -41.333 -20.667 -93.333 -62 -156l-235 -354c-15.333 -23.333 -23 -50 -23 -80v-35zM40.002 130v540h120v-345l-75 -113c-19.333 -30.667 -34.333 -58 -45 -82zM480.002 0h-120v345
l75 113c17.333 26 32.333 53.333 45 82v-540z" />
    <glyph glyph-name="uni041A" unicode="&#x41a;" 
d="M440 450c-10 -52.667 -31 -91.001 -63 -115.001c32 -24 53 -62.333 63 -115l16 -90c2.66699 -13.333 10.667 -20 24 -20h20v-110h-10c-46 0 -81.5 10.333 -106.5 31s-41.5 57 -49.5 109l-10 66c-8 49.333 -36 74 -84 74c-53.333 0 -80 -28.333 -80 -85v-195h-120v195
c0 58.667 17.5 105.834 52.5 141.501s84.167 53.5 147.5 53.5c48 0 76 24.667 84 74l10 66c8 52 24.5 88.333 49.5 109s60.5 31 106.5 31h10v-110h-20c-13.333 0 -21.333 -6.66699 -24 -20zM160 398.999c-56.667 -17.333 -96.667 -52 -120 -104v375h120v-271z" />
    <glyph glyph-name="uni041B" unicode="&#x41b;" horiz-adv-x="540" 
d="M290 670h210.002v-670h-120v560h-110c-16.667 0 -29.334 -3.66699 -38.001 -11s-14 -22 -16 -44l-30 -365c-4.66699 -52.667 -19.167 -89.167 -43.5 -109.5s-61.833 -30.5 -112.5 -30.5h-10v110h20c15.333 0 23.333 6.66699 24 20l36 389
c5.33301 56 23.666 95.167 54.999 117.5s76.333 33.5 135 33.5z" />
    <glyph glyph-name="uni041C" unicode="&#x41c;" horiz-adv-x="640" 
d="M320 242c-45.333 0 -80.333 18.333 -105 55l-113 172c-41.333 62.667 -62 114.667 -62 156v45h120v-35c0 -30 7.66699 -56.667 23 -80l136 -201l138 201c15.333 23.333 23 50 23 80v35h120v-45c0 -42 -20.667 -94 -62 -156l-111 -167c-28 -40 -63.667 -60 -107 -60zM40 0
v540c12.667 -28.667 27.667 -56 45 -82l75 -113v-345h-120zM480 0v345l75 113c17.333 26 32.333 53.333 45 82v-540h-120z" />
    <glyph glyph-name="uni041D" unicode="&#x41d;" 
d="M280 390c63.333 0 112.5 -17.833 147.5 -53.5s52.5 -82.834 52.5 -141.501v-195h-120v195c0 56.667 -30 85 -90 85h-30c-63.333 0 -112.5 17.833 -147.5 53.5s-52.5 82.834 -52.5 141.501v195h120v-195c0 -56.667 30 -85 90 -85h30zM360 670h120v-375
c-23.333 52 -63.333 86.667 -120 104v271zM40 375c23.333 -52 63.333 -86.667 120 -104v-271h-120v375z" />
    <glyph glyph-name="uni041E" unicode="&#x41e;" 
d="M280 670c63.333 0 112.5 -17.833 147.5 -53.5s52.5 -82.834 52.5 -141.501v-280c0 -58.667 -17.5 -105.834 -52.5 -141.501s-84.167 -53.5 -147.5 -53.5h-40c-63.333 0 -112.5 17.833 -147.5 53.5s-52.5 82.834 -52.5 141.501v280c0 58.667 17.5 105.834 52.5 141.501
s84.167 53.5 147.5 53.5h40zM360 195v280c0 56.667 -30 85 -90 85h-20c-60 0 -90 -28.333 -90 -85v-280c0 -56.667 30 -85 90 -85h20c60 0 90 28.333 90 85z" />
    <glyph glyph-name="uni041F" unicode="&#x41f;" 
d="M480 670v-670h-120v560h-200v-560h-120v670h440z" />
    <glyph glyph-name="uni0420" unicode="&#x420;" horiz-adv-x="500" 
d="M280 670c63.333 0 112.5 -17.833 147.5 -53.5s52.5 -82.834 52.5 -141.501s-17.5 -105.834 -52.5 -141.501s-84.167 -53.5 -147.5 -53.5h-30c-60 0 -90 -28.333 -90 -85v-195h-120v195c0 58.667 17.5 105.834 52.5 141.501s84.167 53.5 147.5 53.5h30
c60 0 90 28.333 90 85s-30 85 -90 85h-20c-60 0 -90 -28.333 -90 -85v-76c-56.667 -17.333 -96.667 -52 -120 -104v180c0 58.667 17.5 105.834 52.5 141.501s84.167 53.5 147.5 53.5h40z" />
    <glyph glyph-name="uni0421" unicode="&#x421;" horiz-adv-x="500" 
d="M160 195c0 -56.667 30 -85.001 90 -85.001h230v-110h-240c-63.333 0 -112.5 17.833 -147.5 53.5s-52.5 82.834 -52.5 141.501v280c0 58.667 17.5 105.834 52.5 141.501s84.167 53.5 147.5 53.5h40c63.333 0 112.5 -17.833 147.5 -53.5s52.5 -82.834 52.5 -141.501h-120
c0 56.667 -30 85 -90 85h-20c-60 0 -90 -28.333 -90 -85v-280z" />
    <glyph glyph-name="uni0422" unicode="&#x422;" horiz-adv-x="460" 
d="M10 560l0.000976562 110.001h255c-54.667 -24.667 -89.334 -61.334 -104.001 -110.001h-151zM170.001 0.000976562l0.000976562 479.999c0 62.667 17.5 110 52.5 142s82.5 48 142.5 48h85v-110h-85c-24.667 0 -43.334 -6.66699 -56.001 -20s-19 -36.666 -19 -69.999v-470
h-120z" />
    <glyph glyph-name="uni0423" unicode="&#x423;" horiz-adv-x="510" 
d="M177 245l-115 168.001c-14.667 21.333 -22 50.333 -22 87v170h120v-185c0 -6.66699 1.66699 -12.334 5 -17.001l82 -119zM360 670.001l119.999 -0.000976562v-170c0 -22 -1.5 -38.833 -4.5 -50.5s-8.83301 -23.834 -17.5 -36.501l-221 -323
c-21.333 -31.333 -45.166 -54.166 -71.499 -68.499s-59.833 -21.5 -100.5 -21.5h-25v110h30c27.333 0 49 12 65 36l218 319c4.66699 6.66699 7 13.334 7 20.001v185z" />
    <glyph glyph-name="uni0424" unicode="&#x424;" horiz-adv-x="640" 
d="M260 0v670h120v-670h-120zM30 395c0 58.667 17.5 105.832 52.5 141.499s84.167 53.5 147.5 53.5h10v-110c-60 0 -90 -28.333 -90 -85v-120c0 -56.667 30 -85 90 -85v-110h-10c-63.333 0 -112.5 17.833 -147.5 53.5s-52.5 82.834 -52.5 141.501v120zM410 589.998
c63.333 0 112.5 -17.8311 147.5 -53.498s52.5 -82.834 52.5 -141.501v-120c0 -58.667 -17.5 -105.834 -52.5 -141.501s-84.167 -53.5 -147.5 -53.5h-10v110c60 0 90 28.333 90 85v120c0 56.667 -30 85 -90 85v110h10z" />
    <glyph glyph-name="uni0425" unicode="&#x425;" 
d="M490 0c-10.667 0 -20.667 1 -30 3s-17.333 3.83301 -24 5.5s-14 5.66699 -22 12l-18 14c-4 3 -10 10 -18 21l-16.5 23l-19.5 29.5l-21 32l-267 400c-8 13.333 -16 20 -24 20h-10v110h10c10.667 0 20.667 -1 30 -3s17.333 -3.83301 24 -5.5s14 -5.66699 22 -12l18 -14
c4 -3 10 -10 18 -21l16.5 -23l19.5 -29.5l21 -32l267 -400c8 -13.333 16 -20 24 -20h10v-110h-10zM341 353l-69 104l49 73l21 32l19.5 29.5l16.5 23c8 11 14 18 18 21l18 14c8 6.33301 15.333 10.333 22 12s14.667 3.5 24 5.5s19.333 3 30 3h10v-110h-10
c-8 0 -16 -6.66699 -24 -20zM30 0h-10v110h10c8 0 16 6.66699 24 20l125 187l69 -104l-49 -73l-21 -32l-19.5 -29.5l-16.5 -23c-8 -11 -14 -18 -18 -21l-18 -14c-8 -6.33301 -15.333 -10.333 -22 -12s-14.667 -3.5 -24 -5.5s-19.333 -3 -30 -3z" />
    <glyph glyph-name="uni0426" unicode="&#x426;" horiz-adv-x="590" 
d="M444 110c43.333 0 76.833 -12.167 100.5 -36.5s35.5 -56.5 35.5 -96.5v-77h-120v42c0 38.667 -18 58 -54 58h-366v670h120v-560h284zM480 670v-540h-120v540h120z" />
    <glyph glyph-name="uni0427" unicode="&#x427;" horiz-adv-x="510" 
d="M270 390c63.333 0 112.5 -17.833 147.5 -53.5s52.5 -82.834 52.5 -141.501v-195h-120v195c0 56.667 -30 85 -90 85h-30c-63.333 0 -112.5 17.833 -147.5 53.5s-52.5 82.834 -52.5 141.501v195h120v-195c0 -56.667 30 -85 90 -85h30zM350 670h120v-375
c-23.333 52 -63.333 86.667 -120 104v271z" />
    <glyph glyph-name="uni0428" unicode="&#x428;" horiz-adv-x="760" 
d="M720 0h-680v670h120v-560h160v560h120v-560h280v-110zM600 130v540h120v-540h-120z" />
    <glyph glyph-name="uni0429" unicode="&#x429;" horiz-adv-x="830" 
d="M684 110c43.333 0 76.833 -12.167 100.5 -36.5s35.5 -56.5 35.5 -96.5v-77h-120v42c0 38.667 -18 58 -54 58h-606v670h120v-560h160v560h120v-560h244zM720 670v-540h-120v540h120z" />
    <glyph glyph-name="uni042A" unicode="&#x42a;" horiz-adv-x="640" 
d="M410 390c63.333 0 112.501 -17.8301 147.501 -53.4971s52.5 -82.834 52.5 -141.501s-17.5 -105.834 -52.5 -141.501s-84.167 -53.5 -147.5 -53.5h-240v470c0 33.333 -6.33301 56.666 -19 69.999s-31.334 20 -56.001 20h-85v110h85c60 0 107.5 -16 142.5 -48
s52.5 -79.333 52.5 -142v-370h110c60 0 90 28.333 90 85s-26.667 85 -80 85h-100v110h100z" />
    <glyph glyph-name="uni042B" unicode="&#x42b;" horiz-adv-x="690" 
d="M280 390c63.333 0 112.5 -17.8311 147.5 -53.498s52.5 -82.834 52.5 -141.501s-17.5 -105.834 -52.5 -141.501s-84.167 -53.5 -147.5 -53.5h-240v670h120v-560h110c60 0 90 28.333 90 85s-26.667 85 -80 85h-100v110h100zM650 0.00195312h-120v670h120v-670z" />
    <glyph glyph-name="uni042C" unicode="&#x42c;" horiz-adv-x="510" 
d="M280 390c63.333 0 112.5 -17.8311 147.5 -53.498s52.5 -82.834 52.5 -141.501s-17.5 -105.834 -52.5 -141.501s-84.167 -53.5 -147.5 -53.5h-240v670h120v-560h110c60 0 90 28.333 90 85s-26.667 85 -80 85h-100v110h100z" />
    <glyph glyph-name="uni042D" unicode="&#x42d;" horiz-adv-x="500" 
d="M260 670c63.333 0 112.5 -17.832 147.5 -53.499s52.5 -82.834 52.5 -141.501v-280c0 -58.667 -17.5 -105.834 -52.5 -141.501s-84.167 -53.5 -147.5 -53.5h-240v110h230c60 0 90 28.333 90 85v65h-200v110h200v105c0 56.667 -30 85 -90 85h-20c-60 0 -90 -28.333 -90 -85
h-120c0 58.667 17.5 105.834 52.5 141.501s84.167 53.5 147.5 53.5h40z" />
    <glyph glyph-name="uni042E" unicode="&#x42e;" horiz-adv-x="770" 
d="M530 670c63.333 0 112.5 -17.833 147.5 -53.5s52.5 -82.834 52.5 -141.501v-280c0 -58.667 -17.5 -105.834 -52.5 -141.501s-84.167 -53.5 -147.5 -53.5h-40c-63.333 0 -112.5 17.833 -147.5 53.5s-52.5 82.834 -52.5 141.501v85h-130v-280h-120v670h120v-280h130v85
c0 58.667 17.5 105.834 52.5 141.501s84.167 53.5 147.5 53.5h40zM610 195v280c0 56.667 -30 85 -90 85h-20c-60 0 -90 -28.333 -90 -85v-280c0 -56.667 30 -85 90 -85h20c60 0 90 28.333 90 85z" />
    <glyph glyph-name="uni042F" unicode="&#x42f;" 
d="M480 295c-23.333 52 -63.333 86.667 -120 104v76c0 56.667 -30 85 -90 85h-20c-60 0 -90 -28.333 -90 -85s30 -85 90 -85h30c63.333 0 112.5 -17.833 147.5 -53.5s52.5 -82.834 52.5 -141.501v-195h-120v195c0 56.667 -26.667 85 -80 85
c-48.667 0 -76.667 -24.667 -84 -74l-10 -66c-7.33301 -50.667 -23.5 -86.667 -48.5 -108s-60.833 -32 -107.5 -32h-10v110h20c13.333 0 21.333 6.66699 24 20l16 90c6.66699 40.667 20.667 73 42 97c-54.667 30.667 -82 83.334 -82 158.001
c0 58.667 17.5 105.834 52.5 141.501s84.167 53.5 147.5 53.5h40c63.333 0 112.5 -17.833 147.5 -53.5s52.5 -82.834 52.5 -141.501v-180z" />
    <glyph glyph-name="uni0430" unicode="&#x430;" 
d="M40 0v174.999c0 58.667 17.5 105.834 52.5 141.501s84.167 53.5 147.5 53.5h40c29.333 0 56 -5.66699 80 -17v52c0 6.66699 -1.66699 12.334 -5 17.001l-97 136l-93 -136c-3.33301 -4.66699 -5 -10.334 -5 -17.001v-26c-56.667 -17.333 -96.667 -52 -120 -104v115
c0 22 1.5 38.833 4.5 50.5s8.83301 23.834 17.5 36.501l93 138c24.667 36.667 59.667 55 105 55c43.333 0 79 -20 107 -60l91 -133c8.66699 -12.667 14.5 -24.834 17.5 -36.501s4.5 -28.5 4.5 -50.5v-390h-120v175c0 56.667 -30 85 -90 85h-20c-60 0 -90 -28.333 -90 -85
v-175h-120z" />
    <glyph glyph-name="uni0431" unicode="&#x431;" 
d="M280 390c63.333 0 112.5 -17.8311 147.5 -53.498s52.5 -82.834 52.5 -141.501s-17.5 -105.834 -52.5 -141.501s-84.167 -53.5 -147.5 -53.5h-240v670h410v-110h-290v-450h110c60 0 90 28.333 90 85s-26.667 85 -80 85h-100v110h100z" />
    <glyph glyph-name="uni0432" unicode="&#x432;" 
d="M280 390c63.333 0 112.5 -17.8301 147.5 -53.4971s52.5 -82.834 52.5 -141.501s-17.5 -105.834 -52.5 -141.501s-84.167 -53.5 -147.5 -53.5h-240v670h240c63.333 0 112.5 -17.833 147.5 -53.5s52.5 -82.834 52.5 -141.501c0 -50 -12.667 -91.667 -38 -125
c-28 29.333 -65.333 48 -112 56c20 14.667 30 37.667 30 69c0 56.667 -30 85 -90 85h-110v-170h120zM270 110.003c60 0 90 28.333 90 85s-26.667 85 -80 85h-120v-170h110z" />
    <glyph glyph-name="uni0433" unicode="&#x433;" horiz-adv-x="470" 
d="M240 670l220 -0.000976562v-110h-210c-60 0 -90 -28.333 -90 -85v-475h-120v475c0 58.667 17.5 105.834 52.5 141.501s84.167 53.5 147.5 53.5z" />
    <glyph glyph-name="uni0434" unicode="&#x434;" horiz-adv-x="680" 
d="M534 110c43.333 0 76.835 -12.167 100.502 -36.5s35.5 -56.5 35.5 -96.5v-77h-120v42c0 38.667 -18 58 -54 58h-312c-36 0 -54 -19.333 -54 -58v-42h-120v77c0 40 10.333 72.167 31 96.5s50 36.5 88 36.5h4l37 409c5.33301 56 23.666 95.167 54.999 117.5
s76.333 33.5 135 33.5h210v-540h-120v430h-110c-16.667 0 -29.334 -3.66699 -38.001 -11s-14 -22 -16 -44l-33 -395h281z" />
    <glyph glyph-name="uni0435" unicode="&#x435;" horiz-adv-x="500" 
d="M250 560c-60 0 -90 -28.335 -90 -85.002v-20c0 -56.667 30 -85 90 -85h110v-110h-120c-63.333 0 -112.5 17.833 -147.5 53.5s-52.5 82.834 -52.5 141.501v20c0 58.667 17.5 105.834 52.5 141.501s84.167 53.5 147.5 53.5h240v-110h-230zM160 194.998
c0 -56.667 30 -85.001 90 -85.001h230v-110h-240c-63.333 0 -112.5 17.833 -147.5 53.5s-52.5 82.834 -52.5 141.501v160c23.333 -52 63.333 -86.667 120 -104v-56z" />
    <glyph glyph-name="uni0436" unicode="&#x436;" horiz-adv-x="840" 
d="M196 464c7.33301 -49.333 35.333 -74 84 -74h60v-110h-60c-48.667 0 -76.667 -24.667 -84 -74l-10 -66c-8 -52 -24.5 -88.333 -49.5 -109s-60.5 -31 -106.5 -31h-10v110h20c13.333 0 21.333 6.66699 24 20l16 90c8.66699 52.667 29.667 91 63 115
c-33.333 24 -54.333 62.333 -63 115l-16 90c-2.66699 13.333 -10.667 20 -24 20h-20v110h10c46 0 81.5 -10.333 106.5 -31s41.5 -57 49.5 -109zM360 0v670h120v-670h-120zM760 450c-10 -52.667 -31 -91 -63 -115c32 -24 53 -62.333 63 -115l16 -90
c2.66699 -13.333 10.667 -20 24 -20h20v-110h-10c-46 -0 -81.5 10.333 -106.5 31s-41.5 57 -49.5 109l-10 66c-8 49.333 -36 74 -84 74h-60v110h60c48 0 76 24.667 84 74l10 66c8 52 24.5 88.333 49.5 109s60.5 31 106.5 31h10v-110h-20c-13.333 0 -21.333 -6.66699 -24 -20
z" />
    <glyph glyph-name="uni0437" unicode="&#x437;" horiz-adv-x="500" 
d="M230 560c-60 0 -90 -28.333 -90 -85h-120c0 58.667 17.5 105.834 52.5 141.501s84.167 53.5 147.5 53.5h40c63.333 0 112.5 -17.833 147.5 -53.5s52.5 -82.834 52.5 -141.501c0 -50 -12.667 -91.667 -38 -125c-28 29.333 -65.333 48 -112 56c20 14.667 30 37.667 30 69
c0 56.667 -30 85 -90 85h-20zM260 390c63.333 0 112.5 -17.832 147.5 -53.499s52.5 -82.834 52.5 -141.501s-17.5 -105.834 -52.5 -141.501s-84.167 -53.5 -147.5 -53.5h-40c-63.333 0 -112.5 17.833 -147.5 53.5s-52.5 82.834 -52.5 141.501h120c0 -56.667 30 -85 90 -85
h20c60 0 90 28.333 90 85s-26.667 85 -80 85h-120v110h120z" />
    <glyph glyph-name="uni0438" unicode="&#x438;" 
d="M160 0h-120v45c0 41.333 20.667 93.333 62 156l235 354c15.333 23.333 23 50 23 80v35h120v-45c0 -41.333 -20.667 -93.333 -62 -156l-235 -354c-15.333 -23.333 -23 -50 -23 -80v-35zM40 130v540h120v-345l-75 -113c-19.333 -30.667 -34.333 -58 -45 -82zM480 0h-120
v345l75 113c17.333 26 32.333 53.333 45 82v-540z" />
    <glyph glyph-name="uni0439" unicode="&#x439;" 
d="M330 855h90.002c0 -46.667 -12.333 -82.5 -37 -107.5s-59.334 -37.5 -104.001 -37.5h-38c-44.667 0 -79.334 12.5 -104.001 37.5s-37 60.833 -37 107.5h90c0 -20.667 4.33301 -36.667 13 -48s26 -17 52 -17h10c26 0 43.333 5.66699 52 17s13 27.333 13 48zM160.002 0
h-120v45c0 41.333 20.667 93.333 62 156l235 354c15.333 23.333 23 50 23 80v35h120v-45c0 -41.333 -20.667 -93.333 -62 -156l-235 -354c-15.333 -23.333 -23 -50 -23 -80v-35zM40.002 130v540h120v-345l-75 -113c-19.333 -30.667 -34.333 -58 -45 -82zM480.002 0h-120v345
l75 113c17.333 26 32.333 53.333 45 82v-540z" />
    <glyph glyph-name="uni043A" unicode="&#x43a;" 
d="M440 450c-10 -52.667 -31 -91.001 -63 -115.001c32 -24 53 -62.333 63 -115l16 -90c2.66699 -13.333 10.667 -20 24 -20h20v-110h-10c-46 0 -81.5 10.333 -106.5 31s-41.5 57 -49.5 109l-10 66c-8 49.333 -36 74 -84 74c-53.333 0 -80 -28.333 -80 -85v-195h-120v195
c0 58.667 17.5 105.834 52.5 141.501s84.167 53.5 147.5 53.5c48 0 76 24.667 84 74l10 66c8 52 24.5 88.333 49.5 109s60.5 31 106.5 31h10v-110h-20c-13.333 0 -21.333 -6.66699 -24 -20zM160 398.999c-56.667 -17.333 -96.667 -52 -120 -104v375h120v-271z" />
    <glyph glyph-name="uni043B" unicode="&#x43b;" horiz-adv-x="540" 
d="M290 670h210.002v-670h-120v560h-110c-16.667 0 -29.334 -3.66699 -38.001 -11s-14 -22 -16 -44l-30 -365c-4.66699 -52.667 -19.167 -89.167 -43.5 -109.5s-61.833 -30.5 -112.5 -30.5h-10v110h20c15.333 0 23.333 6.66699 24 20l36 389
c5.33301 56 23.666 95.167 54.999 117.5s76.333 33.5 135 33.5z" />
    <glyph glyph-name="uni043C" unicode="&#x43c;" horiz-adv-x="640" 
d="M320 242c-45.333 0 -80.333 18.333 -105 55l-113 172c-41.333 62.667 -62 114.667 -62 156v45h120v-35c0 -30 7.66699 -56.667 23 -80l136 -201l138 201c15.333 23.333 23 50 23 80v35h120v-45c0 -42 -20.667 -94 -62 -156l-111 -167c-28 -40 -63.667 -60 -107 -60zM40 0
v540c12.667 -28.667 27.667 -56 45 -82l75 -113v-345h-120zM480 0v345l75 113c17.333 26 32.333 53.333 45 82v-540h-120z" />
    <glyph glyph-name="uni043D" unicode="&#x43d;" 
d="M280 390c63.333 0 112.5 -17.833 147.5 -53.5s52.5 -82.834 52.5 -141.501v-195h-120v195c0 56.667 -30 85 -90 85h-30c-63.333 0 -112.5 17.833 -147.5 53.5s-52.5 82.834 -52.5 141.501v195h120v-195c0 -56.667 30 -85 90 -85h30zM360 670h120v-375
c-23.333 52 -63.333 86.667 -120 104v271zM40 375c23.333 -52 63.333 -86.667 120 -104v-271h-120v375z" />
    <glyph glyph-name="uni043E" unicode="&#x43e;" 
d="M280 670c63.333 0 112.5 -17.833 147.5 -53.5s52.5 -82.834 52.5 -141.501v-280c0 -58.667 -17.5 -105.834 -52.5 -141.501s-84.167 -53.5 -147.5 -53.5h-40c-63.333 0 -112.5 17.833 -147.5 53.5s-52.5 82.834 -52.5 141.501v280c0 58.667 17.5 105.834 52.5 141.501
s84.167 53.5 147.5 53.5h40zM360 195v280c0 56.667 -30 85 -90 85h-20c-60 0 -90 -28.333 -90 -85v-280c0 -56.667 30 -85 90 -85h20c60 0 90 28.333 90 85z" />
    <glyph glyph-name="uni043F" unicode="&#x43f;" 
d="M480 670v-670h-120v560h-200v-560h-120v670h440z" />
    <glyph glyph-name="uni0440" unicode="&#x440;" horiz-adv-x="500" 
d="M280 670c63.333 0 112.5 -17.833 147.5 -53.5s52.5 -82.834 52.5 -141.501s-17.5 -105.834 -52.5 -141.501s-84.167 -53.5 -147.5 -53.5h-30c-60 0 -90 -28.333 -90 -85v-195h-120v195c0 58.667 17.5 105.834 52.5 141.501s84.167 53.5 147.5 53.5h30
c60 0 90 28.333 90 85s-30 85 -90 85h-20c-60 0 -90 -28.333 -90 -85v-76c-56.667 -17.333 -96.667 -52 -120 -104v180c0 58.667 17.5 105.834 52.5 141.501s84.167 53.5 147.5 53.5h40z" />
    <glyph glyph-name="uni0441" unicode="&#x441;" horiz-adv-x="500" 
d="M160 195c0 -56.667 30 -85.001 90 -85.001h230v-110h-240c-63.333 0 -112.5 17.833 -147.5 53.5s-52.5 82.834 -52.5 141.501v280c0 58.667 17.5 105.834 52.5 141.501s84.167 53.5 147.5 53.5h40c63.333 0 112.5 -17.833 147.5 -53.5s52.5 -82.834 52.5 -141.501h-120
c0 56.667 -30 85 -90 85h-20c-60 0 -90 -28.333 -90 -85v-280z" />
    <glyph glyph-name="uni0442" unicode="&#x442;" horiz-adv-x="460" 
d="M10 560l0.000976562 110.001h255c-54.667 -24.667 -89.334 -61.334 -104.001 -110.001h-151zM170.001 0.000976562l0.000976562 479.999c0 62.667 17.5 110 52.5 142s82.5 48 142.5 48h85v-110h-85c-24.667 0 -43.334 -6.66699 -56.001 -20s-19 -36.666 -19 -69.999v-470
h-120z" />
    <glyph glyph-name="uni0443" unicode="&#x443;" horiz-adv-x="510" 
d="M177 245l-115 168.001c-14.667 21.333 -22 50.333 -22 87v170h120v-185c0 -6.66699 1.66699 -12.334 5 -17.001l82 -119zM360 670.001l119.999 -0.000976562v-170c0 -22 -1.5 -38.833 -4.5 -50.5s-8.83301 -23.834 -17.5 -36.501l-221 -323
c-21.333 -31.333 -45.166 -54.166 -71.499 -68.499s-59.833 -21.5 -100.5 -21.5h-25v110h30c27.333 0 49 12 65 36l218 319c4.66699 6.66699 7 13.334 7 20.001v185z" />
    <glyph glyph-name="uni0444" unicode="&#x444;" horiz-adv-x="640" 
d="M260 0v670h120v-670h-120zM30 395c0 58.667 17.5 105.832 52.5 141.499s84.167 53.5 147.5 53.5h10v-110c-60 0 -90 -28.333 -90 -85v-120c0 -56.667 30 -85 90 -85v-110h-10c-63.333 0 -112.5 17.833 -147.5 53.5s-52.5 82.834 -52.5 141.501v120zM410 589.998
c63.333 0 112.5 -17.8311 147.5 -53.498s52.5 -82.834 52.5 -141.501v-120c0 -58.667 -17.5 -105.834 -52.5 -141.501s-84.167 -53.5 -147.5 -53.5h-10v110c60 0 90 28.333 90 85v120c0 56.667 -30 85 -90 85v110h10z" />
    <glyph glyph-name="uni0445" unicode="&#x445;" 
d="M490 0c-10.667 0 -20.667 1 -30 3s-17.333 3.83301 -24 5.5s-14 5.66699 -22 12l-18 14c-4 3 -10 10 -18 21l-16.5 23l-19.5 29.5l-21 32l-267 400c-8 13.333 -16 20 -24 20h-10v110h10c10.667 0 20.667 -1 30 -3s17.333 -3.83301 24 -5.5s14 -5.66699 22 -12l18 -14
c4 -3 10 -10 18 -21l16.5 -23l19.5 -29.5l21 -32l267 -400c8 -13.333 16 -20 24 -20h10v-110h-10zM341 353l-69 104l49 73l21 32l19.5 29.5l16.5 23c8 11 14 18 18 21l18 14c8 6.33301 15.333 10.333 22 12s14.667 3.5 24 5.5s19.333 3 30 3h10v-110h-10
c-8 0 -16 -6.66699 -24 -20zM30 0h-10v110h10c8 0 16 6.66699 24 20l125 187l69 -104l-49 -73l-21 -32l-19.5 -29.5l-16.5 -23c-8 -11 -14 -18 -18 -21l-18 -14c-8 -6.33301 -15.333 -10.333 -22 -12s-14.667 -3.5 -24 -5.5s-19.333 -3 -30 -3z" />
    <glyph glyph-name="uni0446" unicode="&#x446;" horiz-adv-x="590" 
d="M444 110c43.333 0 76.833 -12.167 100.5 -36.5s35.5 -56.5 35.5 -96.5v-77h-120v42c0 38.667 -18 58 -54 58h-366v670h120v-560h284zM480 670v-540h-120v540h120z" />
    <glyph glyph-name="uni0447" unicode="&#x447;" horiz-adv-x="510" 
d="M270 390c63.333 0 112.5 -17.833 147.5 -53.5s52.5 -82.834 52.5 -141.501v-195h-120v195c0 56.667 -30 85 -90 85h-30c-63.333 0 -112.5 17.833 -147.5 53.5s-52.5 82.834 -52.5 141.501v195h120v-195c0 -56.667 30 -85 90 -85h30zM350 670h120v-375
c-23.333 52 -63.333 86.667 -120 104v271z" />
    <glyph glyph-name="uni0448" unicode="&#x448;" horiz-adv-x="760" 
d="M720 0h-680v670h120v-560h160v560h120v-560h280v-110zM600 130v540h120v-540h-120z" />
    <glyph glyph-name="uni0449" unicode="&#x449;" horiz-adv-x="830" 
d="M684 110c43.333 0 76.833 -12.167 100.5 -36.5s35.5 -56.5 35.5 -96.5v-77h-120v42c0 38.667 -18 58 -54 58h-606v670h120v-560h160v560h120v-560h244zM720 670v-540h-120v540h120z" />
    <glyph glyph-name="uni044A" unicode="&#x44a;" horiz-adv-x="640" 
d="M410 390c63.333 0 112.501 -17.8301 147.501 -53.4971s52.5 -82.834 52.5 -141.501s-17.5 -105.834 -52.5 -141.501s-84.167 -53.5 -147.5 -53.5h-240v470c0 33.333 -6.33301 56.666 -19 69.999s-31.334 20 -56.001 20h-85v110h85c60 0 107.5 -16 142.5 -48
s52.5 -79.333 52.5 -142v-370h110c60 0 90 28.333 90 85s-26.667 85 -80 85h-100v110h100z" />
    <glyph glyph-name="uni044B" unicode="&#x44b;" horiz-adv-x="690" 
d="M280 390c63.333 0 112.5 -17.8311 147.5 -53.498s52.5 -82.834 52.5 -141.501s-17.5 -105.834 -52.5 -141.501s-84.167 -53.5 -147.5 -53.5h-240v670h120v-560h110c60 0 90 28.333 90 85s-26.667 85 -80 85h-100v110h100zM650 0.00195312h-120v670h120v-670z" />
    <glyph glyph-name="uni044C" unicode="&#x44c;" horiz-adv-x="510" 
d="M280 390c63.333 0 112.5 -17.8311 147.5 -53.498s52.5 -82.834 52.5 -141.501s-17.5 -105.834 -52.5 -141.501s-84.167 -53.5 -147.5 -53.5h-240v670h120v-560h110c60 0 90 28.333 90 85s-26.667 85 -80 85h-100v110h100z" />
    <glyph glyph-name="uni044D" unicode="&#x44d;" horiz-adv-x="500" 
d="M260 670c63.333 0 112.5 -17.832 147.5 -53.499s52.5 -82.834 52.5 -141.501v-280c0 -58.667 -17.5 -105.834 -52.5 -141.501s-84.167 -53.5 -147.5 -53.5h-240v110h230c60 0 90 28.333 90 85v65h-200v110h200v105c0 56.667 -30 85 -90 85h-20c-60 0 -90 -28.333 -90 -85
h-120c0 58.667 17.5 105.834 52.5 141.501s84.167 53.5 147.5 53.5h40z" />
    <glyph glyph-name="uni044E" unicode="&#x44e;" horiz-adv-x="770" 
d="M530 670c63.333 0 112.5 -17.833 147.5 -53.5s52.5 -82.834 52.5 -141.501v-280c0 -58.667 -17.5 -105.834 -52.5 -141.501s-84.167 -53.5 -147.5 -53.5h-40c-63.333 0 -112.5 17.833 -147.5 53.5s-52.5 82.834 -52.5 141.501v85h-130v-280h-120v670h120v-280h130v85
c0 58.667 17.5 105.834 52.5 141.501s84.167 53.5 147.5 53.5h40zM610 195v280c0 56.667 -30 85 -90 85h-20c-60 0 -90 -28.333 -90 -85v-280c0 -56.667 30 -85 90 -85h20c60 0 90 28.333 90 85z" />
    <glyph glyph-name="uni044F" unicode="&#x44f;" 
d="M480 295c-23.333 52 -63.333 86.667 -120 104v76c0 56.667 -30 85 -90 85h-20c-60 0 -90 -28.333 -90 -85s30 -85 90 -85h30c63.333 0 112.5 -17.833 147.5 -53.5s52.5 -82.834 52.5 -141.501v-195h-120v195c0 56.667 -26.667 85 -80 85
c-48.667 0 -76.667 -24.667 -84 -74l-10 -66c-7.33301 -50.667 -23.5 -86.667 -48.5 -108s-60.833 -32 -107.5 -32h-10v110h20c13.333 0 21.333 6.66699 24 20l16 90c6.66699 40.667 20.667 73 42 97c-54.667 30.667 -82 83.334 -82 158.001
c0 58.667 17.5 105.834 52.5 141.501s84.167 53.5 147.5 53.5h40c63.333 0 112.5 -17.833 147.5 -53.5s52.5 -82.834 52.5 -141.501v-180z" />
    <glyph glyph-name="uni0451" unicode="&#x451;" horiz-adv-x="500" 
d="M220 830v-120h-120v20c0 66.667 33.333 100 100 100h20zM300 710v120h120v-20c0 -66.667 -33.333 -100 -100 -100h-20zM250 560c-60 0 -90 -28.335 -90 -85.002v-20c0 -56.667 30 -85 90 -85h110v-110h-120c-63.333 0 -112.5 17.833 -147.5 53.5
s-52.5 82.834 -52.5 141.501v20c0 58.667 17.5 105.834 52.5 141.501s84.167 53.5 147.5 53.5h240v-110h-230zM160 194.998c0 -56.667 30 -85.001 90 -85.001h230v-110h-240c-63.333 0 -112.5 17.833 -147.5 53.5s-52.5 82.834 -52.5 141.501v160
c23.333 -52 63.333 -86.667 120 -104v-56z" />
    <glyph glyph-name="uni0452" unicode="&#x452;" horiz-adv-x="640" 
d="M265 670c-54.667 -24.667 -89.333 -61.333 -104 -110h-151v110h255zM410.001 390.001c63.333 0 112.501 -17.832 147.501 -53.499s52.5 -82.834 52.5 -141.501s-17.5 -105.834 -52.5 -141.501s-84.167 -53.5 -147.5 -53.5h-240v480c0 62.667 17.5 110 52.5 142
s82.5 48 142.5 48h125v-110h-125c-24.667 0 -43.334 -6.66699 -56.001 -20s-19 -36.666 -19 -69.999v-360h120c53.333 0 80 28.333 80 85s-26.667 85 -80 85h-100v110h100z" />
    <glyph glyph-name="uni0453" unicode="&#x453;" horiz-adv-x="470" 
d="M310 855h90.001c0 -46.667 -12.333 -82.5 -37 -107.5s-59.334 -37.5 -104.001 -37.5h-39v80h25c26 0 43.333 5.66699 52 17s13 27.333 13 48zM240.001 670l220 -0.000976562v-110h-210c-60 0 -90 -28.333 -90 -85v-475h-120v475c0 58.667 17.5 105.834 52.5 141.501
s84.167 53.5 147.5 53.5z" />
    <glyph glyph-name="uni0454" unicode="&#x454;" horiz-adv-x="500" 
d="M160 195c0 -56.667 30 -85.001 90 -85.001h230v-110h-240c-63.333 0 -112.5 17.833 -147.5 53.5s-52.5 82.834 -52.5 141.501v280c0 58.667 17.5 105.834 52.5 141.501s84.167 53.5 147.5 53.5h40c63.333 0 112.5 -17.833 147.5 -53.5s52.5 -82.834 52.5 -141.501h-120
c0 56.667 -30 85 -90 85h-20c-60 0 -90 -28.333 -90 -85v-105h200v-110h-200v-65z" />
    <glyph glyph-name="uni0455" unicode="&#x455;" horiz-adv-x="510" 
d="M280 390c63.333 0 112.5 -17.833 147.5 -53.5s52.5 -82.834 52.5 -141.501s-17.5 -105.834 -52.5 -141.501s-84.167 -53.5 -147.5 -53.5h-40c-63.333 0 -112.5 17.833 -147.5 53.5s-52.5 82.834 -52.5 141.501h120c0 -56.667 30 -85 90 -85h20c60 0 90 28.333 90 85
s-30 85 -90 85h-30c-63.333 0 -112.5 17.833 -147.5 53.5s-52.5 82.834 -52.5 141.501s17.5 105.834 52.5 141.501s84.167 53.5 147.5 53.5h40c63.333 0 112.5 -17.833 147.5 -53.5s52.5 -82.834 52.5 -141.501h-120c0 56.667 -30 85 -90 85h-20c-60 0 -90 -28.333 -90 -85
s30 -85 90 -85h30z" />
    <glyph glyph-name="uni0456" unicode="&#x456;" horiz-adv-x="380" 
d="M325 0c-60 0 -107.5 16 -142.5 48s-52.5 79.333 -52.5 142v280c0 33.333 -6.33301 56.666 -19 69.999s-31.334 20 -56.001 20h-25v110h25c60 0 107.5 -16 142.5 -48s52.5 -79.333 52.5 -142v-280c0 -33.333 6.33301 -56.666 19 -69.999s31.334 -20 56.001 -20h25v-110
h-25zM259 560c-14.667 48.667 -49.333 85.333 -104 110h195v-110h-91zM30.001 -0.000976562l-0.000976562 110.001h91c14.667 -48.667 49.334 -85.334 104.001 -110.001h-195z" />
    <glyph glyph-name="uni0457" unicode="&#x457;" horiz-adv-x="380" 
d="M150 830v-120h-120v20c0 66.667 33.333 100 100 100h20zM230 710v120h120v-20c0 -66.667 -33.333 -100 -100 -100h-20zM325 0c-60 0 -107.5 16 -142.5 48s-52.5 79.333 -52.5 142v280c0 33.333 -6.33301 56.666 -19 69.999s-31.334 20 -56.001 20h-25v110h25
c60 0 107.5 -16 142.5 -48s52.5 -79.333 52.5 -142v-280c0 -33.333 6.33301 -56.666 19 -69.999s31.334 -20 56.001 -20h25v-110h-25zM259 560c-14.667 48.667 -49.333 85.333 -104 110h195v-110h-91zM30.001 -0.000976562l-0.000976562 110.001h91
c14.667 -48.667 49.334 -85.334 104.001 -110.001h-195z" />
    <glyph glyph-name="uni0458" unicode="&#x458;" 
d="M360 670h120v-475c0 -58.667 -17.5 -105.834 -52.5 -141.501s-84.167 -53.5 -147.5 -53.5h-60c-63.333 0 -112.5 17.833 -147.5 53.5s-52.5 82.834 -52.5 141.501h120c0 -56.667 30 -85 90 -85h40c60 0 90 28.333 90 85v475z" />
    <glyph glyph-name="uni0459" unicode="&#x459;" horiz-adv-x="850" 
d="M620 390c63.333 0 112.503 -17.8311 147.503 -53.498s52.5 -82.834 52.5 -141.501s-17.5 -105.834 -52.5 -141.501s-84.167 -53.5 -147.5 -53.5h-240v560h-110c-16.667 0 -29.334 -3.66699 -38.001 -11s-14 -22 -16 -44l-30 -365c-4 -51.333 -19.333 -87.5 -46 -108.5
s-63.334 -31.5 -110.001 -31.5h-10v110h20c15.333 0 23.333 6.66699 24 20l36 389c5.33301 56 23.666 95.167 54.999 117.5s76.333 33.5 135 33.5h210v-560h110c60 0 90 28.333 90 85s-26.667 85 -80 85h-100v110h100z" />
    <glyph glyph-name="uni045A" unicode="&#x45a;" horiz-adv-x="830" 
d="M600 390c63.333 0 112.5 -17.8311 147.5 -53.498s52.5 -82.834 52.5 -141.501s-17.5 -105.834 -52.5 -141.501s-84.167 -53.5 -147.5 -53.5h-240v195c0 56.667 -30 85 -90 85h-30c-63.333 0 -112.5 17.833 -147.5 53.5s-52.5 82.834 -52.5 141.501v195h120v-195
c0 -56.667 30 -85 90 -85h30c63.333 0 112.5 -17.833 147.5 -53.5s52.5 -82.834 52.5 -141.501v-85h110c60 0 90 28.333 90 85s-26.667 85 -80 85h-100v110h100zM480 295.002c-23.333 52 -63.333 86.667 -120 104v271h120v-375zM40 375.002
c23.333 -52 63.333 -86.667 120 -104v-271h-120v375z" />
    <glyph glyph-name="uni045B" unicode="&#x45b;" horiz-adv-x="650" 
d="M265 670c-54.667 -24.667 -89.333 -61.333 -104 -110h-151v110h255zM410.001 390.001c63.333 0 112.501 -17.833 147.501 -53.5s52.5 -82.834 52.5 -141.501v-195h-120v195c0 56.667 -26.667 85 -80 85h-120v-280h-120v480c0 62.667 17.5 110 52.5 142s82.5 48 142.5 48
h125v-110h-125c-24.667 0 -43.334 -6.66699 -56.001 -20s-19 -36.666 -19 -69.999v-80h120z" />
    <glyph glyph-name="uni045C" unicode="&#x45c;" 
d="M310 855h90.001c0 -46.667 -12.333 -82.5 -37 -107.5s-59.334 -37.5 -104.001 -37.5h-39v80h25c26 0 43.333 5.66699 52 17s13 27.333 13 48zM440.001 450c-10 -52.667 -31 -91.001 -63 -115.001c32 -24 53 -62.333 63 -115l16 -90c2.66699 -13.333 10.667 -20 24 -20h20
v-110h-10c-46 0 -81.5 10.333 -106.5 31s-41.5 57 -49.5 109l-10 66c-8 49.333 -36 74 -84 74c-53.333 0 -80 -28.333 -80 -85v-195h-120v195c0 58.667 17.5 105.834 52.5 141.501s84.167 53.5 147.5 53.5c48 0 76 24.667 84 74l10 66c8 52 24.5 88.333 49.5 109
s60.5 31 106.5 31h10v-110h-20c-13.333 0 -21.333 -6.66699 -24 -20zM160.001 398.999c-56.667 -17.333 -96.667 -52 -120 -104v375h120v-271z" />
    </font>
</defs>
</svg>
