<svg width="52" height="52" viewBox="0 0 52 52" fill="none" xmlns="http://www.w3.org/2000/svg">
<g clip-path="url(#clip0)">
<path d="M51.6478 27.072C52.1361 26.4033 52.1148 25.4905 51.5948 24.8431C43.7301 15.1741 35.2391 10.2706 26.3449 10.2706C11.2629 10.2706 0.78722 24.323 0.35206 24.9174C-0.136168 25.5861 -0.114941 26.4988 0.405128 27.1463C8.25923 36.8259 16.7502 41.7294 25.6444 41.7294C40.7264 41.7294 51.2021 27.677 51.6478 27.072ZM25.6444 38.089C18.2361 38.089 11.0188 34.0133 4.16236 25.9894C6.84761 22.8159 15.381 13.9111 26.3449 13.9111C33.7532 13.9111 40.9705 17.9867 47.8269 26.0106C45.1417 29.1841 36.6083 38.089 25.6444 38.089Z" fill="#5A6366"/>
<path d="M25.9946 16.7556C20.9001 16.7556 16.7502 20.9055 16.7502 26C16.7502 31.0946 20.9001 35.2445 25.9946 35.2445C31.0892 35.2445 35.2391 31.0946 35.2391 26C35.2391 20.9055 31.0892 16.7556 25.9946 16.7556ZM25.9946 31.6041C22.9061 31.6041 20.3906 29.0886 20.3906 26C20.3906 22.9115 22.9061 20.396 25.9946 20.396C29.0832 20.396 31.5987 22.9115 31.5987 26C31.5987 29.0886 29.0832 31.6041 25.9946 31.6041Z" fill="#5A6366"/>
</g>
<defs>
<clipPath id="clip0">
<rect width="52" height="52" fill="white"/>
</clipPath>
</defs>
</svg>
